<mxfile host="app.diagrams.net" modified="2022-01-16T12:54:42.503Z" agent="5.0 (Windows)" etag="yFZNL1UxXX-k0MvoEzXi" version="15.7.3" type="github" pages="5">
  <diagram name="Page-1" id="c4acf3e9-155e-7222-9cf6-157b1a14988f">
    <mxGraphModel dx="2062" dy="752" grid="1" gridSize="10" guides="1" tooltips="1" connect="1" arrows="1" fold="1" page="1" pageScale="1" pageWidth="850" pageHeight="1100" background="none" math="0" shadow="0">
      <root>
        <mxCell id="0" />
        <mxCell id="1" parent="0" />
        <mxCell id="1JhX8ZgM-yy_0caui9JD-9" style="edgeStyle=orthogonalEdgeStyle;rounded=0;jumpSize=6;orthogonalLoop=1;jettySize=auto;html=1;fontFamily=Verdana;fontSize=12;endArrow=block;endFill=0;startSize=40;endSize=12;strokeWidth=1;entryX=0.75;entryY=0;entryDx=0;entryDy=0;exitX=0.5;exitY=0;exitDx=0;exitDy=0;" parent="1" source="17acba5748e5396b-20" target="9RX2nL8yfyn7hLd6P2aQ-16" edge="1">
          <mxGeometry relative="1" as="geometry">
            <Array as="points">
              <mxPoint x="1252" y="80.06" />
              <mxPoint x="1252" y="50.06" />
              <mxPoint x="945" y="50.06" />
            </Array>
            <mxPoint x="1280" y="79.86000000000013" as="sourcePoint" />
          </mxGeometry>
        </mxCell>
        <mxCell id="aItx6ip8RPUMW4J_HGg--37" style="edgeStyle=orthogonalEdgeStyle;rounded=0;orthogonalLoop=1;jettySize=auto;html=1;entryX=0.5;entryY=0;entryDx=0;entryDy=0;" parent="1" source="17acba5748e5396b-20" target="aItx6ip8RPUMW4J_HGg--17" edge="1">
          <mxGeometry relative="1" as="geometry">
            <mxPoint x="1252" y="238.05999999999997" as="targetPoint" />
          </mxGeometry>
        </mxCell>
        <mxCell id="17acba5748e5396b-20" value="&lt;pre&gt;&lt;b&gt;Estudante&lt;/b&gt;&lt;/pre&gt;" style="swimlane;html=1;fontStyle=0;childLayout=stackLayout;horizontal=1;startSize=30;fillColor=none;horizontalStack=0;resizeParent=1;resizeLast=0;collapsible=1;marginBottom=0;swimlaneFillColor=#ffffff;rounded=0;shadow=0;comic=0;labelBackgroundColor=none;strokeWidth=1;fontFamily=Verdana;fontSize=12;align=center;" parent="1" vertex="1">
          <mxGeometry x="1120" y="79.86000000000001" width="265" height="60.2" as="geometry">
            <mxRectangle x="520" y="200" width="80" height="26" as="alternateBounds" />
          </mxGeometry>
        </mxCell>
        <mxCell id="aItx6ip8RPUMW4J_HGg--25" value="- vinculos: List&amp;lt;Vinculo&amp;gt;" style="text;html=1;strokeColor=none;fillColor=none;align=left;verticalAlign=top;spacingLeft=4;spacingRight=4;whiteSpace=wrap;overflow=hidden;rotatable=0;points=[[0,0.5],[1,0.5]];portConstraint=eastwest;" parent="17acba5748e5396b-20" vertex="1">
          <mxGeometry y="30" width="265" height="26" as="geometry" />
        </mxCell>
        <mxCell id="1wyRQQ8GatOI3k9adVf--83" style="edgeStyle=orthogonalEdgeStyle;rounded=0;orthogonalLoop=1;jettySize=auto;html=1;exitX=0.5;exitY=0;exitDx=0;exitDy=0;entryX=1;entryY=0.5;entryDx=0;entryDy=0;dashed=1;endArrow=block;endFill=0;endSize=12;startSize=12;" parent="1" source="17acba5748e5396b-30" target="1JhX8ZgM-yy_0caui9JD-40" edge="1">
          <mxGeometry relative="1" as="geometry">
            <Array as="points">
              <mxPoint x="2107" y="416" />
              <mxPoint x="1870" y="416" />
              <mxPoint x="1870" y="418" />
            </Array>
            <mxPoint x="2180" y="641.92" as="sourcePoint" />
          </mxGeometry>
        </mxCell>
        <mxCell id="17acba5748e5396b-30" value="&lt;pre style=&quot;font-size: 12px&quot;&gt;&lt;b&gt;Curso&lt;/b&gt;&lt;/pre&gt;" style="swimlane;html=1;fontStyle=0;childLayout=stackLayout;horizontal=1;startSize=26;fillColor=none;horizontalStack=0;resizeParent=1;resizeLast=0;collapsible=1;marginBottom=0;swimlaneFillColor=#ffffff;rounded=0;shadow=0;comic=0;labelBackgroundColor=none;strokeWidth=1;fontFamily=Verdana;fontSize=10;align=center;" parent="1" vertex="1">
          <mxGeometry x="1947" y="486.06" width="320" height="400" as="geometry" />
        </mxCell>
        <mxCell id="1wyRQQ8GatOI3k9adVf--92" value="- id: Integer" style="text;html=1;strokeColor=none;fillColor=none;align=left;verticalAlign=top;spacingLeft=4;spacingRight=4;whiteSpace=wrap;overflow=hidden;rotatable=0;points=[[0,0.5],[1,0.5]];portConstraint=eastwest;" parent="17acba5748e5396b-30" vertex="1">
          <mxGeometry y="26" width="320" height="26" as="geometry" />
        </mxCell>
        <mxCell id="1wyRQQ8GatOI3k9adVf--95" value="- nome: String" style="text;html=1;strokeColor=none;fillColor=none;align=left;verticalAlign=top;spacingLeft=4;spacingRight=4;whiteSpace=wrap;overflow=hidden;rotatable=0;points=[[0,0.5],[1,0.5]];portConstraint=eastwest;" parent="17acba5748e5396b-30" vertex="1">
          <mxGeometry y="52" width="320" height="26" as="geometry" />
        </mxCell>
        <mxCell id="17acba5748e5396b-31" value="- codigo: Integer" style="text;html=1;strokeColor=none;fillColor=none;align=left;verticalAlign=top;spacingLeft=4;spacingRight=4;whiteSpace=wrap;overflow=hidden;rotatable=0;points=[[0,0.5],[1,0.5]];portConstraint=eastwest;" parent="17acba5748e5396b-30" vertex="1">
          <mxGeometry y="78" width="320" height="26" as="geometry" />
        </mxCell>
        <mxCell id="1wyRQQ8GatOI3k9adVf--85" value="- disciplinasObrigatorias: List&amp;lt;DisciplinaSemestre&amp;gt;" style="text;html=1;strokeColor=none;fillColor=none;align=left;verticalAlign=top;spacingLeft=4;spacingRight=4;whiteSpace=wrap;overflow=hidden;rotatable=0;points=[[0,0.5],[1,0.5]];portConstraint=eastwest;" parent="17acba5748e5396b-30" vertex="1">
          <mxGeometry y="104" width="320" height="26" as="geometry" />
        </mxCell>
        <mxCell id="1JhX8ZgM-yy_0caui9JD-30" value="- disciplinasOptativas: List&amp;lt;Disciplinas&amp;gt;" style="text;html=1;strokeColor=none;fillColor=none;align=left;verticalAlign=top;spacingLeft=4;spacingRight=4;whiteSpace=wrap;overflow=hidden;rotatable=0;points=[[0,0.5],[1,0.5]];portConstraint=eastwest;" parent="17acba5748e5396b-30" vertex="1">
          <mxGeometry y="130" width="320" height="26" as="geometry" />
        </mxCell>
        <mxCell id="9RX2nL8yfyn7hLd6P2aQ-1" value="- chm: Integer" style="text;html=1;strokeColor=none;fillColor=none;align=left;verticalAlign=top;spacingLeft=4;spacingRight=4;whiteSpace=wrap;overflow=hidden;rotatable=0;points=[[0,0.5],[1,0.5]];portConstraint=eastwest;" parent="17acba5748e5396b-30" vertex="1">
          <mxGeometry y="156" width="320" height="26" as="geometry" />
        </mxCell>
        <mxCell id="1wyRQQ8GatOI3k9adVf--74" value="- cho: Integer" style="text;html=1;strokeColor=none;fillColor=none;align=left;verticalAlign=top;spacingLeft=4;spacingRight=4;whiteSpace=wrap;overflow=hidden;rotatable=0;points=[[0,0.5],[1,0.5]];portConstraint=eastwest;" parent="17acba5748e5396b-30" vertex="1">
          <mxGeometry y="182" width="320" height="26" as="geometry" />
        </mxCell>
        <mxCell id="1wyRQQ8GatOI3k9adVf--75" value="- chom: Integer" style="text;html=1;strokeColor=none;fillColor=none;align=left;verticalAlign=top;spacingLeft=4;spacingRight=4;whiteSpace=wrap;overflow=hidden;rotatable=0;points=[[0,0.5],[1,0.5]];portConstraint=eastwest;" parent="17acba5748e5396b-30" vertex="1">
          <mxGeometry y="208" width="320" height="26" as="geometry" />
        </mxCell>
        <mxCell id="9RX2nL8yfyn7hLd6P2aQ-4" value="- chcm: Integer" style="text;html=1;strokeColor=none;fillColor=none;align=left;verticalAlign=top;spacingLeft=4;spacingRight=4;whiteSpace=wrap;overflow=hidden;rotatable=0;points=[[0,0.5],[1,0.5]];portConstraint=eastwest;" parent="17acba5748e5396b-30" vertex="1">
          <mxGeometry y="234" width="320" height="26" as="geometry" />
        </mxCell>
        <mxCell id="9RX2nL8yfyn7hLd6P2aQ-5" value="- chem: Integer" style="text;html=1;strokeColor=none;fillColor=none;align=left;verticalAlign=top;spacingLeft=4;spacingRight=4;whiteSpace=wrap;overflow=hidden;rotatable=0;points=[[0,0.5],[1,0.5]];portConstraint=eastwest;" parent="17acba5748e5396b-30" vertex="1">
          <mxGeometry y="260" width="320" height="26" as="geometry" />
        </mxCell>
        <mxCell id="17acba5748e5396b-33" value="- chmp: Integer" style="text;html=1;strokeColor=none;fillColor=none;align=left;verticalAlign=top;spacingLeft=4;spacingRight=4;whiteSpace=wrap;overflow=hidden;rotatable=0;points=[[0,0.5],[1,0.5]];portConstraint=eastwest;" parent="17acba5748e5396b-30" vertex="1">
          <mxGeometry y="286" width="320" height="26" as="geometry" />
        </mxCell>
        <mxCell id="9RX2nL8yfyn7hLd6P2aQ-6" value="- prazoMinimo: Integer" style="text;html=1;strokeColor=none;fillColor=none;align=left;verticalAlign=top;spacingLeft=4;spacingRight=4;whiteSpace=wrap;overflow=hidden;rotatable=0;points=[[0,0.5],[1,0.5]];portConstraint=eastwest;" parent="17acba5748e5396b-30" vertex="1">
          <mxGeometry y="312" width="320" height="24" as="geometry" />
        </mxCell>
        <mxCell id="9RX2nL8yfyn7hLd6P2aQ-7" value="- prazoMaximo: Integer" style="text;html=1;strokeColor=none;fillColor=none;align=left;verticalAlign=top;spacingLeft=4;spacingRight=4;whiteSpace=wrap;overflow=hidden;rotatable=0;points=[[0,0.5],[1,0.5]];portConstraint=eastwest;" parent="17acba5748e5396b-30" vertex="1">
          <mxGeometry y="336" width="320" height="26" as="geometry" />
        </mxCell>
        <mxCell id="9RX2nL8yfyn7hLd6P2aQ-8" value="- prazoEsperado: Integer" style="text;html=1;strokeColor=none;fillColor=none;align=left;verticalAlign=top;spacingLeft=4;spacingRight=4;whiteSpace=wrap;overflow=hidden;rotatable=0;points=[[0,0.5],[1,0.5]];portConstraint=eastwest;" parent="17acba5748e5396b-30" vertex="1">
          <mxGeometry y="362" width="320" height="26" as="geometry" />
        </mxCell>
        <mxCell id="1JhX8ZgM-yy_0caui9JD-10" style="edgeStyle=orthogonalEdgeStyle;rounded=0;jumpSize=6;orthogonalLoop=1;jettySize=auto;html=1;entryX=0.25;entryY=0;entryDx=0;entryDy=0;fontFamily=Verdana;fontSize=12;endArrow=block;endFill=0;startSize=40;endSize=12;strokeWidth=1;exitX=0.5;exitY=0;exitDx=0;exitDy=0;" parent="1" source="9RX2nL8yfyn7hLd6P2aQ-10" target="9RX2nL8yfyn7hLd6P2aQ-16" edge="1">
          <mxGeometry relative="1" as="geometry">
            <Array as="points">
              <mxPoint x="635" y="50" />
              <mxPoint x="865" y="50" />
            </Array>
          </mxGeometry>
        </mxCell>
        <mxCell id="9RX2nL8yfyn7hLd6P2aQ-10" value="&lt;pre&gt;&lt;b&gt;Administrador&lt;/b&gt;&lt;/pre&gt;" style="swimlane;html=1;fontStyle=0;childLayout=stackLayout;horizontal=1;startSize=26;fillColor=none;horizontalStack=0;resizeParent=1;resizeLast=0;collapsible=1;marginBottom=0;swimlaneFillColor=#ffffff;rounded=0;shadow=0;comic=0;labelBackgroundColor=none;strokeWidth=1;fontFamily=Verdana;fontSize=12;align=center;" parent="1" vertex="1">
          <mxGeometry x="555" y="79.86000000000001" width="160" height="50.2" as="geometry" />
        </mxCell>
        <mxCell id="9RX2nL8yfyn7hLd6P2aQ-16" value="&lt;pre style=&quot;font-size: 12px&quot;&gt;&amp;lt;&amp;lt;abstract&amp;gt;&amp;gt;&lt;br style=&quot;font-size: 12px&quot;&gt;&lt;b&gt;Usuario&lt;/b&gt;&lt;/pre&gt;" style="swimlane;html=1;fontStyle=0;childLayout=stackLayout;horizontal=1;startSize=40;fillColor=none;horizontalStack=0;resizeParent=1;resizeLast=0;collapsible=1;marginBottom=0;swimlaneFillColor=#ffffff;rounded=0;shadow=0;comic=0;labelBackgroundColor=none;strokeWidth=1;fontFamily=Verdana;fontSize=12;align=center;strokeColor=default;" parent="1" vertex="1">
          <mxGeometry x="825" y="79.86000000000001" width="160" height="160" as="geometry" />
        </mxCell>
        <mxCell id="9RX2nL8yfyn7hLd6P2aQ-17" value="# id: Integer" style="text;html=1;strokeColor=none;fillColor=none;align=left;verticalAlign=top;spacingLeft=4;spacingRight=4;whiteSpace=wrap;overflow=hidden;rotatable=0;points=[[0,0.5],[1,0.5]];portConstraint=eastwest;" parent="9RX2nL8yfyn7hLd6P2aQ-16" vertex="1">
          <mxGeometry y="40" width="160" height="26" as="geometry" />
        </mxCell>
        <mxCell id="9RX2nL8yfyn7hLd6P2aQ-18" value="# nome: String" style="text;html=1;strokeColor=none;fillColor=none;align=left;verticalAlign=top;spacingLeft=4;spacingRight=4;whiteSpace=wrap;overflow=hidden;rotatable=0;points=[[0,0.5],[1,0.5]];portConstraint=eastwest;" parent="9RX2nL8yfyn7hLd6P2aQ-16" vertex="1">
          <mxGeometry y="66" width="160" height="26" as="geometry" />
        </mxCell>
        <mxCell id="1JhX8ZgM-yy_0caui9JD-5" value="# email: String" style="text;html=1;strokeColor=none;fillColor=none;align=left;verticalAlign=top;spacingLeft=4;spacingRight=4;whiteSpace=wrap;overflow=hidden;rotatable=0;points=[[0,0.5],[1,0.5]];portConstraint=eastwest;" parent="9RX2nL8yfyn7hLd6P2aQ-16" vertex="1">
          <mxGeometry y="92" width="160" height="26" as="geometry" />
        </mxCell>
        <mxCell id="9RX2nL8yfyn7hLd6P2aQ-19" value="# senha: String" style="text;html=1;strokeColor=none;fillColor=none;align=left;verticalAlign=top;spacingLeft=4;spacingRight=4;whiteSpace=wrap;overflow=hidden;rotatable=0;points=[[0,0.5],[1,0.5]];portConstraint=eastwest;" parent="9RX2nL8yfyn7hLd6P2aQ-16" vertex="1">
          <mxGeometry y="118" width="160" height="26" as="geometry" />
        </mxCell>
        <mxCell id="9RX2nL8yfyn7hLd6P2aQ-20" value="&lt;pre style=&quot;font-size: 12px&quot;&gt;&lt;b&gt;Disciplina&lt;/b&gt;&lt;/pre&gt;" style="swimlane;html=1;fontStyle=0;childLayout=stackLayout;horizontal=1;startSize=26;fillColor=none;horizontalStack=0;resizeParent=1;resizeLast=0;collapsible=1;marginBottom=0;swimlaneFillColor=#ffffff;rounded=0;shadow=0;comic=0;labelBackgroundColor=none;strokeWidth=1;fontFamily=Verdana;fontSize=10;align=center;" parent="1" vertex="1">
          <mxGeometry x="736.25" y="610.06" width="322.5" height="268" as="geometry" />
        </mxCell>
        <mxCell id="9RX2nL8yfyn7hLd6P2aQ-21" value="- id: Integer" style="text;html=1;strokeColor=none;fillColor=none;align=left;verticalAlign=top;spacingLeft=4;spacingRight=4;whiteSpace=wrap;overflow=hidden;rotatable=0;points=[[0,0.5],[1,0.5]];portConstraint=eastwest;" parent="9RX2nL8yfyn7hLd6P2aQ-20" vertex="1">
          <mxGeometry y="26" width="322.5" height="26" as="geometry" />
        </mxCell>
        <mxCell id="1JhX8ZgM-yy_0caui9JD-15" value="- codigo: String" style="text;html=1;strokeColor=none;fillColor=none;align=left;verticalAlign=top;spacingLeft=4;spacingRight=4;whiteSpace=wrap;overflow=hidden;rotatable=0;points=[[0,0.5],[1,0.5]];portConstraint=eastwest;" parent="9RX2nL8yfyn7hLd6P2aQ-20" vertex="1">
          <mxGeometry y="52" width="322.5" height="26" as="geometry" />
        </mxCell>
        <mxCell id="9RX2nL8yfyn7hLd6P2aQ-22" value="- nome: String" style="text;html=1;strokeColor=none;fillColor=none;align=left;verticalAlign=top;spacingLeft=4;spacingRight=4;whiteSpace=wrap;overflow=hidden;rotatable=0;points=[[0,0.5],[1,0.5]];portConstraint=eastwest;" parent="9RX2nL8yfyn7hLd6P2aQ-20" vertex="1">
          <mxGeometry y="78" width="322.5" height="26" as="geometry" />
        </mxCell>
        <mxCell id="9RX2nL8yfyn7hLd6P2aQ-23" value="- ch: Integer" style="text;html=1;strokeColor=none;fillColor=none;align=left;verticalAlign=top;spacingLeft=4;spacingRight=4;whiteSpace=wrap;overflow=hidden;rotatable=0;points=[[0,0.5],[1,0.5]];portConstraint=eastwest;" parent="9RX2nL8yfyn7hLd6P2aQ-20" vertex="1">
          <mxGeometry y="104" width="322.5" height="26" as="geometry" />
        </mxCell>
        <mxCell id="9RX2nL8yfyn7hLd6P2aQ-45" value="- preRequisitos: List&amp;lt;Disciplina&amp;gt;" style="text;html=1;strokeColor=none;fillColor=none;align=left;verticalAlign=top;spacingLeft=4;spacingRight=4;whiteSpace=wrap;overflow=hidden;rotatable=0;points=[[0,0.5],[1,0.5]];portConstraint=eastwest;" parent="9RX2nL8yfyn7hLd6P2aQ-20" vertex="1">
          <mxGeometry y="130" width="322.5" height="26" as="geometry" />
        </mxCell>
        <mxCell id="9RX2nL8yfyn7hLd6P2aQ-46" value="- coRequisitos: List&amp;lt;Disciplina&amp;gt;" style="text;html=1;strokeColor=none;fillColor=none;align=left;verticalAlign=top;spacingLeft=4;spacingRight=4;whiteSpace=wrap;overflow=hidden;rotatable=0;points=[[0,0.5],[1,0.5]];portConstraint=eastwest;" parent="9RX2nL8yfyn7hLd6P2aQ-20" vertex="1">
          <mxGeometry y="156" width="322.5" height="26" as="geometry" />
        </mxCell>
        <mxCell id="9RX2nL8yfyn7hLd6P2aQ-47" value="- equivalentes: List&amp;lt;Disciplina&amp;gt;" style="text;html=1;strokeColor=none;fillColor=none;align=left;verticalAlign=top;spacingLeft=4;spacingRight=4;whiteSpace=wrap;overflow=hidden;rotatable=0;points=[[0,0.5],[1,0.5]];portConstraint=eastwest;" parent="9RX2nL8yfyn7hLd6P2aQ-20" vertex="1">
          <mxGeometry y="182" width="322.5" height="26" as="geometry" />
        </mxCell>
        <mxCell id="lSFMHM8es2qkY7QadIdE-6" value="" style="line;strokeWidth=1;fillColor=none;align=left;verticalAlign=middle;spacingTop=-1;spacingLeft=3;spacingRight=3;rotatable=0;labelPosition=right;points=[];portConstraint=eastwest;fontFamily=Lucida Console;" parent="9RX2nL8yfyn7hLd6P2aQ-20" vertex="1">
          <mxGeometry y="208" width="322.5" height="8" as="geometry" />
        </mxCell>
        <mxCell id="lSFMHM8es2qkY7QadIdE-7" value="- isEquivalente(Disciplina): Boolean" style="text;html=1;strokeColor=none;fillColor=none;align=left;verticalAlign=top;spacingLeft=4;spacingRight=4;whiteSpace=wrap;overflow=hidden;rotatable=0;points=[[0,0.5],[1,0.5]];portConstraint=eastwest;" parent="9RX2nL8yfyn7hLd6P2aQ-20" vertex="1">
          <mxGeometry y="216" width="322.5" height="26" as="geometry" />
        </mxCell>
        <mxCell id="lSFMHM8es2qkY7QadIdE-8" value="- requisitosFaltantes(List&amp;lt;Disciplina&amp;gt;): List&amp;lt;Disciplina&amp;gt;" style="text;html=1;strokeColor=none;fillColor=none;align=left;verticalAlign=top;spacingLeft=4;spacingRight=4;whiteSpace=wrap;overflow=hidden;rotatable=0;points=[[0,0.5],[1,0.5]];portConstraint=eastwest;" parent="9RX2nL8yfyn7hLd6P2aQ-20" vertex="1">
          <mxGeometry y="242" width="322.5" height="26" as="geometry" />
        </mxCell>
        <mxCell id="aItx6ip8RPUMW4J_HGg--42" style="edgeStyle=orthogonalEdgeStyle;rounded=0;orthogonalLoop=1;jettySize=auto;html=1;entryX=0.498;entryY=0.973;entryDx=0;entryDy=0;entryPerimeter=0;dashed=1;endFill=0;endArrow=block;endSize=12;startSize=12;" parent="1" source="9RX2nL8yfyn7hLd6P2aQ-28" target="1wyRQQ8GatOI3k9adVf--80" edge="1">
          <mxGeometry relative="1" as="geometry" />
        </mxCell>
        <mxCell id="aItx6ip8RPUMW4J_HGg--44" style="edgeStyle=orthogonalEdgeStyle;rounded=0;orthogonalLoop=1;jettySize=auto;html=1;entryX=0;entryY=0.5;entryDx=0;entryDy=0;" parent="1" source="9RX2nL8yfyn7hLd6P2aQ-28" target="1wyRQQ8GatOI3k9adVf--75" edge="1">
          <mxGeometry relative="1" as="geometry">
            <mxPoint x="2004.9999999999998" y="706.9200000000001" as="targetPoint" />
          </mxGeometry>
        </mxCell>
        <mxCell id="9RX2nL8yfyn7hLd6P2aQ-28" value="&lt;pre style=&quot;font-size: 12px&quot;&gt;&lt;b&gt;Enfase&lt;/b&gt;&lt;/pre&gt;" style="swimlane;html=1;fontStyle=0;childLayout=stackLayout;horizontal=1;startSize=26;fillColor=none;horizontalStack=0;resizeParent=1;resizeLast=0;collapsible=1;marginBottom=0;swimlaneFillColor=#ffffff;rounded=0;shadow=0;comic=0;labelBackgroundColor=none;strokeWidth=1;fontFamily=Verdana;fontSize=10;align=center;" parent="1" vertex="1">
          <mxGeometry x="1516" y="641.92" width="320" height="130" as="geometry" />
        </mxCell>
        <mxCell id="1wyRQQ8GatOI3k9adVf--93" value="- id: Integer" style="text;html=1;strokeColor=none;fillColor=none;align=left;verticalAlign=top;spacingLeft=4;spacingRight=4;whiteSpace=wrap;overflow=hidden;rotatable=0;points=[[0,0.5],[1,0.5]];portConstraint=eastwest;" parent="9RX2nL8yfyn7hLd6P2aQ-28" vertex="1">
          <mxGeometry y="26" width="320" height="26" as="geometry" />
        </mxCell>
        <mxCell id="1wyRQQ8GatOI3k9adVf--94" value="- nome: String" style="text;html=1;strokeColor=none;fillColor=none;align=left;verticalAlign=top;spacingLeft=4;spacingRight=4;whiteSpace=wrap;overflow=hidden;rotatable=0;points=[[0,0.5],[1,0.5]];portConstraint=eastwest;" parent="9RX2nL8yfyn7hLd6P2aQ-28" vertex="1">
          <mxGeometry y="52" width="320" height="26" as="geometry" />
        </mxCell>
        <mxCell id="9RX2nL8yfyn7hLd6P2aQ-33" value="- curso: Curso" style="text;html=1;strokeColor=none;fillColor=none;align=left;verticalAlign=top;spacingLeft=4;spacingRight=4;whiteSpace=wrap;overflow=hidden;rotatable=0;points=[[0,0.5],[1,0.5]];portConstraint=eastwest;" parent="9RX2nL8yfyn7hLd6P2aQ-28" vertex="1">
          <mxGeometry y="78" width="320" height="26" as="geometry" />
        </mxCell>
        <mxCell id="1wyRQQ8GatOI3k9adVf--82" value="- disciplinasObrigatorias: List&amp;lt;DisciplinaSemestre&amp;gt;" style="text;html=1;strokeColor=none;fillColor=none;align=left;verticalAlign=top;spacingLeft=4;spacingRight=4;whiteSpace=wrap;overflow=hidden;rotatable=0;points=[[0,0.5],[1,0.5]];portConstraint=eastwest;" parent="9RX2nL8yfyn7hLd6P2aQ-28" vertex="1">
          <mxGeometry y="104" width="320" height="26" as="geometry" />
        </mxCell>
        <mxCell id="DUxJCpyNWoZWgWHjFpM5-2" style="edgeStyle=orthogonalEdgeStyle;rounded=0;orthogonalLoop=1;jettySize=auto;html=1;exitX=1;exitY=0.5;exitDx=0;exitDy=0;entryX=0.5;entryY=1;entryDx=0;entryDy=0;" parent="1" source="1JhX8ZgM-yy_0caui9JD-18" target="9RX2nL8yfyn7hLd6P2aQ-20" edge="1">
          <mxGeometry relative="1" as="geometry" />
        </mxCell>
        <mxCell id="9RX2nL8yfyn7hLd6P2aQ-37" value="&lt;pre style=&quot;font-size: 12px&quot;&gt;&lt;b&gt;Pes&lt;/b&gt;&lt;/pre&gt;" style="swimlane;html=1;fontStyle=0;childLayout=stackLayout;horizontal=1;startSize=26;fillColor=none;horizontalStack=0;resizeParent=1;resizeLast=0;collapsible=1;marginBottom=0;swimlaneFillColor=#ffffff;rounded=0;shadow=0;comic=0;labelBackgroundColor=none;strokeWidth=1;fontFamily=Verdana;fontSize=10;align=center;" parent="1" vertex="1">
          <mxGeometry x="370" y="910" width="280" height="182" as="geometry" />
        </mxCell>
        <mxCell id="1wyRQQ8GatOI3k9adVf--90" value="- id: Integer" style="text;html=1;strokeColor=none;fillColor=none;align=left;verticalAlign=top;spacingLeft=4;spacingRight=4;whiteSpace=wrap;overflow=hidden;rotatable=0;points=[[0,0.5],[1,0.5]];portConstraint=eastwest;" parent="9RX2nL8yfyn7hLd6P2aQ-37" vertex="1">
          <mxGeometry y="26" width="280" height="26" as="geometry" />
        </mxCell>
        <mxCell id="1wyRQQ8GatOI3k9adVf--91" value="- nome: String" style="text;html=1;strokeColor=none;fillColor=none;align=left;verticalAlign=top;spacingLeft=4;spacingRight=4;whiteSpace=wrap;overflow=hidden;rotatable=0;points=[[0,0.5],[1,0.5]];portConstraint=eastwest;" parent="9RX2nL8yfyn7hLd6P2aQ-37" vertex="1">
          <mxGeometry y="52" width="280" height="26" as="geometry" />
        </mxCell>
        <mxCell id="1JhX8ZgM-yy_0caui9JD-18" value="- chm: Integer" style="text;html=1;strokeColor=none;fillColor=none;align=left;verticalAlign=top;spacingLeft=4;spacingRight=4;whiteSpace=wrap;overflow=hidden;rotatable=0;points=[[0,0.5],[1,0.5]];portConstraint=eastwest;" parent="9RX2nL8yfyn7hLd6P2aQ-37" vertex="1">
          <mxGeometry y="78" width="280" height="26" as="geometry" />
        </mxCell>
        <mxCell id="1wyRQQ8GatOI3k9adVf--103" value="- cho: Integer" style="text;html=1;strokeColor=none;fillColor=none;align=left;verticalAlign=top;spacingLeft=4;spacingRight=4;whiteSpace=wrap;overflow=hidden;rotatable=0;points=[[0,0.5],[1,0.5]];portConstraint=eastwest;" parent="9RX2nL8yfyn7hLd6P2aQ-37" vertex="1">
          <mxGeometry y="104" width="280" height="26" as="geometry" />
        </mxCell>
        <mxCell id="1wyRQQ8GatOI3k9adVf--86" value="- disciplinasObrigatorias: List&amp;lt;Disciplinas&amp;gt;" style="text;html=1;strokeColor=none;fillColor=none;align=left;verticalAlign=top;spacingLeft=4;spacingRight=4;whiteSpace=wrap;overflow=hidden;rotatable=0;points=[[0,0.5],[1,0.5]];portConstraint=eastwest;" parent="9RX2nL8yfyn7hLd6P2aQ-37" vertex="1">
          <mxGeometry y="130" width="280" height="26" as="geometry" />
        </mxCell>
        <mxCell id="1JhX8ZgM-yy_0caui9JD-28" value="- disciplinasOptativas: List&amp;lt;Disciplinas&amp;gt;" style="text;html=1;strokeColor=none;fillColor=none;align=left;verticalAlign=top;spacingLeft=4;spacingRight=4;whiteSpace=wrap;overflow=hidden;rotatable=0;points=[[0,0.5],[1,0.5]];portConstraint=eastwest;" parent="9RX2nL8yfyn7hLd6P2aQ-37" vertex="1">
          <mxGeometry y="156" width="280" height="26" as="geometry" />
        </mxCell>
        <mxCell id="aItx6ip8RPUMW4J_HGg--41" style="edgeStyle=orthogonalEdgeStyle;rounded=0;orthogonalLoop=1;jettySize=auto;html=1;" parent="1" source="1JhX8ZgM-yy_0caui9JD-23" target="9RX2nL8yfyn7hLd6P2aQ-20" edge="1">
          <mxGeometry relative="1" as="geometry" />
        </mxCell>
        <mxCell id="1JhX8ZgM-yy_0caui9JD-23" value="&lt;pre style=&quot;font-size: 12px&quot;&gt;&lt;b&gt;DisciplinaSemestre&lt;/b&gt;&lt;/pre&gt;" style="swimlane;html=1;fontStyle=0;childLayout=stackLayout;horizontal=1;startSize=26;fillColor=none;horizontalStack=0;resizeParent=1;resizeLast=0;collapsible=1;marginBottom=0;swimlaneFillColor=#ffffff;rounded=0;shadow=0;comic=0;labelBackgroundColor=none;strokeWidth=1;fontFamily=Verdana;fontSize=10;align=center;" parent="1" vertex="1">
          <mxGeometry x="757.5" y="460.06" width="280" height="78" as="geometry" />
        </mxCell>
        <mxCell id="1JhX8ZgM-yy_0caui9JD-24" value="- disciplina: Disciplina" style="text;html=1;strokeColor=none;fillColor=none;align=left;verticalAlign=top;spacingLeft=4;spacingRight=4;whiteSpace=wrap;overflow=hidden;rotatable=0;points=[[0,0.5],[1,0.5]];portConstraint=eastwest;" parent="1JhX8ZgM-yy_0caui9JD-23" vertex="1">
          <mxGeometry y="26" width="280" height="26" as="geometry" />
        </mxCell>
        <mxCell id="1JhX8ZgM-yy_0caui9JD-25" value="- semestre: Integer" style="text;html=1;strokeColor=none;fillColor=none;align=left;verticalAlign=top;spacingLeft=4;spacingRight=4;whiteSpace=wrap;overflow=hidden;rotatable=0;points=[[0,0.5],[1,0.5]];portConstraint=eastwest;" parent="1JhX8ZgM-yy_0caui9JD-23" vertex="1">
          <mxGeometry y="52" width="280" height="26" as="geometry" />
        </mxCell>
        <mxCell id="aItx6ip8RPUMW4J_HGg--47" style="edgeStyle=orthogonalEdgeStyle;rounded=0;orthogonalLoop=1;jettySize=auto;html=1;entryX=1;entryY=0.5;entryDx=0;entryDy=0;" parent="1" source="1JhX8ZgM-yy_0caui9JD-36" target="1JhX8ZgM-yy_0caui9JD-24" edge="1">
          <mxGeometry relative="1" as="geometry">
            <Array as="points">
              <mxPoint x="1375" y="499.06" />
              <mxPoint x="1375" y="499.06" />
            </Array>
          </mxGeometry>
        </mxCell>
        <mxCell id="aItx6ip8RPUMW4J_HGg--50" style="edgeStyle=orthogonalEdgeStyle;rounded=0;orthogonalLoop=1;jettySize=auto;html=1;entryX=1;entryY=0.5;entryDx=0;entryDy=0;" parent="1" source="1JhX8ZgM-yy_0caui9JD-36" target="9RX2nL8yfyn7hLd6P2aQ-23" edge="1">
          <mxGeometry relative="1" as="geometry">
            <Array as="points">
              <mxPoint x="1255" y="550.06" />
              <mxPoint x="1255" y="727.06" />
            </Array>
          </mxGeometry>
        </mxCell>
        <mxCell id="1JhX8ZgM-yy_0caui9JD-36" value="&lt;pre style=&quot;font-size: 12px&quot;&gt;&amp;lt;&amp;lt;interface&amp;gt;&amp;gt;&lt;br&gt;&lt;b&gt;GradeCurricularPrimaria&lt;/b&gt;&lt;/pre&gt;" style="swimlane;html=1;fontStyle=0;childLayout=stackLayout;horizontal=1;startSize=40;fillColor=none;horizontalStack=0;resizeParent=1;resizeLast=0;collapsible=1;marginBottom=0;swimlaneFillColor=#ffffff;rounded=0;shadow=0;comic=0;labelBackgroundColor=none;strokeWidth=1;fontFamily=Verdana;fontSize=10;align=center;" parent="1" vertex="1">
          <mxGeometry x="1496" y="260.96" width="360" height="326" as="geometry">
            <mxRectangle x="520" y="200" width="80" height="26" as="alternateBounds" />
          </mxGeometry>
        </mxCell>
        <mxCell id="1wyRQQ8GatOI3k9adVf--65" value="+ getDisciplinasObrigatorias(): List&amp;lt;DisciplinaSemestre&amp;gt;" style="text;html=1;strokeColor=none;fillColor=none;align=left;verticalAlign=top;spacingLeft=4;spacingRight=4;whiteSpace=wrap;overflow=hidden;rotatable=0;points=[[0,0.5],[1,0.5]];portConstraint=eastwest;" parent="1JhX8ZgM-yy_0caui9JD-36" vertex="1">
          <mxGeometry y="40" width="360" height="26" as="geometry" />
        </mxCell>
        <mxCell id="1wyRQQ8GatOI3k9adVf--66" value="+ getDisciplinasOptativas(): List&amp;lt;Disciplina&amp;gt;" style="text;html=1;strokeColor=none;fillColor=none;align=left;verticalAlign=top;spacingLeft=4;spacingRight=4;whiteSpace=wrap;overflow=hidden;rotatable=0;points=[[0,0.5],[1,0.5]];portConstraint=eastwest;" parent="1JhX8ZgM-yy_0caui9JD-36" vertex="1">
          <mxGeometry y="66" width="360" height="26" as="geometry" />
        </mxCell>
        <mxCell id="aItx6ip8RPUMW4J_HGg--2" value="+ getChm(): Integer" style="text;html=1;strokeColor=none;fillColor=none;align=left;verticalAlign=top;spacingLeft=4;spacingRight=4;whiteSpace=wrap;overflow=hidden;rotatable=0;points=[[0,0.5],[1,0.5]];portConstraint=eastwest;" parent="1JhX8ZgM-yy_0caui9JD-36" vertex="1">
          <mxGeometry y="92" width="360" height="26" as="geometry" />
        </mxCell>
        <mxCell id="aItx6ip8RPUMW4J_HGg--1" value="+ getCho(): Integer" style="text;html=1;strokeColor=none;fillColor=none;align=left;verticalAlign=top;spacingLeft=4;spacingRight=4;whiteSpace=wrap;overflow=hidden;rotatable=0;points=[[0,0.5],[1,0.5]];portConstraint=eastwest;" parent="1JhX8ZgM-yy_0caui9JD-36" vertex="1">
          <mxGeometry y="118" width="360" height="26" as="geometry" />
        </mxCell>
        <mxCell id="1JhX8ZgM-yy_0caui9JD-40" value="+ getChom(): Integer" style="text;html=1;strokeColor=none;fillColor=none;align=left;verticalAlign=top;spacingLeft=4;spacingRight=4;whiteSpace=wrap;overflow=hidden;rotatable=0;points=[[0,0.5],[1,0.5]];portConstraint=eastwest;" parent="1JhX8ZgM-yy_0caui9JD-36" vertex="1">
          <mxGeometry y="144" width="360" height="26" as="geometry" />
        </mxCell>
        <mxCell id="1wyRQQ8GatOI3k9adVf--76" value="+ getChcm(): Integer" style="text;html=1;strokeColor=none;fillColor=none;align=left;verticalAlign=top;spacingLeft=4;spacingRight=4;whiteSpace=wrap;overflow=hidden;rotatable=0;points=[[0,0.5],[1,0.5]];portConstraint=eastwest;" parent="1JhX8ZgM-yy_0caui9JD-36" vertex="1">
          <mxGeometry y="170" width="360" height="26" as="geometry" />
        </mxCell>
        <mxCell id="1wyRQQ8GatOI3k9adVf--67" value="+ getChem(): Integer" style="text;html=1;strokeColor=none;fillColor=none;align=left;verticalAlign=top;spacingLeft=4;spacingRight=4;whiteSpace=wrap;overflow=hidden;rotatable=0;points=[[0,0.5],[1,0.5]];portConstraint=eastwest;" parent="1JhX8ZgM-yy_0caui9JD-36" vertex="1">
          <mxGeometry y="196" width="360" height="26" as="geometry" />
        </mxCell>
        <mxCell id="1wyRQQ8GatOI3k9adVf--77" value="+ getChmp(): Integer" style="text;html=1;strokeColor=none;fillColor=none;align=left;verticalAlign=top;spacingLeft=4;spacingRight=4;whiteSpace=wrap;overflow=hidden;rotatable=0;points=[[0,0.5],[1,0.5]];portConstraint=eastwest;" parent="1JhX8ZgM-yy_0caui9JD-36" vertex="1">
          <mxGeometry y="222" width="360" height="26" as="geometry" />
        </mxCell>
        <mxCell id="1wyRQQ8GatOI3k9adVf--78" value="+ getPrazoMinimo(): Integer" style="text;html=1;strokeColor=none;fillColor=none;align=left;verticalAlign=top;spacingLeft=4;spacingRight=4;whiteSpace=wrap;overflow=hidden;rotatable=0;points=[[0,0.5],[1,0.5]];portConstraint=eastwest;" parent="1JhX8ZgM-yy_0caui9JD-36" vertex="1">
          <mxGeometry y="248" width="360" height="26" as="geometry" />
        </mxCell>
        <mxCell id="1wyRQQ8GatOI3k9adVf--79" value="+ getPrazoMaximo(): Integer" style="text;html=1;strokeColor=none;fillColor=none;align=left;verticalAlign=top;spacingLeft=4;spacingRight=4;whiteSpace=wrap;overflow=hidden;rotatable=0;points=[[0,0.5],[1,0.5]];portConstraint=eastwest;" parent="1JhX8ZgM-yy_0caui9JD-36" vertex="1">
          <mxGeometry y="274" width="360" height="26" as="geometry" />
        </mxCell>
        <mxCell id="1wyRQQ8GatOI3k9adVf--80" value="+ getPrazoEsperado(): Integer" style="text;html=1;strokeColor=none;fillColor=none;align=left;verticalAlign=top;spacingLeft=4;spacingRight=4;whiteSpace=wrap;overflow=hidden;rotatable=0;points=[[0,0.5],[1,0.5]];portConstraint=eastwest;" parent="1JhX8ZgM-yy_0caui9JD-36" vertex="1">
          <mxGeometry y="300" width="360" height="26" as="geometry" />
        </mxCell>
        <mxCell id="DUxJCpyNWoZWgWHjFpM5-1" style="edgeStyle=orthogonalEdgeStyle;rounded=0;orthogonalLoop=1;jettySize=auto;html=1;exitX=1;exitY=0.232;exitDx=0;exitDy=0;entryX=0;entryY=0.5;entryDx=0;entryDy=0;exitPerimeter=0;" parent="1" source="1JhX8ZgM-yy_0caui9JD-39" target="9RX2nL8yfyn7hLd6P2aQ-23" edge="1">
          <mxGeometry relative="1" as="geometry" />
        </mxCell>
        <mxCell id="1wyRQQ8GatOI3k9adVf--68" value="&lt;pre style=&quot;font-size: 12px&quot;&gt;&amp;lt;&amp;lt;interface&amp;gt;&amp;gt;&lt;br&gt;&lt;b&gt;GradeCurricularSecundaria&lt;/b&gt;&lt;/pre&gt;" style="swimlane;html=1;fontStyle=0;childLayout=stackLayout;horizontal=1;startSize=40;fillColor=none;horizontalStack=0;resizeParent=1;resizeLast=0;collapsible=1;marginBottom=0;swimlaneFillColor=#ffffff;rounded=0;shadow=0;comic=0;labelBackgroundColor=none;strokeWidth=1;fontFamily=Verdana;fontSize=10;align=center;" parent="1" vertex="1">
          <mxGeometry x="350" y="655.06" width="320" height="178" as="geometry">
            <mxRectangle x="520" y="200" width="80" height="26" as="alternateBounds" />
          </mxGeometry>
        </mxCell>
        <mxCell id="1wyRQQ8GatOI3k9adVf--64" value="+ getChm(): Integer" style="text;html=1;strokeColor=none;fillColor=none;align=left;verticalAlign=top;spacingLeft=4;spacingRight=4;whiteSpace=wrap;overflow=hidden;rotatable=0;points=[[0,0.5],[1,0.5]];portConstraint=eastwest;" parent="1wyRQQ8GatOI3k9adVf--68" vertex="1">
          <mxGeometry y="40" width="320" height="26" as="geometry" />
        </mxCell>
        <mxCell id="1JhX8ZgM-yy_0caui9JD-39" value="+ getCho(): Integer" style="text;html=1;strokeColor=none;fillColor=none;align=left;verticalAlign=top;spacingLeft=4;spacingRight=4;whiteSpace=wrap;overflow=hidden;rotatable=0;points=[[0,0.5],[1,0.5]];portConstraint=eastwest;" parent="1wyRQQ8GatOI3k9adVf--68" vertex="1">
          <mxGeometry y="66" width="320" height="26" as="geometry" />
        </mxCell>
        <mxCell id="1wyRQQ8GatOI3k9adVf--105" value="+ getDisciplinasObrigatorias(): List&amp;lt;Disciplina&amp;gt;" style="text;html=1;strokeColor=none;fillColor=none;align=left;verticalAlign=top;spacingLeft=4;spacingRight=4;whiteSpace=wrap;overflow=hidden;rotatable=0;points=[[0,0.5],[1,0.5]];portConstraint=eastwest;" parent="1wyRQQ8GatOI3k9adVf--68" vertex="1">
          <mxGeometry y="92" width="320" height="26" as="geometry" />
        </mxCell>
        <mxCell id="1wyRQQ8GatOI3k9adVf--106" value="+ getDisciplinasOptativas(): List&amp;lt;Disciplina&amp;gt;" style="text;html=1;strokeColor=none;fillColor=none;align=left;verticalAlign=top;spacingLeft=4;spacingRight=4;whiteSpace=wrap;overflow=hidden;rotatable=0;points=[[0,0.5],[1,0.5]];portConstraint=eastwest;" parent="1wyRQQ8GatOI3k9adVf--68" vertex="1">
          <mxGeometry y="118" width="320" height="26" as="geometry" />
        </mxCell>
        <mxCell id="lSFMHM8es2qkY7QadIdE-11" value="+ concluida(List&amp;lt;Disciplina&amp;gt;): Boolean" style="text;html=1;strokeColor=none;fillColor=none;align=left;verticalAlign=top;spacingLeft=4;spacingRight=4;whiteSpace=wrap;overflow=hidden;rotatable=0;points=[[0,0.5],[1,0.5]];portConstraint=eastwest;" parent="1wyRQQ8GatOI3k9adVf--68" vertex="1">
          <mxGeometry y="144" width="320" height="26" as="geometry" />
        </mxCell>
        <mxCell id="1wyRQQ8GatOI3k9adVf--108" style="edgeStyle=orthogonalEdgeStyle;rounded=0;orthogonalLoop=1;jettySize=auto;html=1;dashed=1;endArrow=block;endFill=0;endSize=12;startSize=12;exitX=0.5;exitY=0;exitDx=0;exitDy=0;entryX=0.5;entryY=1;entryDx=0;entryDy=0;" parent="1" source="9RX2nL8yfyn7hLd6P2aQ-37" target="1wyRQQ8GatOI3k9adVf--68" edge="1">
          <mxGeometry relative="1" as="geometry">
            <mxPoint x="880" y="810.06" as="sourcePoint" />
            <mxPoint x="570" y="1100.16" as="targetPoint" />
            <Array as="points">
              <mxPoint x="510" y="870" />
              <mxPoint x="510" y="870" />
            </Array>
          </mxGeometry>
        </mxCell>
        <mxCell id="aItx6ip8RPUMW4J_HGg--40" style="edgeStyle=orthogonalEdgeStyle;rounded=0;orthogonalLoop=1;jettySize=auto;html=1;entryX=0.5;entryY=0;entryDx=0;entryDy=0;" parent="1" source="aItx6ip8RPUMW4J_HGg--4" target="1JhX8ZgM-yy_0caui9JD-23" edge="1">
          <mxGeometry relative="1" as="geometry" />
        </mxCell>
        <mxCell id="aItx6ip8RPUMW4J_HGg--4" value="&lt;pre style=&quot;font-size: 12px&quot;&gt;&lt;b&gt;PlanoCurso&lt;/b&gt;&lt;/pre&gt;" style="swimlane;html=1;fontStyle=0;childLayout=stackLayout;horizontal=1;startSize=26;fillColor=none;horizontalStack=0;resizeParent=1;resizeLast=0;collapsible=1;marginBottom=0;swimlaneFillColor=#ffffff;rounded=0;shadow=0;comic=0;labelBackgroundColor=none;strokeWidth=1;fontFamily=Verdana;fontSize=10;align=center;" parent="1" vertex="1">
          <mxGeometry x="750" y="280" width="295" height="120" as="geometry" />
        </mxCell>
        <mxCell id="aItx6ip8RPUMW4J_HGg--5" value="- disciplinasCursadas: List&amp;lt;DisciplinaSemestre&amp;gt;" style="text;html=1;strokeColor=none;fillColor=none;align=left;verticalAlign=top;spacingLeft=4;spacingRight=4;whiteSpace=wrap;overflow=hidden;rotatable=0;points=[[0,0.5],[1,0.5]];portConstraint=eastwest;" parent="aItx6ip8RPUMW4J_HGg--4" vertex="1">
          <mxGeometry y="26" width="295" height="26" as="geometry" />
        </mxCell>
        <mxCell id="aItx6ip8RPUMW4J_HGg--6" value="- disciplinasPendentes: List&amp;lt;DisciplinaSemestre&amp;gt;" style="text;html=1;strokeColor=none;fillColor=none;align=left;verticalAlign=top;spacingLeft=4;spacingRight=4;whiteSpace=wrap;overflow=hidden;rotatable=0;points=[[0,0.5],[1,0.5]];portConstraint=eastwest;" parent="aItx6ip8RPUMW4J_HGg--4" vertex="1">
          <mxGeometry y="52" width="295" height="26" as="geometry" />
        </mxCell>
        <mxCell id="lSFMHM8es2qkY7QadIdE-12" value="- listaPesInteresse: List&amp;lt;Pes&amp;gt;" style="text;html=1;strokeColor=none;fillColor=none;align=left;verticalAlign=top;spacingLeft=4;spacingRight=4;whiteSpace=wrap;overflow=hidden;rotatable=0;points=[[0,0.5],[1,0.5]];portConstraint=eastwest;" parent="aItx6ip8RPUMW4J_HGg--4" vertex="1">
          <mxGeometry y="78" width="295" height="26" as="geometry" />
        </mxCell>
        <mxCell id="aItx6ip8RPUMW4J_HGg--39" style="edgeStyle=orthogonalEdgeStyle;rounded=0;orthogonalLoop=1;jettySize=auto;html=1;" parent="1" source="aItx6ip8RPUMW4J_HGg--17" edge="1">
          <mxGeometry relative="1" as="geometry">
            <mxPoint x="1045" y="339" as="targetPoint" />
            <Array as="points">
              <mxPoint x="1045" y="339" />
            </Array>
          </mxGeometry>
        </mxCell>
        <mxCell id="aItx6ip8RPUMW4J_HGg--46" style="edgeStyle=orthogonalEdgeStyle;rounded=0;orthogonalLoop=1;jettySize=auto;html=1;entryX=0;entryY=0.5;entryDx=0;entryDy=0;" parent="1" source="aItx6ip8RPUMW4J_HGg--17" target="1wyRQQ8GatOI3k9adVf--66" edge="1">
          <mxGeometry relative="1" as="geometry">
            <Array as="points">
              <mxPoint x="1410" y="340" />
              <mxPoint x="1410" y="340" />
            </Array>
          </mxGeometry>
        </mxCell>
        <mxCell id="aItx6ip8RPUMW4J_HGg--17" value="&lt;pre style=&quot;font-size: 12px&quot;&gt;&lt;b&gt;Vinculo&lt;/b&gt;&lt;/pre&gt;" style="swimlane;html=1;fontStyle=0;childLayout=stackLayout;horizontal=1;startSize=26;fillColor=none;horizontalStack=0;resizeParent=1;resizeLast=0;collapsible=1;marginBottom=0;swimlaneFillColor=#ffffff;rounded=0;shadow=0;comic=0;labelBackgroundColor=none;strokeWidth=1;fontFamily=Verdana;fontSize=10;align=center;" parent="1" vertex="1">
          <mxGeometry x="1120" y="260.96000000000004" width="265" height="156" as="geometry" />
        </mxCell>
        <mxCell id="aItx6ip8RPUMW4J_HGg--18" value="- matricula: String" style="text;html=1;strokeColor=none;fillColor=none;align=left;verticalAlign=top;spacingLeft=4;spacingRight=4;whiteSpace=wrap;overflow=hidden;rotatable=0;points=[[0,0.5],[1,0.5]];portConstraint=eastwest;" parent="aItx6ip8RPUMW4J_HGg--17" vertex="1">
          <mxGeometry y="26" width="265" height="26" as="geometry" />
        </mxCell>
        <mxCell id="aItx6ip8RPUMW4J_HGg--21" value="- periodoInicial: Integer" style="text;html=1;strokeColor=none;fillColor=none;align=left;verticalAlign=top;spacingLeft=4;spacingRight=4;whiteSpace=wrap;overflow=hidden;rotatable=0;points=[[0,0.5],[1,0.5]];portConstraint=eastwest;" parent="aItx6ip8RPUMW4J_HGg--17" vertex="1">
          <mxGeometry y="52" width="265" height="26" as="geometry" />
        </mxCell>
        <mxCell id="aItx6ip8RPUMW4J_HGg--22" value="- periodoAtual: Integer" style="text;html=1;strokeColor=none;fillColor=none;align=left;verticalAlign=top;spacingLeft=4;spacingRight=4;whiteSpace=wrap;overflow=hidden;rotatable=0;points=[[0,0.5],[1,0.5]];portConstraint=eastwest;" parent="aItx6ip8RPUMW4J_HGg--17" vertex="1">
          <mxGeometry y="78" width="265" height="26" as="geometry" />
        </mxCell>
        <mxCell id="aItx6ip8RPUMW4J_HGg--23" value="- gradePrincipal: GradeCurricularPrimaria" style="text;html=1;strokeColor=none;fillColor=none;align=left;verticalAlign=top;spacingLeft=4;spacingRight=4;whiteSpace=wrap;overflow=hidden;rotatable=0;points=[[0,0.5],[1,0.5]];portConstraint=eastwest;" parent="aItx6ip8RPUMW4J_HGg--17" vertex="1">
          <mxGeometry y="104" width="265" height="26" as="geometry" />
        </mxCell>
        <mxCell id="aItx6ip8RPUMW4J_HGg--24" value="- planoCurso: PlanoCurso" style="text;html=1;strokeColor=none;fillColor=none;align=left;verticalAlign=top;spacingLeft=4;spacingRight=4;whiteSpace=wrap;overflow=hidden;rotatable=0;points=[[0,0.5],[1,0.5]];portConstraint=eastwest;" parent="aItx6ip8RPUMW4J_HGg--17" vertex="1">
          <mxGeometry y="130" width="265" height="26" as="geometry" />
        </mxCell>
      </root>
    </mxGraphModel>
  </diagram>
  <diagram id="g5fj5nCobHP614JkQAbT" name="Page-2">
    <mxGraphModel dx="2062" dy="752" grid="1" gridSize="10" guides="1" tooltips="1" connect="1" arrows="1" fold="1" page="1" pageScale="1" pageWidth="827" pageHeight="1169" math="0" shadow="0">
      <root>
        <mxCell id="aJJ8dP-VgfmOxqk7pjXH-0" />
        <mxCell id="aJJ8dP-VgfmOxqk7pjXH-1" parent="aJJ8dP-VgfmOxqk7pjXH-0" />
        <mxCell id="J25SiXyJA0IX3_WEvqsw-0" style="edgeStyle=orthogonalEdgeStyle;rounded=0;jumpSize=6;orthogonalLoop=1;jettySize=auto;html=1;fontFamily=Verdana;fontSize=12;endArrow=block;endFill=0;startSize=40;endSize=12;strokeWidth=1;entryX=0.75;entryY=0;entryDx=0;entryDy=0;exitX=0.5;exitY=0;exitDx=0;exitDy=0;" parent="aJJ8dP-VgfmOxqk7pjXH-1" source="J25SiXyJA0IX3_WEvqsw-2" target="J25SiXyJA0IX3_WEvqsw-22" edge="1">
          <mxGeometry relative="1" as="geometry">
            <Array as="points">
              <mxPoint x="1252" y="80.06" />
              <mxPoint x="1252" y="50.06" />
              <mxPoint x="945" y="50.06" />
            </Array>
            <mxPoint x="1280" y="79.86000000000013" as="sourcePoint" />
          </mxGeometry>
        </mxCell>
        <mxCell id="J25SiXyJA0IX3_WEvqsw-1" style="edgeStyle=orthogonalEdgeStyle;rounded=0;orthogonalLoop=1;jettySize=auto;html=1;entryX=0.5;entryY=0;entryDx=0;entryDy=0;" parent="aJJ8dP-VgfmOxqk7pjXH-1" source="J25SiXyJA0IX3_WEvqsw-2" target="J25SiXyJA0IX3_WEvqsw-86" edge="1">
          <mxGeometry relative="1" as="geometry">
            <mxPoint x="1252" y="238.05999999999997" as="targetPoint" />
          </mxGeometry>
        </mxCell>
        <mxCell id="J25SiXyJA0IX3_WEvqsw-2" value="&lt;pre&gt;&lt;b&gt;Estudante&lt;/b&gt;&lt;/pre&gt;" style="swimlane;html=1;fontStyle=0;childLayout=stackLayout;horizontal=1;startSize=30;fillColor=none;horizontalStack=0;resizeParent=1;resizeLast=0;collapsible=1;marginBottom=0;swimlaneFillColor=#ffffff;rounded=0;shadow=0;comic=0;labelBackgroundColor=none;strokeWidth=1;fontFamily=Verdana;fontSize=12;align=center;" parent="aJJ8dP-VgfmOxqk7pjXH-1" vertex="1">
          <mxGeometry x="1120" y="79.86000000000001" width="265" height="60.2" as="geometry">
            <mxRectangle x="520" y="200" width="80" height="26" as="alternateBounds" />
          </mxGeometry>
        </mxCell>
        <mxCell id="J25SiXyJA0IX3_WEvqsw-3" value="- vinculos: List&amp;lt;Vinculo&amp;gt;" style="text;html=1;strokeColor=none;fillColor=none;align=left;verticalAlign=top;spacingLeft=4;spacingRight=4;whiteSpace=wrap;overflow=hidden;rotatable=0;points=[[0,0.5],[1,0.5]];portConstraint=eastwest;" parent="J25SiXyJA0IX3_WEvqsw-2" vertex="1">
          <mxGeometry y="30" width="265" height="26" as="geometry" />
        </mxCell>
        <mxCell id="J25SiXyJA0IX3_WEvqsw-4" style="edgeStyle=orthogonalEdgeStyle;rounded=0;orthogonalLoop=1;jettySize=auto;html=1;exitX=0.5;exitY=0;exitDx=0;exitDy=0;entryX=1;entryY=0.5;entryDx=0;entryDy=0;dashed=1;endArrow=block;endFill=0;endSize=12;startSize=12;" parent="aJJ8dP-VgfmOxqk7pjXH-1" source="J25SiXyJA0IX3_WEvqsw-5" target="J25SiXyJA0IX3_WEvqsw-64" edge="1">
          <mxGeometry relative="1" as="geometry">
            <Array as="points">
              <mxPoint x="2107" y="416" />
              <mxPoint x="1870" y="416" />
              <mxPoint x="1870" y="418" />
            </Array>
            <mxPoint x="2180" y="641.92" as="sourcePoint" />
          </mxGeometry>
        </mxCell>
        <mxCell id="J25SiXyJA0IX3_WEvqsw-5" value="&lt;pre style=&quot;font-size: 12px&quot;&gt;&lt;b&gt;Curso&lt;/b&gt;&lt;/pre&gt;" style="swimlane;html=1;fontStyle=0;childLayout=stackLayout;horizontal=1;startSize=26;fillColor=none;horizontalStack=0;resizeParent=1;resizeLast=0;collapsible=1;marginBottom=0;swimlaneFillColor=#ffffff;rounded=0;shadow=0;comic=0;labelBackgroundColor=none;strokeWidth=1;fontFamily=Verdana;fontSize=10;align=center;" parent="aJJ8dP-VgfmOxqk7pjXH-1" vertex="1">
          <mxGeometry x="1947" y="486.06" width="320" height="400" as="geometry" />
        </mxCell>
        <mxCell id="J25SiXyJA0IX3_WEvqsw-6" value="- id: Integer" style="text;html=1;strokeColor=none;fillColor=none;align=left;verticalAlign=top;spacingLeft=4;spacingRight=4;whiteSpace=wrap;overflow=hidden;rotatable=0;points=[[0,0.5],[1,0.5]];portConstraint=eastwest;" parent="J25SiXyJA0IX3_WEvqsw-5" vertex="1">
          <mxGeometry y="26" width="320" height="26" as="geometry" />
        </mxCell>
        <mxCell id="J25SiXyJA0IX3_WEvqsw-7" value="- nome: String" style="text;html=1;strokeColor=none;fillColor=none;align=left;verticalAlign=top;spacingLeft=4;spacingRight=4;whiteSpace=wrap;overflow=hidden;rotatable=0;points=[[0,0.5],[1,0.5]];portConstraint=eastwest;" parent="J25SiXyJA0IX3_WEvqsw-5" vertex="1">
          <mxGeometry y="52" width="320" height="26" as="geometry" />
        </mxCell>
        <mxCell id="J25SiXyJA0IX3_WEvqsw-8" value="- codigo: Integer" style="text;html=1;strokeColor=none;fillColor=none;align=left;verticalAlign=top;spacingLeft=4;spacingRight=4;whiteSpace=wrap;overflow=hidden;rotatable=0;points=[[0,0.5],[1,0.5]];portConstraint=eastwest;" parent="J25SiXyJA0IX3_WEvqsw-5" vertex="1">
          <mxGeometry y="78" width="320" height="26" as="geometry" />
        </mxCell>
        <mxCell id="J25SiXyJA0IX3_WEvqsw-9" value="- disciplinasObrigatorias: List&amp;lt;DisciplinaSemestre&amp;gt;" style="text;html=1;strokeColor=none;fillColor=none;align=left;verticalAlign=top;spacingLeft=4;spacingRight=4;whiteSpace=wrap;overflow=hidden;rotatable=0;points=[[0,0.5],[1,0.5]];portConstraint=eastwest;" parent="J25SiXyJA0IX3_WEvqsw-5" vertex="1">
          <mxGeometry y="104" width="320" height="26" as="geometry" />
        </mxCell>
        <mxCell id="J25SiXyJA0IX3_WEvqsw-10" value="- disciplinasOptativas: List&amp;lt;Disciplinas&amp;gt;" style="text;html=1;strokeColor=none;fillColor=none;align=left;verticalAlign=top;spacingLeft=4;spacingRight=4;whiteSpace=wrap;overflow=hidden;rotatable=0;points=[[0,0.5],[1,0.5]];portConstraint=eastwest;" parent="J25SiXyJA0IX3_WEvqsw-5" vertex="1">
          <mxGeometry y="130" width="320" height="26" as="geometry" />
        </mxCell>
        <mxCell id="J25SiXyJA0IX3_WEvqsw-11" value="- chm: Integer" style="text;html=1;strokeColor=none;fillColor=none;align=left;verticalAlign=top;spacingLeft=4;spacingRight=4;whiteSpace=wrap;overflow=hidden;rotatable=0;points=[[0,0.5],[1,0.5]];portConstraint=eastwest;" parent="J25SiXyJA0IX3_WEvqsw-5" vertex="1">
          <mxGeometry y="156" width="320" height="26" as="geometry" />
        </mxCell>
        <mxCell id="J25SiXyJA0IX3_WEvqsw-12" value="- cho: Integer" style="text;html=1;strokeColor=none;fillColor=none;align=left;verticalAlign=top;spacingLeft=4;spacingRight=4;whiteSpace=wrap;overflow=hidden;rotatable=0;points=[[0,0.5],[1,0.5]];portConstraint=eastwest;" parent="J25SiXyJA0IX3_WEvqsw-5" vertex="1">
          <mxGeometry y="182" width="320" height="26" as="geometry" />
        </mxCell>
        <mxCell id="J25SiXyJA0IX3_WEvqsw-13" value="- chom: Integer" style="text;html=1;strokeColor=none;fillColor=none;align=left;verticalAlign=top;spacingLeft=4;spacingRight=4;whiteSpace=wrap;overflow=hidden;rotatable=0;points=[[0,0.5],[1,0.5]];portConstraint=eastwest;" parent="J25SiXyJA0IX3_WEvqsw-5" vertex="1">
          <mxGeometry y="208" width="320" height="26" as="geometry" />
        </mxCell>
        <mxCell id="J25SiXyJA0IX3_WEvqsw-14" value="- chcm: Integer" style="text;html=1;strokeColor=none;fillColor=none;align=left;verticalAlign=top;spacingLeft=4;spacingRight=4;whiteSpace=wrap;overflow=hidden;rotatable=0;points=[[0,0.5],[1,0.5]];portConstraint=eastwest;" parent="J25SiXyJA0IX3_WEvqsw-5" vertex="1">
          <mxGeometry y="234" width="320" height="26" as="geometry" />
        </mxCell>
        <mxCell id="J25SiXyJA0IX3_WEvqsw-15" value="- chem: Integer" style="text;html=1;strokeColor=none;fillColor=none;align=left;verticalAlign=top;spacingLeft=4;spacingRight=4;whiteSpace=wrap;overflow=hidden;rotatable=0;points=[[0,0.5],[1,0.5]];portConstraint=eastwest;" parent="J25SiXyJA0IX3_WEvqsw-5" vertex="1">
          <mxGeometry y="260" width="320" height="26" as="geometry" />
        </mxCell>
        <mxCell id="J25SiXyJA0IX3_WEvqsw-16" value="- chmp: Integer" style="text;html=1;strokeColor=none;fillColor=none;align=left;verticalAlign=top;spacingLeft=4;spacingRight=4;whiteSpace=wrap;overflow=hidden;rotatable=0;points=[[0,0.5],[1,0.5]];portConstraint=eastwest;" parent="J25SiXyJA0IX3_WEvqsw-5" vertex="1">
          <mxGeometry y="286" width="320" height="26" as="geometry" />
        </mxCell>
        <mxCell id="J25SiXyJA0IX3_WEvqsw-17" value="- prazoMinimo: Integer" style="text;html=1;strokeColor=none;fillColor=none;align=left;verticalAlign=top;spacingLeft=4;spacingRight=4;whiteSpace=wrap;overflow=hidden;rotatable=0;points=[[0,0.5],[1,0.5]];portConstraint=eastwest;" parent="J25SiXyJA0IX3_WEvqsw-5" vertex="1">
          <mxGeometry y="312" width="320" height="24" as="geometry" />
        </mxCell>
        <mxCell id="J25SiXyJA0IX3_WEvqsw-18" value="- prazoMaximo: Integer" style="text;html=1;strokeColor=none;fillColor=none;align=left;verticalAlign=top;spacingLeft=4;spacingRight=4;whiteSpace=wrap;overflow=hidden;rotatable=0;points=[[0,0.5],[1,0.5]];portConstraint=eastwest;" parent="J25SiXyJA0IX3_WEvqsw-5" vertex="1">
          <mxGeometry y="336" width="320" height="26" as="geometry" />
        </mxCell>
        <mxCell id="J25SiXyJA0IX3_WEvqsw-19" value="- prazoEsperado: Integer" style="text;html=1;strokeColor=none;fillColor=none;align=left;verticalAlign=top;spacingLeft=4;spacingRight=4;whiteSpace=wrap;overflow=hidden;rotatable=0;points=[[0,0.5],[1,0.5]];portConstraint=eastwest;" parent="J25SiXyJA0IX3_WEvqsw-5" vertex="1">
          <mxGeometry y="362" width="320" height="26" as="geometry" />
        </mxCell>
        <mxCell id="J25SiXyJA0IX3_WEvqsw-20" style="edgeStyle=orthogonalEdgeStyle;rounded=0;jumpSize=6;orthogonalLoop=1;jettySize=auto;html=1;entryX=0.25;entryY=0;entryDx=0;entryDy=0;fontFamily=Verdana;fontSize=12;endArrow=block;endFill=0;startSize=40;endSize=12;strokeWidth=1;exitX=0.5;exitY=0;exitDx=0;exitDy=0;" parent="aJJ8dP-VgfmOxqk7pjXH-1" source="J25SiXyJA0IX3_WEvqsw-21" target="J25SiXyJA0IX3_WEvqsw-22" edge="1">
          <mxGeometry relative="1" as="geometry">
            <Array as="points">
              <mxPoint x="635" y="50" />
              <mxPoint x="865" y="50" />
            </Array>
          </mxGeometry>
        </mxCell>
        <mxCell id="J25SiXyJA0IX3_WEvqsw-21" value="&lt;pre&gt;&lt;b&gt;Administrador&lt;/b&gt;&lt;/pre&gt;" style="swimlane;html=1;fontStyle=0;childLayout=stackLayout;horizontal=1;startSize=26;fillColor=none;horizontalStack=0;resizeParent=1;resizeLast=0;collapsible=1;marginBottom=0;swimlaneFillColor=#ffffff;rounded=0;shadow=0;comic=0;labelBackgroundColor=none;strokeWidth=1;fontFamily=Verdana;fontSize=12;align=center;" parent="aJJ8dP-VgfmOxqk7pjXH-1" vertex="1">
          <mxGeometry x="555" y="79.86000000000001" width="160" height="50.2" as="geometry" />
        </mxCell>
        <mxCell id="J25SiXyJA0IX3_WEvqsw-22" value="&lt;pre style=&quot;font-size: 12px&quot;&gt;&amp;lt;&amp;lt;abstract&amp;gt;&amp;gt;&lt;br style=&quot;font-size: 12px&quot;&gt;&lt;b&gt;Usuario&lt;/b&gt;&lt;/pre&gt;" style="swimlane;html=1;fontStyle=0;childLayout=stackLayout;horizontal=1;startSize=40;fillColor=none;horizontalStack=0;resizeParent=1;resizeLast=0;collapsible=1;marginBottom=0;swimlaneFillColor=#ffffff;rounded=0;shadow=0;comic=0;labelBackgroundColor=none;strokeWidth=1;fontFamily=Verdana;fontSize=12;align=center;strokeColor=default;" parent="aJJ8dP-VgfmOxqk7pjXH-1" vertex="1">
          <mxGeometry x="825" y="79.86000000000001" width="160" height="160" as="geometry" />
        </mxCell>
        <mxCell id="J25SiXyJA0IX3_WEvqsw-23" value="# id: Integer" style="text;html=1;strokeColor=none;fillColor=none;align=left;verticalAlign=top;spacingLeft=4;spacingRight=4;whiteSpace=wrap;overflow=hidden;rotatable=0;points=[[0,0.5],[1,0.5]];portConstraint=eastwest;" parent="J25SiXyJA0IX3_WEvqsw-22" vertex="1">
          <mxGeometry y="40" width="160" height="26" as="geometry" />
        </mxCell>
        <mxCell id="J25SiXyJA0IX3_WEvqsw-24" value="# nome: String" style="text;html=1;strokeColor=none;fillColor=none;align=left;verticalAlign=top;spacingLeft=4;spacingRight=4;whiteSpace=wrap;overflow=hidden;rotatable=0;points=[[0,0.5],[1,0.5]];portConstraint=eastwest;" parent="J25SiXyJA0IX3_WEvqsw-22" vertex="1">
          <mxGeometry y="66" width="160" height="26" as="geometry" />
        </mxCell>
        <mxCell id="J25SiXyJA0IX3_WEvqsw-25" value="# email: String" style="text;html=1;strokeColor=none;fillColor=none;align=left;verticalAlign=top;spacingLeft=4;spacingRight=4;whiteSpace=wrap;overflow=hidden;rotatable=0;points=[[0,0.5],[1,0.5]];portConstraint=eastwest;" parent="J25SiXyJA0IX3_WEvqsw-22" vertex="1">
          <mxGeometry y="92" width="160" height="26" as="geometry" />
        </mxCell>
        <mxCell id="J25SiXyJA0IX3_WEvqsw-26" value="# senha: String" style="text;html=1;strokeColor=none;fillColor=none;align=left;verticalAlign=top;spacingLeft=4;spacingRight=4;whiteSpace=wrap;overflow=hidden;rotatable=0;points=[[0,0.5],[1,0.5]];portConstraint=eastwest;" parent="J25SiXyJA0IX3_WEvqsw-22" vertex="1">
          <mxGeometry y="118" width="160" height="26" as="geometry" />
        </mxCell>
        <mxCell id="J25SiXyJA0IX3_WEvqsw-27" value="&lt;pre style=&quot;font-size: 12px&quot;&gt;&lt;b&gt;Disciplina&lt;/b&gt;&lt;/pre&gt;" style="swimlane;html=1;fontStyle=0;childLayout=stackLayout;horizontal=1;startSize=26;fillColor=none;horizontalStack=0;resizeParent=1;resizeLast=0;collapsible=1;marginBottom=0;swimlaneFillColor=#ffffff;rounded=0;shadow=0;comic=0;labelBackgroundColor=none;strokeWidth=1;fontFamily=Verdana;fontSize=10;align=center;" parent="aJJ8dP-VgfmOxqk7pjXH-1" vertex="1">
          <mxGeometry x="736.25" y="610.06" width="322.5" height="268" as="geometry" />
        </mxCell>
        <mxCell id="J25SiXyJA0IX3_WEvqsw-28" value="- id: Integer" style="text;html=1;strokeColor=none;fillColor=none;align=left;verticalAlign=top;spacingLeft=4;spacingRight=4;whiteSpace=wrap;overflow=hidden;rotatable=0;points=[[0,0.5],[1,0.5]];portConstraint=eastwest;" parent="J25SiXyJA0IX3_WEvqsw-27" vertex="1">
          <mxGeometry y="26" width="322.5" height="26" as="geometry" />
        </mxCell>
        <mxCell id="J25SiXyJA0IX3_WEvqsw-29" value="- codigo: String" style="text;html=1;strokeColor=none;fillColor=none;align=left;verticalAlign=top;spacingLeft=4;spacingRight=4;whiteSpace=wrap;overflow=hidden;rotatable=0;points=[[0,0.5],[1,0.5]];portConstraint=eastwest;" parent="J25SiXyJA0IX3_WEvqsw-27" vertex="1">
          <mxGeometry y="52" width="322.5" height="26" as="geometry" />
        </mxCell>
        <mxCell id="J25SiXyJA0IX3_WEvqsw-30" value="- nome: String" style="text;html=1;strokeColor=none;fillColor=none;align=left;verticalAlign=top;spacingLeft=4;spacingRight=4;whiteSpace=wrap;overflow=hidden;rotatable=0;points=[[0,0.5],[1,0.5]];portConstraint=eastwest;" parent="J25SiXyJA0IX3_WEvqsw-27" vertex="1">
          <mxGeometry y="78" width="322.5" height="26" as="geometry" />
        </mxCell>
        <mxCell id="J25SiXyJA0IX3_WEvqsw-31" value="- ch: Integer" style="text;html=1;strokeColor=none;fillColor=none;align=left;verticalAlign=top;spacingLeft=4;spacingRight=4;whiteSpace=wrap;overflow=hidden;rotatable=0;points=[[0,0.5],[1,0.5]];portConstraint=eastwest;" parent="J25SiXyJA0IX3_WEvqsw-27" vertex="1">
          <mxGeometry y="104" width="322.5" height="26" as="geometry" />
        </mxCell>
        <mxCell id="J25SiXyJA0IX3_WEvqsw-32" value="- preRequisitos: List&amp;lt;Disciplina&amp;gt;" style="text;html=1;strokeColor=none;fillColor=none;align=left;verticalAlign=top;spacingLeft=4;spacingRight=4;whiteSpace=wrap;overflow=hidden;rotatable=0;points=[[0,0.5],[1,0.5]];portConstraint=eastwest;" parent="J25SiXyJA0IX3_WEvqsw-27" vertex="1">
          <mxGeometry y="130" width="322.5" height="26" as="geometry" />
        </mxCell>
        <mxCell id="J25SiXyJA0IX3_WEvqsw-33" value="- coRequisitos: List&amp;lt;Disciplina&amp;gt;" style="text;html=1;strokeColor=none;fillColor=none;align=left;verticalAlign=top;spacingLeft=4;spacingRight=4;whiteSpace=wrap;overflow=hidden;rotatable=0;points=[[0,0.5],[1,0.5]];portConstraint=eastwest;" parent="J25SiXyJA0IX3_WEvqsw-27" vertex="1">
          <mxGeometry y="156" width="322.5" height="26" as="geometry" />
        </mxCell>
        <mxCell id="J25SiXyJA0IX3_WEvqsw-34" value="- equivalentes: List&amp;lt;Disciplina&amp;gt;" style="text;html=1;strokeColor=none;fillColor=none;align=left;verticalAlign=top;spacingLeft=4;spacingRight=4;whiteSpace=wrap;overflow=hidden;rotatable=0;points=[[0,0.5],[1,0.5]];portConstraint=eastwest;" parent="J25SiXyJA0IX3_WEvqsw-27" vertex="1">
          <mxGeometry y="182" width="322.5" height="26" as="geometry" />
        </mxCell>
        <mxCell id="J25SiXyJA0IX3_WEvqsw-35" value="" style="line;strokeWidth=1;fillColor=none;align=left;verticalAlign=middle;spacingTop=-1;spacingLeft=3;spacingRight=3;rotatable=0;labelPosition=right;points=[];portConstraint=eastwest;fontFamily=Lucida Console;" parent="J25SiXyJA0IX3_WEvqsw-27" vertex="1">
          <mxGeometry y="208" width="322.5" height="8" as="geometry" />
        </mxCell>
        <mxCell id="J25SiXyJA0IX3_WEvqsw-36" value="- isEquivalente(Disciplina): Boolean" style="text;html=1;strokeColor=none;fillColor=none;align=left;verticalAlign=top;spacingLeft=4;spacingRight=4;whiteSpace=wrap;overflow=hidden;rotatable=0;points=[[0,0.5],[1,0.5]];portConstraint=eastwest;" parent="J25SiXyJA0IX3_WEvqsw-27" vertex="1">
          <mxGeometry y="216" width="322.5" height="26" as="geometry" />
        </mxCell>
        <mxCell id="J25SiXyJA0IX3_WEvqsw-37" value="- requisitosFaltantes(List&amp;lt;Disciplina&amp;gt;): List&amp;lt;Disciplina&amp;gt;" style="text;html=1;strokeColor=none;fillColor=none;align=left;verticalAlign=top;spacingLeft=4;spacingRight=4;whiteSpace=wrap;overflow=hidden;rotatable=0;points=[[0,0.5],[1,0.5]];portConstraint=eastwest;" parent="J25SiXyJA0IX3_WEvqsw-27" vertex="1">
          <mxGeometry y="242" width="322.5" height="26" as="geometry" />
        </mxCell>
        <mxCell id="J25SiXyJA0IX3_WEvqsw-38" style="edgeStyle=orthogonalEdgeStyle;rounded=0;orthogonalLoop=1;jettySize=auto;html=1;entryX=0.498;entryY=0.973;entryDx=0;entryDy=0;entryPerimeter=0;dashed=1;endFill=0;endArrow=block;endSize=12;startSize=12;" parent="aJJ8dP-VgfmOxqk7pjXH-1" source="J25SiXyJA0IX3_WEvqsw-40" target="J25SiXyJA0IX3_WEvqsw-70" edge="1">
          <mxGeometry relative="1" as="geometry" />
        </mxCell>
        <mxCell id="J25SiXyJA0IX3_WEvqsw-39" style="edgeStyle=orthogonalEdgeStyle;rounded=0;orthogonalLoop=1;jettySize=auto;html=1;entryX=0;entryY=0.5;entryDx=0;entryDy=0;" parent="aJJ8dP-VgfmOxqk7pjXH-1" source="J25SiXyJA0IX3_WEvqsw-40" target="J25SiXyJA0IX3_WEvqsw-13" edge="1">
          <mxGeometry relative="1" as="geometry">
            <mxPoint x="2004.9999999999998" y="706.9200000000001" as="targetPoint" />
          </mxGeometry>
        </mxCell>
        <mxCell id="J25SiXyJA0IX3_WEvqsw-40" value="&lt;pre style=&quot;font-size: 12px&quot;&gt;&lt;b&gt;Enfase&lt;/b&gt;&lt;/pre&gt;" style="swimlane;html=1;fontStyle=0;childLayout=stackLayout;horizontal=1;startSize=26;fillColor=none;horizontalStack=0;resizeParent=1;resizeLast=0;collapsible=1;marginBottom=0;swimlaneFillColor=#ffffff;rounded=0;shadow=0;comic=0;labelBackgroundColor=none;strokeWidth=1;fontFamily=Verdana;fontSize=10;align=center;" parent="aJJ8dP-VgfmOxqk7pjXH-1" vertex="1">
          <mxGeometry x="1516" y="641.92" width="320" height="130" as="geometry" />
        </mxCell>
        <mxCell id="J25SiXyJA0IX3_WEvqsw-41" value="- id: Integer" style="text;html=1;strokeColor=none;fillColor=none;align=left;verticalAlign=top;spacingLeft=4;spacingRight=4;whiteSpace=wrap;overflow=hidden;rotatable=0;points=[[0,0.5],[1,0.5]];portConstraint=eastwest;" parent="J25SiXyJA0IX3_WEvqsw-40" vertex="1">
          <mxGeometry y="26" width="320" height="26" as="geometry" />
        </mxCell>
        <mxCell id="J25SiXyJA0IX3_WEvqsw-42" value="- nome: String" style="text;html=1;strokeColor=none;fillColor=none;align=left;verticalAlign=top;spacingLeft=4;spacingRight=4;whiteSpace=wrap;overflow=hidden;rotatable=0;points=[[0,0.5],[1,0.5]];portConstraint=eastwest;" parent="J25SiXyJA0IX3_WEvqsw-40" vertex="1">
          <mxGeometry y="52" width="320" height="26" as="geometry" />
        </mxCell>
        <mxCell id="J25SiXyJA0IX3_WEvqsw-43" value="- curso: Curso" style="text;html=1;strokeColor=none;fillColor=none;align=left;verticalAlign=top;spacingLeft=4;spacingRight=4;whiteSpace=wrap;overflow=hidden;rotatable=0;points=[[0,0.5],[1,0.5]];portConstraint=eastwest;" parent="J25SiXyJA0IX3_WEvqsw-40" vertex="1">
          <mxGeometry y="78" width="320" height="26" as="geometry" />
        </mxCell>
        <mxCell id="J25SiXyJA0IX3_WEvqsw-44" value="- disciplinasObrigatorias: List&amp;lt;DisciplinaSemestre&amp;gt;" style="text;html=1;strokeColor=none;fillColor=none;align=left;verticalAlign=top;spacingLeft=4;spacingRight=4;whiteSpace=wrap;overflow=hidden;rotatable=0;points=[[0,0.5],[1,0.5]];portConstraint=eastwest;" parent="J25SiXyJA0IX3_WEvqsw-40" vertex="1">
          <mxGeometry y="104" width="320" height="26" as="geometry" />
        </mxCell>
        <mxCell id="J25SiXyJA0IX3_WEvqsw-45" style="edgeStyle=orthogonalEdgeStyle;rounded=0;orthogonalLoop=1;jettySize=auto;html=1;exitX=1;exitY=0.5;exitDx=0;exitDy=0;entryX=0.5;entryY=1;entryDx=0;entryDy=0;" parent="aJJ8dP-VgfmOxqk7pjXH-1" source="J25SiXyJA0IX3_WEvqsw-49" target="J25SiXyJA0IX3_WEvqsw-27" edge="1">
          <mxGeometry relative="1" as="geometry" />
        </mxCell>
        <mxCell id="J25SiXyJA0IX3_WEvqsw-46" value="&lt;pre style=&quot;font-size: 12px&quot;&gt;&lt;b&gt;Pes&lt;/b&gt;&lt;/pre&gt;" style="swimlane;html=1;fontStyle=0;childLayout=stackLayout;horizontal=1;startSize=26;fillColor=none;horizontalStack=0;resizeParent=1;resizeLast=0;collapsible=1;marginBottom=0;swimlaneFillColor=#ffffff;rounded=0;shadow=0;comic=0;labelBackgroundColor=none;strokeWidth=1;fontFamily=Verdana;fontSize=10;align=center;" parent="aJJ8dP-VgfmOxqk7pjXH-1" vertex="1">
          <mxGeometry x="370" y="910" width="280" height="182" as="geometry" />
        </mxCell>
        <mxCell id="J25SiXyJA0IX3_WEvqsw-47" value="- id: Integer" style="text;html=1;strokeColor=none;fillColor=none;align=left;verticalAlign=top;spacingLeft=4;spacingRight=4;whiteSpace=wrap;overflow=hidden;rotatable=0;points=[[0,0.5],[1,0.5]];portConstraint=eastwest;" parent="J25SiXyJA0IX3_WEvqsw-46" vertex="1">
          <mxGeometry y="26" width="280" height="26" as="geometry" />
        </mxCell>
        <mxCell id="J25SiXyJA0IX3_WEvqsw-48" value="- nome: String" style="text;html=1;strokeColor=none;fillColor=none;align=left;verticalAlign=top;spacingLeft=4;spacingRight=4;whiteSpace=wrap;overflow=hidden;rotatable=0;points=[[0,0.5],[1,0.5]];portConstraint=eastwest;" parent="J25SiXyJA0IX3_WEvqsw-46" vertex="1">
          <mxGeometry y="52" width="280" height="26" as="geometry" />
        </mxCell>
        <mxCell id="J25SiXyJA0IX3_WEvqsw-49" value="- chm: Integer" style="text;html=1;strokeColor=none;fillColor=none;align=left;verticalAlign=top;spacingLeft=4;spacingRight=4;whiteSpace=wrap;overflow=hidden;rotatable=0;points=[[0,0.5],[1,0.5]];portConstraint=eastwest;" parent="J25SiXyJA0IX3_WEvqsw-46" vertex="1">
          <mxGeometry y="78" width="280" height="26" as="geometry" />
        </mxCell>
        <mxCell id="J25SiXyJA0IX3_WEvqsw-50" value="- cho: Integer" style="text;html=1;strokeColor=none;fillColor=none;align=left;verticalAlign=top;spacingLeft=4;spacingRight=4;whiteSpace=wrap;overflow=hidden;rotatable=0;points=[[0,0.5],[1,0.5]];portConstraint=eastwest;" parent="J25SiXyJA0IX3_WEvqsw-46" vertex="1">
          <mxGeometry y="104" width="280" height="26" as="geometry" />
        </mxCell>
        <mxCell id="J25SiXyJA0IX3_WEvqsw-51" value="- disciplinasObrigatorias: List&amp;lt;Disciplinas&amp;gt;" style="text;html=1;strokeColor=none;fillColor=none;align=left;verticalAlign=top;spacingLeft=4;spacingRight=4;whiteSpace=wrap;overflow=hidden;rotatable=0;points=[[0,0.5],[1,0.5]];portConstraint=eastwest;" parent="J25SiXyJA0IX3_WEvqsw-46" vertex="1">
          <mxGeometry y="130" width="280" height="26" as="geometry" />
        </mxCell>
        <mxCell id="J25SiXyJA0IX3_WEvqsw-52" value="- disciplinasOptativas: List&amp;lt;Disciplinas&amp;gt;" style="text;html=1;strokeColor=none;fillColor=none;align=left;verticalAlign=top;spacingLeft=4;spacingRight=4;whiteSpace=wrap;overflow=hidden;rotatable=0;points=[[0,0.5],[1,0.5]];portConstraint=eastwest;" parent="J25SiXyJA0IX3_WEvqsw-46" vertex="1">
          <mxGeometry y="156" width="280" height="26" as="geometry" />
        </mxCell>
        <mxCell id="J25SiXyJA0IX3_WEvqsw-53" style="edgeStyle=orthogonalEdgeStyle;rounded=0;orthogonalLoop=1;jettySize=auto;html=1;" parent="aJJ8dP-VgfmOxqk7pjXH-1" source="J25SiXyJA0IX3_WEvqsw-54" target="J25SiXyJA0IX3_WEvqsw-27" edge="1">
          <mxGeometry relative="1" as="geometry" />
        </mxCell>
        <mxCell id="J25SiXyJA0IX3_WEvqsw-54" value="&lt;pre style=&quot;font-size: 12px&quot;&gt;&lt;b&gt;DisciplinaSemestre&lt;/b&gt;&lt;/pre&gt;" style="swimlane;html=1;fontStyle=0;childLayout=stackLayout;horizontal=1;startSize=26;fillColor=none;horizontalStack=0;resizeParent=1;resizeLast=0;collapsible=1;marginBottom=0;swimlaneFillColor=#ffffff;rounded=0;shadow=0;comic=0;labelBackgroundColor=none;strokeWidth=1;fontFamily=Verdana;fontSize=10;align=center;" parent="aJJ8dP-VgfmOxqk7pjXH-1" vertex="1">
          <mxGeometry x="757.5" y="460.06" width="280" height="78" as="geometry" />
        </mxCell>
        <mxCell id="J25SiXyJA0IX3_WEvqsw-55" value="- disciplina: Disciplina" style="text;html=1;strokeColor=none;fillColor=none;align=left;verticalAlign=top;spacingLeft=4;spacingRight=4;whiteSpace=wrap;overflow=hidden;rotatable=0;points=[[0,0.5],[1,0.5]];portConstraint=eastwest;" parent="J25SiXyJA0IX3_WEvqsw-54" vertex="1">
          <mxGeometry y="26" width="280" height="26" as="geometry" />
        </mxCell>
        <mxCell id="J25SiXyJA0IX3_WEvqsw-56" value="- semestre: Integer" style="text;html=1;strokeColor=none;fillColor=none;align=left;verticalAlign=top;spacingLeft=4;spacingRight=4;whiteSpace=wrap;overflow=hidden;rotatable=0;points=[[0,0.5],[1,0.5]];portConstraint=eastwest;" parent="J25SiXyJA0IX3_WEvqsw-54" vertex="1">
          <mxGeometry y="52" width="280" height="26" as="geometry" />
        </mxCell>
        <mxCell id="J25SiXyJA0IX3_WEvqsw-57" style="edgeStyle=orthogonalEdgeStyle;rounded=0;orthogonalLoop=1;jettySize=auto;html=1;entryX=1;entryY=0.5;entryDx=0;entryDy=0;" parent="aJJ8dP-VgfmOxqk7pjXH-1" source="J25SiXyJA0IX3_WEvqsw-59" target="J25SiXyJA0IX3_WEvqsw-55" edge="1">
          <mxGeometry relative="1" as="geometry">
            <Array as="points">
              <mxPoint x="1375" y="499.06" />
              <mxPoint x="1375" y="499.06" />
            </Array>
          </mxGeometry>
        </mxCell>
        <mxCell id="J25SiXyJA0IX3_WEvqsw-58" style="edgeStyle=orthogonalEdgeStyle;rounded=0;orthogonalLoop=1;jettySize=auto;html=1;entryX=1;entryY=0.5;entryDx=0;entryDy=0;" parent="aJJ8dP-VgfmOxqk7pjXH-1" source="J25SiXyJA0IX3_WEvqsw-59" target="J25SiXyJA0IX3_WEvqsw-31" edge="1">
          <mxGeometry relative="1" as="geometry">
            <Array as="points">
              <mxPoint x="1255" y="550.06" />
              <mxPoint x="1255" y="727.06" />
            </Array>
          </mxGeometry>
        </mxCell>
        <mxCell id="J25SiXyJA0IX3_WEvqsw-59" value="&lt;pre style=&quot;font-size: 12px&quot;&gt;&amp;lt;&amp;lt;interface&amp;gt;&amp;gt;&lt;br&gt;&lt;b&gt;GradeCurricularPrimaria&lt;/b&gt;&lt;/pre&gt;" style="swimlane;html=1;fontStyle=0;childLayout=stackLayout;horizontal=1;startSize=40;fillColor=none;horizontalStack=0;resizeParent=1;resizeLast=0;collapsible=1;marginBottom=0;swimlaneFillColor=#ffffff;rounded=0;shadow=0;comic=0;labelBackgroundColor=none;strokeWidth=1;fontFamily=Verdana;fontSize=10;align=center;" parent="aJJ8dP-VgfmOxqk7pjXH-1" vertex="1">
          <mxGeometry x="1496" y="260.96" width="360" height="326" as="geometry">
            <mxRectangle x="520" y="200" width="80" height="26" as="alternateBounds" />
          </mxGeometry>
        </mxCell>
        <mxCell id="J25SiXyJA0IX3_WEvqsw-60" value="+ getDisciplinasObrigatorias(): List&amp;lt;DisciplinaSemestre&amp;gt;" style="text;html=1;strokeColor=none;fillColor=none;align=left;verticalAlign=top;spacingLeft=4;spacingRight=4;whiteSpace=wrap;overflow=hidden;rotatable=0;points=[[0,0.5],[1,0.5]];portConstraint=eastwest;" parent="J25SiXyJA0IX3_WEvqsw-59" vertex="1">
          <mxGeometry y="40" width="360" height="26" as="geometry" />
        </mxCell>
        <mxCell id="J25SiXyJA0IX3_WEvqsw-61" value="+ getDisciplinasOptativas(): List&amp;lt;Disciplina&amp;gt;" style="text;html=1;strokeColor=none;fillColor=none;align=left;verticalAlign=top;spacingLeft=4;spacingRight=4;whiteSpace=wrap;overflow=hidden;rotatable=0;points=[[0,0.5],[1,0.5]];portConstraint=eastwest;" parent="J25SiXyJA0IX3_WEvqsw-59" vertex="1">
          <mxGeometry y="66" width="360" height="26" as="geometry" />
        </mxCell>
        <mxCell id="J25SiXyJA0IX3_WEvqsw-62" value="+ getChm(): Integer" style="text;html=1;strokeColor=none;fillColor=none;align=left;verticalAlign=top;spacingLeft=4;spacingRight=4;whiteSpace=wrap;overflow=hidden;rotatable=0;points=[[0,0.5],[1,0.5]];portConstraint=eastwest;" parent="J25SiXyJA0IX3_WEvqsw-59" vertex="1">
          <mxGeometry y="92" width="360" height="26" as="geometry" />
        </mxCell>
        <mxCell id="J25SiXyJA0IX3_WEvqsw-63" value="+ getCho(): Integer" style="text;html=1;strokeColor=none;fillColor=none;align=left;verticalAlign=top;spacingLeft=4;spacingRight=4;whiteSpace=wrap;overflow=hidden;rotatable=0;points=[[0,0.5],[1,0.5]];portConstraint=eastwest;" parent="J25SiXyJA0IX3_WEvqsw-59" vertex="1">
          <mxGeometry y="118" width="360" height="26" as="geometry" />
        </mxCell>
        <mxCell id="J25SiXyJA0IX3_WEvqsw-64" value="+ getChom(): Integer" style="text;html=1;strokeColor=none;fillColor=none;align=left;verticalAlign=top;spacingLeft=4;spacingRight=4;whiteSpace=wrap;overflow=hidden;rotatable=0;points=[[0,0.5],[1,0.5]];portConstraint=eastwest;" parent="J25SiXyJA0IX3_WEvqsw-59" vertex="1">
          <mxGeometry y="144" width="360" height="26" as="geometry" />
        </mxCell>
        <mxCell id="J25SiXyJA0IX3_WEvqsw-65" value="+ getChcm(): Integer" style="text;html=1;strokeColor=none;fillColor=none;align=left;verticalAlign=top;spacingLeft=4;spacingRight=4;whiteSpace=wrap;overflow=hidden;rotatable=0;points=[[0,0.5],[1,0.5]];portConstraint=eastwest;" parent="J25SiXyJA0IX3_WEvqsw-59" vertex="1">
          <mxGeometry y="170" width="360" height="26" as="geometry" />
        </mxCell>
        <mxCell id="J25SiXyJA0IX3_WEvqsw-66" value="+ getChem(): Integer" style="text;html=1;strokeColor=none;fillColor=none;align=left;verticalAlign=top;spacingLeft=4;spacingRight=4;whiteSpace=wrap;overflow=hidden;rotatable=0;points=[[0,0.5],[1,0.5]];portConstraint=eastwest;" parent="J25SiXyJA0IX3_WEvqsw-59" vertex="1">
          <mxGeometry y="196" width="360" height="26" as="geometry" />
        </mxCell>
        <mxCell id="J25SiXyJA0IX3_WEvqsw-67" value="+ getChmp(): Integer" style="text;html=1;strokeColor=none;fillColor=none;align=left;verticalAlign=top;spacingLeft=4;spacingRight=4;whiteSpace=wrap;overflow=hidden;rotatable=0;points=[[0,0.5],[1,0.5]];portConstraint=eastwest;" parent="J25SiXyJA0IX3_WEvqsw-59" vertex="1">
          <mxGeometry y="222" width="360" height="26" as="geometry" />
        </mxCell>
        <mxCell id="J25SiXyJA0IX3_WEvqsw-68" value="+ getPrazoMinimo(): Integer" style="text;html=1;strokeColor=none;fillColor=none;align=left;verticalAlign=top;spacingLeft=4;spacingRight=4;whiteSpace=wrap;overflow=hidden;rotatable=0;points=[[0,0.5],[1,0.5]];portConstraint=eastwest;" parent="J25SiXyJA0IX3_WEvqsw-59" vertex="1">
          <mxGeometry y="248" width="360" height="26" as="geometry" />
        </mxCell>
        <mxCell id="J25SiXyJA0IX3_WEvqsw-69" value="+ getPrazoMaximo(): Integer" style="text;html=1;strokeColor=none;fillColor=none;align=left;verticalAlign=top;spacingLeft=4;spacingRight=4;whiteSpace=wrap;overflow=hidden;rotatable=0;points=[[0,0.5],[1,0.5]];portConstraint=eastwest;" parent="J25SiXyJA0IX3_WEvqsw-59" vertex="1">
          <mxGeometry y="274" width="360" height="26" as="geometry" />
        </mxCell>
        <mxCell id="J25SiXyJA0IX3_WEvqsw-70" value="+ getPrazoEsperado(): Integer" style="text;html=1;strokeColor=none;fillColor=none;align=left;verticalAlign=top;spacingLeft=4;spacingRight=4;whiteSpace=wrap;overflow=hidden;rotatable=0;points=[[0,0.5],[1,0.5]];portConstraint=eastwest;" parent="J25SiXyJA0IX3_WEvqsw-59" vertex="1">
          <mxGeometry y="300" width="360" height="26" as="geometry" />
        </mxCell>
        <mxCell id="J25SiXyJA0IX3_WEvqsw-71" style="edgeStyle=orthogonalEdgeStyle;rounded=0;orthogonalLoop=1;jettySize=auto;html=1;exitX=1;exitY=0.232;exitDx=0;exitDy=0;entryX=0;entryY=0.5;entryDx=0;entryDy=0;exitPerimeter=0;" parent="aJJ8dP-VgfmOxqk7pjXH-1" source="J25SiXyJA0IX3_WEvqsw-74" target="J25SiXyJA0IX3_WEvqsw-31" edge="1">
          <mxGeometry relative="1" as="geometry" />
        </mxCell>
        <mxCell id="J25SiXyJA0IX3_WEvqsw-72" value="&lt;pre style=&quot;font-size: 12px&quot;&gt;&amp;lt;&amp;lt;interface&amp;gt;&amp;gt;&lt;br&gt;&lt;b&gt;GradeCurricularSecundaria&lt;/b&gt;&lt;/pre&gt;" style="swimlane;html=1;fontStyle=0;childLayout=stackLayout;horizontal=1;startSize=40;fillColor=none;horizontalStack=0;resizeParent=1;resizeLast=0;collapsible=1;marginBottom=0;swimlaneFillColor=#ffffff;rounded=0;shadow=0;comic=0;labelBackgroundColor=none;strokeWidth=1;fontFamily=Verdana;fontSize=10;align=center;" parent="aJJ8dP-VgfmOxqk7pjXH-1" vertex="1">
          <mxGeometry x="350" y="655.06" width="320" height="178" as="geometry">
            <mxRectangle x="520" y="200" width="80" height="26" as="alternateBounds" />
          </mxGeometry>
        </mxCell>
        <mxCell id="J25SiXyJA0IX3_WEvqsw-73" value="+ getChm(): Integer" style="text;html=1;strokeColor=none;fillColor=none;align=left;verticalAlign=top;spacingLeft=4;spacingRight=4;whiteSpace=wrap;overflow=hidden;rotatable=0;points=[[0,0.5],[1,0.5]];portConstraint=eastwest;" parent="J25SiXyJA0IX3_WEvqsw-72" vertex="1">
          <mxGeometry y="40" width="320" height="26" as="geometry" />
        </mxCell>
        <mxCell id="J25SiXyJA0IX3_WEvqsw-74" value="+ getCho(): Integer" style="text;html=1;strokeColor=none;fillColor=none;align=left;verticalAlign=top;spacingLeft=4;spacingRight=4;whiteSpace=wrap;overflow=hidden;rotatable=0;points=[[0,0.5],[1,0.5]];portConstraint=eastwest;" parent="J25SiXyJA0IX3_WEvqsw-72" vertex="1">
          <mxGeometry y="66" width="320" height="26" as="geometry" />
        </mxCell>
        <mxCell id="J25SiXyJA0IX3_WEvqsw-75" value="+ getDisciplinasObrigatorias(): List&amp;lt;Disciplina&amp;gt;" style="text;html=1;strokeColor=none;fillColor=none;align=left;verticalAlign=top;spacingLeft=4;spacingRight=4;whiteSpace=wrap;overflow=hidden;rotatable=0;points=[[0,0.5],[1,0.5]];portConstraint=eastwest;" parent="J25SiXyJA0IX3_WEvqsw-72" vertex="1">
          <mxGeometry y="92" width="320" height="26" as="geometry" />
        </mxCell>
        <mxCell id="J25SiXyJA0IX3_WEvqsw-76" value="+ getDisciplinasOptativas(): List&amp;lt;Disciplina&amp;gt;" style="text;html=1;strokeColor=none;fillColor=none;align=left;verticalAlign=top;spacingLeft=4;spacingRight=4;whiteSpace=wrap;overflow=hidden;rotatable=0;points=[[0,0.5],[1,0.5]];portConstraint=eastwest;" parent="J25SiXyJA0IX3_WEvqsw-72" vertex="1">
          <mxGeometry y="118" width="320" height="26" as="geometry" />
        </mxCell>
        <mxCell id="J25SiXyJA0IX3_WEvqsw-77" value="+ concluida(List&amp;lt;Disciplina&amp;gt;): Boolean" style="text;html=1;strokeColor=none;fillColor=none;align=left;verticalAlign=top;spacingLeft=4;spacingRight=4;whiteSpace=wrap;overflow=hidden;rotatable=0;points=[[0,0.5],[1,0.5]];portConstraint=eastwest;" parent="J25SiXyJA0IX3_WEvqsw-72" vertex="1">
          <mxGeometry y="144" width="320" height="26" as="geometry" />
        </mxCell>
        <mxCell id="J25SiXyJA0IX3_WEvqsw-78" style="edgeStyle=orthogonalEdgeStyle;rounded=0;orthogonalLoop=1;jettySize=auto;html=1;dashed=1;endArrow=block;endFill=0;endSize=12;startSize=12;exitX=0.5;exitY=0;exitDx=0;exitDy=0;entryX=0.5;entryY=1;entryDx=0;entryDy=0;" parent="aJJ8dP-VgfmOxqk7pjXH-1" source="J25SiXyJA0IX3_WEvqsw-46" target="J25SiXyJA0IX3_WEvqsw-72" edge="1">
          <mxGeometry relative="1" as="geometry">
            <mxPoint x="880" y="810.06" as="sourcePoint" />
            <mxPoint x="570" y="1100.16" as="targetPoint" />
            <Array as="points">
              <mxPoint x="510" y="870" />
              <mxPoint x="510" y="870" />
            </Array>
          </mxGeometry>
        </mxCell>
        <mxCell id="J25SiXyJA0IX3_WEvqsw-79" style="edgeStyle=orthogonalEdgeStyle;rounded=0;orthogonalLoop=1;jettySize=auto;html=1;entryX=0.5;entryY=0;entryDx=0;entryDy=0;" parent="aJJ8dP-VgfmOxqk7pjXH-1" source="J25SiXyJA0IX3_WEvqsw-80" target="J25SiXyJA0IX3_WEvqsw-54" edge="1">
          <mxGeometry relative="1" as="geometry" />
        </mxCell>
        <mxCell id="J25SiXyJA0IX3_WEvqsw-80" value="&lt;pre style=&quot;font-size: 12px&quot;&gt;&lt;b&gt;PlanoCurso&lt;/b&gt;&lt;/pre&gt;" style="swimlane;html=1;fontStyle=0;childLayout=stackLayout;horizontal=1;startSize=26;fillColor=none;horizontalStack=0;resizeParent=1;resizeLast=0;collapsible=1;marginBottom=0;swimlaneFillColor=#ffffff;rounded=0;shadow=0;comic=0;labelBackgroundColor=none;strokeWidth=1;fontFamily=Verdana;fontSize=10;align=center;" parent="aJJ8dP-VgfmOxqk7pjXH-1" vertex="1">
          <mxGeometry x="750" y="280" width="295" height="120" as="geometry" />
        </mxCell>
        <mxCell id="J25SiXyJA0IX3_WEvqsw-81" value="- disciplinasCursadas: List&amp;lt;DisciplinaSemestre&amp;gt;" style="text;html=1;strokeColor=none;fillColor=none;align=left;verticalAlign=top;spacingLeft=4;spacingRight=4;whiteSpace=wrap;overflow=hidden;rotatable=0;points=[[0,0.5],[1,0.5]];portConstraint=eastwest;" parent="J25SiXyJA0IX3_WEvqsw-80" vertex="1">
          <mxGeometry y="26" width="295" height="26" as="geometry" />
        </mxCell>
        <mxCell id="J25SiXyJA0IX3_WEvqsw-82" value="- disciplinasPendentes: List&amp;lt;DisciplinaSemestre&amp;gt;" style="text;html=1;strokeColor=none;fillColor=none;align=left;verticalAlign=top;spacingLeft=4;spacingRight=4;whiteSpace=wrap;overflow=hidden;rotatable=0;points=[[0,0.5],[1,0.5]];portConstraint=eastwest;" parent="J25SiXyJA0IX3_WEvqsw-80" vertex="1">
          <mxGeometry y="52" width="295" height="26" as="geometry" />
        </mxCell>
        <mxCell id="J25SiXyJA0IX3_WEvqsw-83" value="- listaPesInteresse: List&amp;lt;Pes&amp;gt;" style="text;html=1;strokeColor=none;fillColor=none;align=left;verticalAlign=top;spacingLeft=4;spacingRight=4;whiteSpace=wrap;overflow=hidden;rotatable=0;points=[[0,0.5],[1,0.5]];portConstraint=eastwest;" parent="J25SiXyJA0IX3_WEvqsw-80" vertex="1">
          <mxGeometry y="78" width="295" height="26" as="geometry" />
        </mxCell>
        <mxCell id="J25SiXyJA0IX3_WEvqsw-84" style="edgeStyle=orthogonalEdgeStyle;rounded=0;orthogonalLoop=1;jettySize=auto;html=1;" parent="aJJ8dP-VgfmOxqk7pjXH-1" source="J25SiXyJA0IX3_WEvqsw-86" edge="1">
          <mxGeometry relative="1" as="geometry">
            <mxPoint x="1045" y="339" as="targetPoint" />
            <Array as="points">
              <mxPoint x="1045" y="339" />
            </Array>
          </mxGeometry>
        </mxCell>
        <mxCell id="J25SiXyJA0IX3_WEvqsw-85" style="edgeStyle=orthogonalEdgeStyle;rounded=0;orthogonalLoop=1;jettySize=auto;html=1;entryX=0;entryY=0.5;entryDx=0;entryDy=0;" parent="aJJ8dP-VgfmOxqk7pjXH-1" source="J25SiXyJA0IX3_WEvqsw-86" target="J25SiXyJA0IX3_WEvqsw-61" edge="1">
          <mxGeometry relative="1" as="geometry">
            <Array as="points">
              <mxPoint x="1410" y="340" />
              <mxPoint x="1410" y="340" />
            </Array>
          </mxGeometry>
        </mxCell>
        <mxCell id="J25SiXyJA0IX3_WEvqsw-86" value="&lt;pre style=&quot;font-size: 12px&quot;&gt;&lt;b&gt;Vinculo&lt;/b&gt;&lt;/pre&gt;" style="swimlane;html=1;fontStyle=0;childLayout=stackLayout;horizontal=1;startSize=26;fillColor=none;horizontalStack=0;resizeParent=1;resizeLast=0;collapsible=1;marginBottom=0;swimlaneFillColor=#ffffff;rounded=0;shadow=0;comic=0;labelBackgroundColor=none;strokeWidth=1;fontFamily=Verdana;fontSize=10;align=center;" parent="aJJ8dP-VgfmOxqk7pjXH-1" vertex="1">
          <mxGeometry x="1120" y="260.96000000000004" width="265" height="156" as="geometry" />
        </mxCell>
        <mxCell id="J25SiXyJA0IX3_WEvqsw-87" value="- matricula: String" style="text;html=1;strokeColor=none;fillColor=none;align=left;verticalAlign=top;spacingLeft=4;spacingRight=4;whiteSpace=wrap;overflow=hidden;rotatable=0;points=[[0,0.5],[1,0.5]];portConstraint=eastwest;" parent="J25SiXyJA0IX3_WEvqsw-86" vertex="1">
          <mxGeometry y="26" width="265" height="26" as="geometry" />
        </mxCell>
        <mxCell id="J25SiXyJA0IX3_WEvqsw-88" value="- periodoInicial: Integer" style="text;html=1;strokeColor=none;fillColor=none;align=left;verticalAlign=top;spacingLeft=4;spacingRight=4;whiteSpace=wrap;overflow=hidden;rotatable=0;points=[[0,0.5],[1,0.5]];portConstraint=eastwest;" parent="J25SiXyJA0IX3_WEvqsw-86" vertex="1">
          <mxGeometry y="52" width="265" height="26" as="geometry" />
        </mxCell>
        <mxCell id="J25SiXyJA0IX3_WEvqsw-89" value="- periodoAtual: Integer" style="text;html=1;strokeColor=none;fillColor=none;align=left;verticalAlign=top;spacingLeft=4;spacingRight=4;whiteSpace=wrap;overflow=hidden;rotatable=0;points=[[0,0.5],[1,0.5]];portConstraint=eastwest;" parent="J25SiXyJA0IX3_WEvqsw-86" vertex="1">
          <mxGeometry y="78" width="265" height="26" as="geometry" />
        </mxCell>
        <mxCell id="J25SiXyJA0IX3_WEvqsw-90" value="- gradePrincipal: GradeCurricularPrimaria" style="text;html=1;strokeColor=none;fillColor=none;align=left;verticalAlign=top;spacingLeft=4;spacingRight=4;whiteSpace=wrap;overflow=hidden;rotatable=0;points=[[0,0.5],[1,0.5]];portConstraint=eastwest;" parent="J25SiXyJA0IX3_WEvqsw-86" vertex="1">
          <mxGeometry y="104" width="265" height="26" as="geometry" />
        </mxCell>
        <mxCell id="J25SiXyJA0IX3_WEvqsw-91" value="- planoCurso: PlanoCurso" style="text;html=1;strokeColor=none;fillColor=none;align=left;verticalAlign=top;spacingLeft=4;spacingRight=4;whiteSpace=wrap;overflow=hidden;rotatable=0;points=[[0,0.5],[1,0.5]];portConstraint=eastwest;" parent="J25SiXyJA0IX3_WEvqsw-86" vertex="1">
          <mxGeometry y="130" width="265" height="26" as="geometry" />
        </mxCell>
      </root>
    </mxGraphModel>
  </diagram>
  <diagram id="2XUOYxvJE9AwuU354l3s" name="Page-3">
    <mxGraphModel dx="2062" dy="752" grid="1" gridSize="10" guides="1" tooltips="1" connect="1" arrows="1" fold="1" page="1" pageScale="1" pageWidth="827" pageHeight="1169" math="0" shadow="0">
      <root>
        <mxCell id="4YbHcTSw7GYD6oy9PYmn-0" />
        <mxCell id="4YbHcTSw7GYD6oy9PYmn-1" parent="4YbHcTSw7GYD6oy9PYmn-0" />
        <mxCell id="nBXeb73iau6scM9RavGL-5" value="&lt;&lt;abstract&gt;&gt;&#xa;ModeloAbstrato" style="swimlane;fontStyle=1;align=center;verticalAlign=middle;childLayout=stackLayout;horizontal=1;startSize=26;horizontalStack=0;resizeParent=1;resizeParentMax=0;resizeLast=0;collapsible=1;marginBottom=0;rounded=0;shadow=0;glass=0;sketch=0;whiteSpace=wrap;" parent="4YbHcTSw7GYD6oy9PYmn-1" vertex="1">
          <mxGeometry x="620" y="260" width="200" height="242" as="geometry" />
        </mxCell>
        <mxCell id="nBXeb73iau6scM9RavGL-6" value="- dataCriacao: LocalDateTime" style="text;strokeColor=none;fillColor=none;align=left;verticalAlign=top;spacingLeft=4;spacingRight=4;overflow=hidden;rotatable=0;points=[[0,0.5],[1,0.5]];portConstraint=eastwest;rounded=1;shadow=0;glass=0;sketch=0;" parent="nBXeb73iau6scM9RavGL-5" vertex="1">
          <mxGeometry y="26" width="200" height="26" as="geometry" />
        </mxCell>
        <mxCell id="nBXeb73iau6scM9RavGL-14" value="- dataModificacao: LocalDateTime" style="text;strokeColor=none;fillColor=none;align=left;verticalAlign=top;spacingLeft=4;spacingRight=4;overflow=hidden;rotatable=0;points=[[0,0.5],[1,0.5]];portConstraint=eastwest;rounded=1;shadow=0;glass=0;sketch=0;" parent="nBXeb73iau6scM9RavGL-5" vertex="1">
          <mxGeometry y="52" width="200" height="26" as="geometry" />
        </mxCell>
        <mxCell id="nBXeb73iau6scM9RavGL-15" value="- dataExclusao: LocalDateTime" style="text;strokeColor=none;fillColor=none;align=left;verticalAlign=top;spacingLeft=4;spacingRight=4;overflow=hidden;rotatable=0;points=[[0,0.5],[1,0.5]];portConstraint=eastwest;rounded=1;shadow=0;glass=0;sketch=0;" parent="nBXeb73iau6scM9RavGL-5" vertex="1">
          <mxGeometry y="78" width="200" height="26" as="geometry" />
        </mxCell>
        <mxCell id="nBXeb73iau6scM9RavGL-16" value="- ativo: Boolean" style="text;strokeColor=none;fillColor=none;align=left;verticalAlign=top;spacingLeft=4;spacingRight=4;overflow=hidden;rotatable=0;points=[[0,0.5],[1,0.5]];portConstraint=eastwest;rounded=1;shadow=0;glass=0;sketch=0;" parent="nBXeb73iau6scM9RavGL-5" vertex="1">
          <mxGeometry y="104" width="200" height="26" as="geometry" />
        </mxCell>
        <mxCell id="nBXeb73iau6scM9RavGL-7" value="" style="line;strokeWidth=1;fillColor=none;align=left;verticalAlign=middle;spacingTop=-1;spacingLeft=3;spacingRight=3;rotatable=0;labelPosition=right;points=[];portConstraint=eastwest;rounded=1;shadow=0;glass=0;sketch=0;" parent="nBXeb73iau6scM9RavGL-5" vertex="1">
          <mxGeometry y="130" width="200" height="8" as="geometry" />
        </mxCell>
        <mxCell id="nBXeb73iau6scM9RavGL-8" value="+ getId(): PK" style="text;strokeColor=none;fillColor=none;align=left;verticalAlign=top;spacingLeft=4;spacingRight=4;overflow=hidden;rotatable=0;points=[[0,0.5],[1,0.5]];portConstraint=eastwest;rounded=1;shadow=0;glass=0;sketch=0;" parent="nBXeb73iau6scM9RavGL-5" vertex="1">
          <mxGeometry y="138" width="200" height="26" as="geometry" />
        </mxCell>
        <mxCell id="nBXeb73iau6scM9RavGL-10" value="+ setId(id: PK): void" style="text;strokeColor=none;fillColor=none;align=left;verticalAlign=top;spacingLeft=4;spacingRight=4;overflow=hidden;rotatable=0;points=[[0,0.5],[1,0.5]];portConstraint=eastwest;rounded=1;shadow=0;glass=0;sketch=0;" parent="nBXeb73iau6scM9RavGL-5" vertex="1">
          <mxGeometry y="164" width="200" height="26" as="geometry" />
        </mxCell>
        <mxCell id="nBXeb73iau6scM9RavGL-17" value="+ preAtualizar(): void" style="text;strokeColor=none;fillColor=none;align=left;verticalAlign=top;spacingLeft=4;spacingRight=4;overflow=hidden;rotatable=0;points=[[0,0.5],[1,0.5]];portConstraint=eastwest;rounded=1;shadow=0;glass=0;sketch=0;" parent="nBXeb73iau6scM9RavGL-5" vertex="1">
          <mxGeometry y="190" width="200" height="26" as="geometry" />
        </mxCell>
        <mxCell id="nBXeb73iau6scM9RavGL-18" value="+ preExcluir(): void" style="text;strokeColor=none;fillColor=none;align=left;verticalAlign=top;spacingLeft=4;spacingRight=4;overflow=hidden;rotatable=0;points=[[0,0.5],[1,0.5]];portConstraint=eastwest;rounded=1;shadow=0;glass=0;sketch=0;" parent="nBXeb73iau6scM9RavGL-5" vertex="1">
          <mxGeometry y="216" width="200" height="26" as="geometry" />
        </mxCell>
        <mxCell id="gfOAUn0jvyQyGQVz9nHg-6" style="edgeStyle=orthogonalEdgeStyle;rounded=0;orthogonalLoop=1;jettySize=auto;html=1;entryX=0.5;entryY=0;entryDx=0;entryDy=0;strokeWidth=1;endArrow=block;endFill=0;startSize=6;endSize=13;" parent="4YbHcTSw7GYD6oy9PYmn-1" source="gfOAUn0jvyQyGQVz9nHg-0" target="nBXeb73iau6scM9RavGL-5" edge="1">
          <mxGeometry relative="1" as="geometry" />
        </mxCell>
        <mxCell id="gfOAUn0jvyQyGQVz9nHg-0" value="Usuario" style="swimlane;fontStyle=1;align=center;verticalAlign=top;childLayout=stackLayout;horizontal=1;startSize=26;horizontalStack=0;resizeParent=1;resizeParentMax=0;resizeLast=0;collapsible=1;marginBottom=0;rounded=0;shadow=0;glass=0;sketch=0;" parent="4YbHcTSw7GYD6oy9PYmn-1" vertex="1">
          <mxGeometry x="640" y="76" width="160" height="112" as="geometry" />
        </mxCell>
        <mxCell id="gfOAUn0jvyQyGQVz9nHg-1" value="# nome: String" style="text;strokeColor=none;fillColor=none;align=left;verticalAlign=top;spacingLeft=4;spacingRight=4;overflow=hidden;rotatable=0;points=[[0,0.5],[1,0.5]];portConstraint=eastwest;rounded=0;shadow=0;glass=0;sketch=0;" parent="gfOAUn0jvyQyGQVz9nHg-0" vertex="1">
          <mxGeometry y="26" width="160" height="26" as="geometry" />
        </mxCell>
        <mxCell id="gfOAUn0jvyQyGQVz9nHg-4" value="# email: String" style="text;strokeColor=none;fillColor=none;align=left;verticalAlign=top;spacingLeft=4;spacingRight=4;overflow=hidden;rotatable=0;points=[[0,0.5],[1,0.5]];portConstraint=eastwest;rounded=0;shadow=0;glass=0;sketch=0;" parent="gfOAUn0jvyQyGQVz9nHg-0" vertex="1">
          <mxGeometry y="52" width="160" height="26" as="geometry" />
        </mxCell>
        <mxCell id="gfOAUn0jvyQyGQVz9nHg-5" value="# senha: String" style="text;strokeColor=none;fillColor=none;align=left;verticalAlign=top;spacingLeft=4;spacingRight=4;overflow=hidden;rotatable=0;points=[[0,0.5],[1,0.5]];portConstraint=eastwest;rounded=0;shadow=0;glass=0;sketch=0;" parent="gfOAUn0jvyQyGQVz9nHg-0" vertex="1">
          <mxGeometry y="78" width="160" height="26" as="geometry" />
        </mxCell>
        <mxCell id="gfOAUn0jvyQyGQVz9nHg-2" value="" style="line;strokeWidth=1;fillColor=none;align=left;verticalAlign=middle;spacingTop=-1;spacingLeft=3;spacingRight=3;rotatable=0;labelPosition=right;points=[];portConstraint=eastwest;rounded=0;shadow=0;glass=0;sketch=0;" parent="gfOAUn0jvyQyGQVz9nHg-0" vertex="1">
          <mxGeometry y="104" width="160" height="8" as="geometry" />
        </mxCell>
        <mxCell id="gfOAUn0jvyQyGQVz9nHg-17" style="edgeStyle=orthogonalEdgeStyle;rounded=0;orthogonalLoop=1;jettySize=auto;html=1;entryX=0;entryY=0.5;entryDx=0;entryDy=0;endArrow=block;endFill=0;startSize=6;endSize=13;strokeWidth=1;" parent="4YbHcTSw7GYD6oy9PYmn-1" source="gfOAUn0jvyQyGQVz9nHg-7" target="gfOAUn0jvyQyGQVz9nHg-4" edge="1">
          <mxGeometry relative="1" as="geometry" />
        </mxCell>
        <mxCell id="gfOAUn0jvyQyGQVz9nHg-7" value="Administrador" style="swimlane;fontStyle=1;align=center;verticalAlign=top;childLayout=stackLayout;horizontal=1;startSize=26;horizontalStack=0;resizeParent=1;resizeParentMax=0;resizeLast=0;collapsible=1;marginBottom=0;rounded=0;shadow=0;glass=0;sketch=0;" parent="4YbHcTSw7GYD6oy9PYmn-1" vertex="1">
          <mxGeometry x="334" y="111" width="160" height="60" as="geometry" />
        </mxCell>
        <mxCell id="gfOAUn0jvyQyGQVz9nHg-10" value="- id: Long" style="text;strokeColor=none;fillColor=none;align=left;verticalAlign=top;spacingLeft=4;spacingRight=4;overflow=hidden;rotatable=0;points=[[0,0.5],[1,0.5]];portConstraint=eastwest;rounded=0;shadow=0;glass=0;sketch=0;" parent="gfOAUn0jvyQyGQVz9nHg-7" vertex="1">
          <mxGeometry y="26" width="160" height="26" as="geometry" />
        </mxCell>
        <mxCell id="gfOAUn0jvyQyGQVz9nHg-11" value="" style="line;strokeWidth=1;fillColor=none;align=left;verticalAlign=middle;spacingTop=-1;spacingLeft=3;spacingRight=3;rotatable=0;labelPosition=right;points=[];portConstraint=eastwest;rounded=0;shadow=0;glass=0;sketch=0;" parent="gfOAUn0jvyQyGQVz9nHg-7" vertex="1">
          <mxGeometry y="52" width="160" height="8" as="geometry" />
        </mxCell>
        <mxCell id="gfOAUn0jvyQyGQVz9nHg-18" style="edgeStyle=orthogonalEdgeStyle;rounded=0;orthogonalLoop=1;jettySize=auto;html=1;entryX=1;entryY=0.5;entryDx=0;entryDy=0;endArrow=block;endFill=0;startSize=6;endSize=13;strokeWidth=1;" parent="4YbHcTSw7GYD6oy9PYmn-1" source="gfOAUn0jvyQyGQVz9nHg-12" target="gfOAUn0jvyQyGQVz9nHg-4" edge="1">
          <mxGeometry relative="1" as="geometry" />
        </mxCell>
        <mxCell id="gfOAUn0jvyQyGQVz9nHg-34" style="edgeStyle=orthogonalEdgeStyle;rounded=0;orthogonalLoop=1;jettySize=auto;html=1;endArrow=open;endFill=0;startSize=10;endSize=10;strokeWidth=1;startArrow=open;startFill=0;" parent="4YbHcTSw7GYD6oy9PYmn-1" source="gfOAUn0jvyQyGQVz9nHg-12" target="gfOAUn0jvyQyGQVz9nHg-20" edge="1">
          <mxGeometry relative="1" as="geometry" />
        </mxCell>
        <mxCell id="gfOAUn0jvyQyGQVz9nHg-12" value="Estudante" style="swimlane;fontStyle=1;align=center;verticalAlign=top;childLayout=stackLayout;horizontal=1;startSize=26;horizontalStack=0;resizeParent=1;resizeParentMax=0;resizeLast=0;collapsible=1;marginBottom=0;rounded=0;shadow=0;glass=0;sketch=0;" parent="4YbHcTSw7GYD6oy9PYmn-1" vertex="1">
          <mxGeometry x="970" y="99" width="160" height="86" as="geometry" />
        </mxCell>
        <mxCell id="gfOAUn0jvyQyGQVz9nHg-13" value="- id: Long" style="text;strokeColor=none;fillColor=none;align=left;verticalAlign=top;spacingLeft=4;spacingRight=4;overflow=hidden;rotatable=0;points=[[0,0.5],[1,0.5]];portConstraint=eastwest;rounded=0;shadow=0;glass=0;sketch=0;" parent="gfOAUn0jvyQyGQVz9nHg-12" vertex="1">
          <mxGeometry y="26" width="160" height="26" as="geometry" />
        </mxCell>
        <mxCell id="gfOAUn0jvyQyGQVz9nHg-19" value="- vinculos: Set&lt;Vinculo&gt;" style="text;strokeColor=none;fillColor=none;align=left;verticalAlign=top;spacingLeft=4;spacingRight=4;overflow=hidden;rotatable=0;points=[[0,0.5],[1,0.5]];portConstraint=eastwest;rounded=0;shadow=0;glass=0;sketch=0;" parent="gfOAUn0jvyQyGQVz9nHg-12" vertex="1">
          <mxGeometry y="52" width="160" height="26" as="geometry" />
        </mxCell>
        <mxCell id="gfOAUn0jvyQyGQVz9nHg-16" value="" style="line;strokeWidth=1;fillColor=none;align=left;verticalAlign=middle;spacingTop=-1;spacingLeft=3;spacingRight=3;rotatable=0;labelPosition=right;points=[];portConstraint=eastwest;rounded=0;shadow=0;glass=0;sketch=0;" parent="gfOAUn0jvyQyGQVz9nHg-12" vertex="1">
          <mxGeometry y="78" width="160" height="8" as="geometry" />
        </mxCell>
        <mxCell id="gfOAUn0jvyQyGQVz9nHg-33" style="edgeStyle=orthogonalEdgeStyle;rounded=0;orthogonalLoop=1;jettySize=auto;html=1;endArrow=block;endFill=0;startSize=10;endSize=13;strokeWidth=1;entryX=1;entryY=0.5;entryDx=0;entryDy=0;" parent="4YbHcTSw7GYD6oy9PYmn-1" source="gfOAUn0jvyQyGQVz9nHg-20" target="nBXeb73iau6scM9RavGL-8" edge="1">
          <mxGeometry relative="1" as="geometry">
            <mxPoint x="890" y="360" as="targetPoint" />
          </mxGeometry>
        </mxCell>
        <mxCell id="gfOAUn0jvyQyGQVz9nHg-112" style="edgeStyle=orthogonalEdgeStyle;rounded=0;orthogonalLoop=1;jettySize=auto;html=1;entryX=0.5;entryY=0;entryDx=0;entryDy=0;startArrow=none;startFill=0;endArrow=open;endFill=0;startSize=10;endSize=10;strokeWidth=1;" parent="4YbHcTSw7GYD6oy9PYmn-1" source="gfOAUn0jvyQyGQVz9nHg-20" target="gfOAUn0jvyQyGQVz9nHg-35" edge="1">
          <mxGeometry relative="1" as="geometry" />
        </mxCell>
        <mxCell id="gfOAUn0jvyQyGQVz9nHg-113" style="edgeStyle=orthogonalEdgeStyle;rounded=0;orthogonalLoop=1;jettySize=auto;html=1;startArrow=none;startFill=0;endArrow=open;endFill=0;startSize=10;endSize=10;strokeWidth=1;entryX=1;entryY=0.5;entryDx=0;entryDy=0;" parent="4YbHcTSw7GYD6oy9PYmn-1" source="gfOAUn0jvyQyGQVz9nHg-20" target="gfOAUn0jvyQyGQVz9nHg-80" edge="1">
          <mxGeometry relative="1" as="geometry">
            <mxPoint x="1320" y="1080" as="targetPoint" />
            <Array as="points">
              <mxPoint x="1290" y="480" />
              <mxPoint x="1290" y="1421" />
            </Array>
          </mxGeometry>
        </mxCell>
        <mxCell id="gfOAUn0jvyQyGQVz9nHg-114" style="edgeStyle=orthogonalEdgeStyle;rounded=0;orthogonalLoop=1;jettySize=auto;html=1;startArrow=none;startFill=0;endArrow=open;endFill=0;startSize=10;endSize=10;strokeWidth=1;entryX=0.998;entryY=0.115;entryDx=0;entryDy=0;entryPerimeter=0;" parent="4YbHcTSw7GYD6oy9PYmn-1" source="gfOAUn0jvyQyGQVz9nHg-20" target="gfOAUn0jvyQyGQVz9nHg-96" edge="1">
          <mxGeometry relative="1" as="geometry">
            <mxPoint x="1380" y="1450" as="targetPoint" />
            <Array as="points">
              <mxPoint x="1350" y="330" />
              <mxPoint x="1350" y="1801" />
            </Array>
          </mxGeometry>
        </mxCell>
        <mxCell id="gfOAUn0jvyQyGQVz9nHg-20" value="Vinculo" style="swimlane;fontStyle=1;align=center;verticalAlign=top;childLayout=stackLayout;horizontal=1;startSize=26;horizontalStack=0;resizeParent=1;resizeParentMax=0;resizeLast=0;collapsible=1;marginBottom=0;rounded=0;shadow=0;glass=0;sketch=0;" parent="4YbHcTSw7GYD6oy9PYmn-1" vertex="1">
          <mxGeometry x="960" y="251" width="180" height="320" as="geometry" />
        </mxCell>
        <mxCell id="gfOAUn0jvyQyGQVz9nHg-21" value="- id: Long" style="text;strokeColor=none;fillColor=none;align=left;verticalAlign=top;spacingLeft=4;spacingRight=4;overflow=hidden;rotatable=0;points=[[0,0.5],[1,0.5]];portConstraint=eastwest;rounded=0;shadow=0;glass=0;sketch=0;" parent="gfOAUn0jvyQyGQVz9nHg-20" vertex="1">
          <mxGeometry y="26" width="180" height="26" as="geometry" />
        </mxCell>
        <mxCell id="gfOAUn0jvyQyGQVz9nHg-22" value="- matricula: String" style="text;strokeColor=none;fillColor=none;align=left;verticalAlign=top;spacingLeft=4;spacingRight=4;overflow=hidden;rotatable=0;points=[[0,0.5],[1,0.5]];portConstraint=eastwest;rounded=0;shadow=0;glass=0;sketch=0;" parent="gfOAUn0jvyQyGQVz9nHg-20" vertex="1">
          <mxGeometry y="52" width="180" height="26" as="geometry" />
        </mxCell>
        <mxCell id="gfOAUn0jvyQyGQVz9nHg-24" value="- periodoInicialAno: Integer" style="text;strokeColor=none;fillColor=none;align=left;verticalAlign=top;spacingLeft=4;spacingRight=4;overflow=hidden;rotatable=0;points=[[0,0.5],[1,0.5]];portConstraint=eastwest;rounded=0;shadow=0;glass=0;sketch=0;" parent="gfOAUn0jvyQyGQVz9nHg-20" vertex="1">
          <mxGeometry y="78" width="180" height="26" as="geometry" />
        </mxCell>
        <mxCell id="gfOAUn0jvyQyGQVz9nHg-25" value="- periodoInicialPeriodo: Integer" style="text;strokeColor=none;fillColor=none;align=left;verticalAlign=top;spacingLeft=4;spacingRight=4;overflow=hidden;rotatable=0;points=[[0,0.5],[1,0.5]];portConstraint=eastwest;rounded=0;shadow=0;glass=0;sketch=0;" parent="gfOAUn0jvyQyGQVz9nHg-20" vertex="1">
          <mxGeometry y="104" width="180" height="26" as="geometry" />
        </mxCell>
        <mxCell id="gfOAUn0jvyQyGQVz9nHg-26" value="- periodoAtualAno: Integer" style="text;strokeColor=none;fillColor=none;align=left;verticalAlign=top;spacingLeft=4;spacingRight=4;overflow=hidden;rotatable=0;points=[[0,0.5],[1,0.5]];portConstraint=eastwest;rounded=0;shadow=0;glass=0;sketch=0;" parent="gfOAUn0jvyQyGQVz9nHg-20" vertex="1">
          <mxGeometry y="130" width="180" height="26" as="geometry" />
        </mxCell>
        <mxCell id="gfOAUn0jvyQyGQVz9nHg-27" value="- periodoAtualPeriodo: Integer" style="text;strokeColor=none;fillColor=none;align=left;verticalAlign=top;spacingLeft=4;spacingRight=4;overflow=hidden;rotatable=0;points=[[0,0.5],[1,0.5]];portConstraint=eastwest;rounded=0;shadow=0;glass=0;sketch=0;" parent="gfOAUn0jvyQyGQVz9nHg-20" vertex="1">
          <mxGeometry y="156" width="180" height="26" as="geometry" />
        </mxCell>
        <mxCell id="gfOAUn0jvyQyGQVz9nHg-28" value="- curso: Curso" style="text;strokeColor=none;fillColor=none;align=left;verticalAlign=top;spacingLeft=4;spacingRight=4;overflow=hidden;rotatable=0;points=[[0,0.5],[1,0.5]];portConstraint=eastwest;rounded=0;shadow=0;glass=0;sketch=0;" parent="gfOAUn0jvyQyGQVz9nHg-20" vertex="1">
          <mxGeometry y="182" width="180" height="26" as="geometry" />
        </mxCell>
        <mxCell id="gfOAUn0jvyQyGQVz9nHg-29" value="- enfase: Enfase" style="text;strokeColor=none;fillColor=none;align=left;verticalAlign=top;spacingLeft=4;spacingRight=4;overflow=hidden;rotatable=0;points=[[0,0.5],[1,0.5]];portConstraint=eastwest;rounded=0;shadow=0;glass=0;sketch=0;" parent="gfOAUn0jvyQyGQVz9nHg-20" vertex="1">
          <mxGeometry y="208" width="180" height="26" as="geometry" />
        </mxCell>
        <mxCell id="gfOAUn0jvyQyGQVz9nHg-30" value="- planoCurso: PlanoCurso" style="text;strokeColor=none;fillColor=none;align=left;verticalAlign=top;spacingLeft=4;spacingRight=4;overflow=hidden;rotatable=0;points=[[0,0.5],[1,0.5]];portConstraint=eastwest;rounded=0;shadow=0;glass=0;sketch=0;" parent="gfOAUn0jvyQyGQVz9nHg-20" vertex="1">
          <mxGeometry y="234" width="180" height="26" as="geometry" />
        </mxCell>
        <mxCell id="gfOAUn0jvyQyGQVz9nHg-31" value="- estudante: Estudante" style="text;strokeColor=none;fillColor=none;align=left;verticalAlign=top;spacingLeft=4;spacingRight=4;overflow=hidden;rotatable=0;points=[[0,0.5],[1,0.5]];portConstraint=eastwest;rounded=0;shadow=0;glass=0;sketch=0;" parent="gfOAUn0jvyQyGQVz9nHg-20" vertex="1">
          <mxGeometry y="260" width="180" height="26" as="geometry" />
        </mxCell>
        <mxCell id="gfOAUn0jvyQyGQVz9nHg-23" value="" style="line;strokeWidth=1;fillColor=none;align=left;verticalAlign=middle;spacingTop=-1;spacingLeft=3;spacingRight=3;rotatable=0;labelPosition=right;points=[];portConstraint=eastwest;rounded=0;shadow=0;glass=0;sketch=0;" parent="gfOAUn0jvyQyGQVz9nHg-20" vertex="1">
          <mxGeometry y="286" width="180" height="8" as="geometry" />
        </mxCell>
        <mxCell id="gfOAUn0jvyQyGQVz9nHg-32" value="+ getPeriodoAtual(): Integer" style="text;strokeColor=none;fillColor=none;align=left;verticalAlign=top;spacingLeft=4;spacingRight=4;overflow=hidden;rotatable=0;points=[[0,0.5],[1,0.5]];portConstraint=eastwest;rounded=0;shadow=0;glass=0;sketch=0;" parent="gfOAUn0jvyQyGQVz9nHg-20" vertex="1">
          <mxGeometry y="294" width="180" height="26" as="geometry" />
        </mxCell>
        <mxCell id="gfOAUn0jvyQyGQVz9nHg-116" style="edgeStyle=orthogonalEdgeStyle;rounded=0;orthogonalLoop=1;jettySize=auto;html=1;startArrow=none;startFill=0;endArrow=block;endFill=0;startSize=10;endSize=13;strokeWidth=1;entryX=1;entryY=0.5;entryDx=0;entryDy=0;" parent="4YbHcTSw7GYD6oy9PYmn-1" source="gfOAUn0jvyQyGQVz9nHg-35" target="nBXeb73iau6scM9RavGL-18" edge="1">
          <mxGeometry relative="1" as="geometry">
            <mxPoint x="820" y="670" as="targetPoint" />
            <Array as="points">
              <mxPoint x="860" y="680" />
              <mxPoint x="860" y="489" />
            </Array>
          </mxGeometry>
        </mxCell>
        <mxCell id="gfOAUn0jvyQyGQVz9nHg-126" style="edgeStyle=orthogonalEdgeStyle;rounded=0;orthogonalLoop=1;jettySize=auto;html=1;entryX=1;entryY=0.5;entryDx=0;entryDy=0;startArrow=none;startFill=0;endArrow=open;endFill=0;startSize=10;endSize=10;strokeWidth=1;" parent="4YbHcTSw7GYD6oy9PYmn-1" source="gfOAUn0jvyQyGQVz9nHg-35" target="gfOAUn0jvyQyGQVz9nHg-92" edge="1">
          <mxGeometry relative="1" as="geometry">
            <Array as="points">
              <mxPoint x="870" y="747" />
              <mxPoint x="870" y="747" />
            </Array>
          </mxGeometry>
        </mxCell>
        <mxCell id="gfOAUn0jvyQyGQVz9nHg-127" style="edgeStyle=orthogonalEdgeStyle;rounded=0;orthogonalLoop=1;jettySize=auto;html=1;entryX=1;entryY=0.5;entryDx=0;entryDy=0;startArrow=none;startFill=0;endArrow=open;endFill=0;startSize=10;endSize=10;strokeWidth=1;" parent="4YbHcTSw7GYD6oy9PYmn-1" source="gfOAUn0jvyQyGQVz9nHg-35" target="gfOAUn0jvyQyGQVz9nHg-66" edge="1">
          <mxGeometry relative="1" as="geometry">
            <Array as="points">
              <mxPoint x="870" y="935" />
              <mxPoint x="870" y="935" />
            </Array>
          </mxGeometry>
        </mxCell>
        <mxCell id="gfOAUn0jvyQyGQVz9nHg-35" value="Curso" style="swimlane;fontStyle=1;align=center;verticalAlign=top;childLayout=stackLayout;horizontal=1;startSize=26;horizontalStack=0;resizeParent=1;resizeParentMax=0;resizeLast=0;collapsible=1;marginBottom=0;rounded=0;shadow=0;glass=0;sketch=0;" parent="4YbHcTSw7GYD6oy9PYmn-1" vertex="1">
          <mxGeometry x="885" y="630" width="330" height="450" as="geometry" />
        </mxCell>
        <mxCell id="gfOAUn0jvyQyGQVz9nHg-36" value="- id: Long" style="text;strokeColor=none;fillColor=none;align=left;verticalAlign=top;spacingLeft=4;spacingRight=4;overflow=hidden;rotatable=0;points=[[0,0.5],[1,0.5]];portConstraint=eastwest;rounded=0;shadow=0;glass=0;sketch=0;" parent="gfOAUn0jvyQyGQVz9nHg-35" vertex="1">
          <mxGeometry y="26" width="330" height="26" as="geometry" />
        </mxCell>
        <mxCell id="gfOAUn0jvyQyGQVz9nHg-37" value="- nome: String" style="text;strokeColor=none;fillColor=none;align=left;verticalAlign=top;spacingLeft=4;spacingRight=4;overflow=hidden;rotatable=0;points=[[0,0.5],[1,0.5]];portConstraint=eastwest;rounded=0;shadow=0;glass=0;sketch=0;" parent="gfOAUn0jvyQyGQVz9nHg-35" vertex="1">
          <mxGeometry y="52" width="330" height="26" as="geometry" />
        </mxCell>
        <mxCell id="gfOAUn0jvyQyGQVz9nHg-47" value="- chm: Integer" style="text;strokeColor=none;fillColor=none;align=left;verticalAlign=top;spacingLeft=4;spacingRight=4;overflow=hidden;rotatable=0;points=[[0,0.5],[1,0.5]];portConstraint=eastwest;rounded=0;shadow=0;glass=0;sketch=0;" parent="gfOAUn0jvyQyGQVz9nHg-35" vertex="1">
          <mxGeometry y="78" width="330" height="26" as="geometry" />
        </mxCell>
        <mxCell id="gfOAUn0jvyQyGQVz9nHg-48" value="- cho: Integer" style="text;strokeColor=none;fillColor=none;align=left;verticalAlign=top;spacingLeft=4;spacingRight=4;overflow=hidden;rotatable=0;points=[[0,0.5],[1,0.5]];portConstraint=eastwest;rounded=0;shadow=0;glass=0;sketch=0;" parent="gfOAUn0jvyQyGQVz9nHg-35" vertex="1">
          <mxGeometry y="104" width="330" height="26" as="geometry" />
        </mxCell>
        <mxCell id="gfOAUn0jvyQyGQVz9nHg-49" value="- chom: Integer" style="text;strokeColor=none;fillColor=none;align=left;verticalAlign=top;spacingLeft=4;spacingRight=4;overflow=hidden;rotatable=0;points=[[0,0.5],[1,0.5]];portConstraint=eastwest;rounded=0;shadow=0;glass=0;sketch=0;" parent="gfOAUn0jvyQyGQVz9nHg-35" vertex="1">
          <mxGeometry y="130" width="330" height="26" as="geometry" />
        </mxCell>
        <mxCell id="gfOAUn0jvyQyGQVz9nHg-50" value="- chcm: Integer" style="text;strokeColor=none;fillColor=none;align=left;verticalAlign=top;spacingLeft=4;spacingRight=4;overflow=hidden;rotatable=0;points=[[0,0.5],[1,0.5]];portConstraint=eastwest;rounded=0;shadow=0;glass=0;sketch=0;" parent="gfOAUn0jvyQyGQVz9nHg-35" vertex="1">
          <mxGeometry y="156" width="330" height="26" as="geometry" />
        </mxCell>
        <mxCell id="gfOAUn0jvyQyGQVz9nHg-51" value="- chem: Integer" style="text;strokeColor=none;fillColor=none;align=left;verticalAlign=top;spacingLeft=4;spacingRight=4;overflow=hidden;rotatable=0;points=[[0,0.5],[1,0.5]];portConstraint=eastwest;rounded=0;shadow=0;glass=0;sketch=0;" parent="gfOAUn0jvyQyGQVz9nHg-35" vertex="1">
          <mxGeometry y="182" width="330" height="26" as="geometry" />
        </mxCell>
        <mxCell id="gfOAUn0jvyQyGQVz9nHg-52" value="- chminp: Integer" style="text;strokeColor=none;fillColor=none;align=left;verticalAlign=top;spacingLeft=4;spacingRight=4;overflow=hidden;rotatable=0;points=[[0,0.5],[1,0.5]];portConstraint=eastwest;rounded=0;shadow=0;glass=0;sketch=0;" parent="gfOAUn0jvyQyGQVz9nHg-35" vertex="1">
          <mxGeometry y="208" width="330" height="26" as="geometry" />
        </mxCell>
        <mxCell id="gfOAUn0jvyQyGQVz9nHg-53" value="- chmaxp: Integer" style="text;strokeColor=none;fillColor=none;align=left;verticalAlign=top;spacingLeft=4;spacingRight=4;overflow=hidden;rotatable=0;points=[[0,0.5],[1,0.5]];portConstraint=eastwest;rounded=0;shadow=0;glass=0;sketch=0;" parent="gfOAUn0jvyQyGQVz9nHg-35" vertex="1">
          <mxGeometry y="234" width="330" height="26" as="geometry" />
        </mxCell>
        <mxCell id="gfOAUn0jvyQyGQVz9nHg-54" value="- prazoMinimo: Integer" style="text;strokeColor=none;fillColor=none;align=left;verticalAlign=top;spacingLeft=4;spacingRight=4;overflow=hidden;rotatable=0;points=[[0,0.5],[1,0.5]];portConstraint=eastwest;rounded=0;shadow=0;glass=0;sketch=0;" parent="gfOAUn0jvyQyGQVz9nHg-35" vertex="1">
          <mxGeometry y="260" width="330" height="26" as="geometry" />
        </mxCell>
        <mxCell id="gfOAUn0jvyQyGQVz9nHg-55" value="- prazoMaximo: Integer" style="text;strokeColor=none;fillColor=none;align=left;verticalAlign=top;spacingLeft=4;spacingRight=4;overflow=hidden;rotatable=0;points=[[0,0.5],[1,0.5]];portConstraint=eastwest;rounded=0;shadow=0;glass=0;sketch=0;" parent="gfOAUn0jvyQyGQVz9nHg-35" vertex="1">
          <mxGeometry y="286" width="330" height="26" as="geometry" />
        </mxCell>
        <mxCell id="gfOAUn0jvyQyGQVz9nHg-56" value="- prazoEsperado: Integer" style="text;strokeColor=none;fillColor=none;align=left;verticalAlign=top;spacingLeft=4;spacingRight=4;overflow=hidden;rotatable=0;points=[[0,0.5],[1,0.5]];portConstraint=eastwest;rounded=0;shadow=0;glass=0;sketch=0;" parent="gfOAUn0jvyQyGQVz9nHg-35" vertex="1">
          <mxGeometry y="312" width="330" height="26" as="geometry" />
        </mxCell>
        <mxCell id="gfOAUn0jvyQyGQVz9nHg-57" value="- disciplinasObrigatorias: Set&lt;DisciplinaPeriodo&gt;" style="text;strokeColor=none;fillColor=none;align=left;verticalAlign=top;spacingLeft=4;spacingRight=4;overflow=hidden;rotatable=0;points=[[0,0.5],[1,0.5]];portConstraint=eastwest;rounded=0;shadow=0;glass=0;sketch=0;" parent="gfOAUn0jvyQyGQVz9nHg-35" vertex="1">
          <mxGeometry y="338" width="330" height="26" as="geometry" />
        </mxCell>
        <mxCell id="gfOAUn0jvyQyGQVz9nHg-59" value="- disciplinasOptativas: Set&lt;Disciplina&gt;" style="text;strokeColor=none;fillColor=none;align=left;verticalAlign=top;spacingLeft=4;spacingRight=4;overflow=hidden;rotatable=0;points=[[0,0.5],[1,0.5]];portConstraint=eastwest;rounded=0;shadow=0;glass=0;sketch=0;" parent="gfOAUn0jvyQyGQVz9nHg-35" vertex="1">
          <mxGeometry y="364" width="330" height="26" as="geometry" />
        </mxCell>
        <mxCell id="gfOAUn0jvyQyGQVz9nHg-38" value="" style="line;strokeWidth=1;fillColor=none;align=left;verticalAlign=middle;spacingTop=-1;spacingLeft=3;spacingRight=3;rotatable=0;labelPosition=right;points=[];portConstraint=eastwest;rounded=0;shadow=0;glass=0;sketch=0;" parent="gfOAUn0jvyQyGQVz9nHg-35" vertex="1">
          <mxGeometry y="390" width="330" height="8" as="geometry" />
        </mxCell>
        <mxCell id="gfOAUn0jvyQyGQVz9nHg-60" value="+ adicionarDisciplinaObrigatoria(d: DisciplinaPeriodo): void" style="text;strokeColor=none;fillColor=none;align=left;verticalAlign=top;spacingLeft=4;spacingRight=4;overflow=hidden;rotatable=0;points=[[0,0.5],[1,0.5]];portConstraint=eastwest;rounded=0;shadow=0;glass=0;sketch=0;" parent="gfOAUn0jvyQyGQVz9nHg-35" vertex="1">
          <mxGeometry y="398" width="330" height="26" as="geometry" />
        </mxCell>
        <mxCell id="gfOAUn0jvyQyGQVz9nHg-62" value="+ adicionarDisciplinaOptativa(d: Disciplina): void" style="text;strokeColor=none;fillColor=none;align=left;verticalAlign=top;spacingLeft=4;spacingRight=4;overflow=hidden;rotatable=0;points=[[0,0.5],[1,0.5]];portConstraint=eastwest;rounded=0;shadow=0;glass=0;sketch=0;" parent="gfOAUn0jvyQyGQVz9nHg-35" vertex="1">
          <mxGeometry y="424" width="330" height="26" as="geometry" />
        </mxCell>
        <mxCell id="gfOAUn0jvyQyGQVz9nHg-111" style="edgeStyle=orthogonalEdgeStyle;rounded=0;orthogonalLoop=1;jettySize=auto;html=1;entryX=0.501;entryY=0.995;entryDx=0;entryDy=0;entryPerimeter=0;startArrow=none;startFill=0;endArrow=open;endFill=0;startSize=10;endSize=10;strokeWidth=1;" parent="4YbHcTSw7GYD6oy9PYmn-1" source="gfOAUn0jvyQyGQVz9nHg-39" target="gfOAUn0jvyQyGQVz9nHg-62" edge="1">
          <mxGeometry relative="1" as="geometry" />
        </mxCell>
        <mxCell id="gfOAUn0jvyQyGQVz9nHg-128" style="edgeStyle=orthogonalEdgeStyle;rounded=0;orthogonalLoop=1;jettySize=auto;html=1;startArrow=none;startFill=0;endArrow=open;endFill=0;startSize=10;endSize=10;strokeWidth=1;entryX=0.75;entryY=1;entryDx=0;entryDy=0;" parent="4YbHcTSw7GYD6oy9PYmn-1" source="gfOAUn0jvyQyGQVz9nHg-39" target="gfOAUn0jvyQyGQVz9nHg-64" edge="1">
          <mxGeometry relative="1" as="geometry">
            <mxPoint x="800" y="1030" as="targetPoint" />
          </mxGeometry>
        </mxCell>
        <mxCell id="gfOAUn0jvyQyGQVz9nHg-129" style="edgeStyle=orthogonalEdgeStyle;rounded=0;orthogonalLoop=1;jettySize=auto;html=1;startArrow=none;startFill=0;endArrow=open;endFill=0;startSize=10;endSize=10;strokeWidth=1;entryX=1;entryY=0.5;entryDx=0;entryDy=0;" parent="4YbHcTSw7GYD6oy9PYmn-1" source="gfOAUn0jvyQyGQVz9nHg-39" target="gfOAUn0jvyQyGQVz9nHg-94" edge="1">
          <mxGeometry relative="1" as="geometry">
            <mxPoint x="800" y="1110" as="targetPoint" />
            <Array as="points">
              <mxPoint x="830" y="1330" />
              <mxPoint x="830" y="799" />
            </Array>
          </mxGeometry>
        </mxCell>
        <mxCell id="gfOAUn0jvyQyGQVz9nHg-39" value="Enfase&#xa;" style="swimlane;fontStyle=1;align=center;verticalAlign=top;childLayout=stackLayout;horizontal=1;startSize=26;horizontalStack=0;resizeParent=1;resizeParentMax=0;resizeLast=0;collapsible=1;marginBottom=0;rounded=0;shadow=0;glass=0;sketch=0;" parent="4YbHcTSw7GYD6oy9PYmn-1" vertex="1">
          <mxGeometry x="867.5" y="1140" width="365" height="528" as="geometry" />
        </mxCell>
        <mxCell id="gfOAUn0jvyQyGQVz9nHg-40" value="- id: Long" style="text;strokeColor=none;fillColor=none;align=left;verticalAlign=top;spacingLeft=4;spacingRight=4;overflow=hidden;rotatable=0;points=[[0,0.5],[1,0.5]];portConstraint=eastwest;rounded=0;shadow=0;glass=0;sketch=0;" parent="gfOAUn0jvyQyGQVz9nHg-39" vertex="1">
          <mxGeometry y="26" width="365" height="26" as="geometry" />
        </mxCell>
        <mxCell id="gfOAUn0jvyQyGQVz9nHg-41" value="- nome: String" style="text;strokeColor=none;fillColor=none;align=left;verticalAlign=top;spacingLeft=4;spacingRight=4;overflow=hidden;rotatable=0;points=[[0,0.5],[1,0.5]];portConstraint=eastwest;rounded=0;shadow=0;glass=0;sketch=0;" parent="gfOAUn0jvyQyGQVz9nHg-39" vertex="1">
          <mxGeometry y="52" width="365" height="26" as="geometry" />
        </mxCell>
        <mxCell id="gfOAUn0jvyQyGQVz9nHg-73" value="- curso: Curso" style="text;strokeColor=none;fillColor=none;align=left;verticalAlign=top;spacingLeft=4;spacingRight=4;overflow=hidden;rotatable=0;points=[[0,0.5],[1,0.5]];portConstraint=eastwest;rounded=0;shadow=0;glass=0;sketch=0;" parent="gfOAUn0jvyQyGQVz9nHg-39" vertex="1">
          <mxGeometry y="78" width="365" height="26" as="geometry" />
        </mxCell>
        <mxCell id="gfOAUn0jvyQyGQVz9nHg-74" value="- disciplinasObrigatorias: Set&lt;DisciplinaPeriodo&gt;" style="text;strokeColor=none;fillColor=none;align=left;verticalAlign=top;spacingLeft=4;spacingRight=4;overflow=hidden;rotatable=0;points=[[0,0.5],[1,0.5]];portConstraint=eastwest;rounded=0;shadow=0;glass=0;sketch=0;" parent="gfOAUn0jvyQyGQVz9nHg-39" vertex="1">
          <mxGeometry y="104" width="365" height="26" as="geometry" />
        </mxCell>
        <mxCell id="gfOAUn0jvyQyGQVz9nHg-42" value="" style="line;strokeWidth=1;fillColor=none;align=left;verticalAlign=middle;spacingTop=-1;spacingLeft=3;spacingRight=3;rotatable=0;labelPosition=right;points=[];portConstraint=eastwest;rounded=0;shadow=0;glass=0;sketch=0;" parent="gfOAUn0jvyQyGQVz9nHg-39" vertex="1">
          <mxGeometry y="130" width="365" height="8" as="geometry" />
        </mxCell>
        <mxCell id="gfOAUn0jvyQyGQVz9nHg-75" value="+ getChEspecifica(): Integer" style="text;strokeColor=none;fillColor=none;align=left;verticalAlign=top;spacingLeft=4;spacingRight=4;overflow=hidden;rotatable=0;points=[[0,0.5],[1,0.5]];portConstraint=eastwest;rounded=0;shadow=0;glass=0;sketch=0;" parent="gfOAUn0jvyQyGQVz9nHg-39" vertex="1">
          <mxGeometry y="138" width="365" height="26" as="geometry" />
        </mxCell>
        <mxCell id="gfOAUn0jvyQyGQVz9nHg-76" value="+ getChm(): Integer" style="text;strokeColor=none;fillColor=none;align=left;verticalAlign=top;spacingLeft=4;spacingRight=4;overflow=hidden;rotatable=0;points=[[0,0.5],[1,0.5]];portConstraint=eastwest;rounded=0;shadow=0;glass=0;sketch=0;" parent="gfOAUn0jvyQyGQVz9nHg-39" vertex="1">
          <mxGeometry y="164" width="365" height="26" as="geometry" />
        </mxCell>
        <mxCell id="gfOAUn0jvyQyGQVz9nHg-77" value="+ getCho(): Integer" style="text;strokeColor=none;fillColor=none;align=left;verticalAlign=top;spacingLeft=4;spacingRight=4;overflow=hidden;rotatable=0;points=[[0,0.5],[1,0.5]];portConstraint=eastwest;rounded=0;shadow=0;glass=0;sketch=0;" parent="gfOAUn0jvyQyGQVz9nHg-39" vertex="1">
          <mxGeometry y="190" width="365" height="26" as="geometry" />
        </mxCell>
        <mxCell id="gfOAUn0jvyQyGQVz9nHg-78" value="+ getChom(): Integer" style="text;strokeColor=none;fillColor=none;align=left;verticalAlign=top;spacingLeft=4;spacingRight=4;overflow=hidden;rotatable=0;points=[[0,0.5],[1,0.5]];portConstraint=eastwest;rounded=0;shadow=0;glass=0;sketch=0;" parent="gfOAUn0jvyQyGQVz9nHg-39" vertex="1">
          <mxGeometry y="216" width="365" height="26" as="geometry" />
        </mxCell>
        <mxCell id="gfOAUn0jvyQyGQVz9nHg-79" value="+ getChcm(): Integer" style="text;strokeColor=none;fillColor=none;align=left;verticalAlign=top;spacingLeft=4;spacingRight=4;overflow=hidden;rotatable=0;points=[[0,0.5],[1,0.5]];portConstraint=eastwest;rounded=0;shadow=0;glass=0;sketch=0;" parent="gfOAUn0jvyQyGQVz9nHg-39" vertex="1">
          <mxGeometry y="242" width="365" height="26" as="geometry" />
        </mxCell>
        <mxCell id="gfOAUn0jvyQyGQVz9nHg-80" value="+ getChem(): Integer" style="text;strokeColor=none;fillColor=none;align=left;verticalAlign=top;spacingLeft=4;spacingRight=4;overflow=hidden;rotatable=0;points=[[0,0.5],[1,0.5]];portConstraint=eastwest;rounded=0;shadow=0;glass=0;sketch=0;" parent="gfOAUn0jvyQyGQVz9nHg-39" vertex="1">
          <mxGeometry y="268" width="365" height="26" as="geometry" />
        </mxCell>
        <mxCell id="gfOAUn0jvyQyGQVz9nHg-81" value="+ getChmaxp(): Integer" style="text;strokeColor=none;fillColor=none;align=left;verticalAlign=top;spacingLeft=4;spacingRight=4;overflow=hidden;rotatable=0;points=[[0,0.5],[1,0.5]];portConstraint=eastwest;rounded=0;shadow=0;glass=0;sketch=0;" parent="gfOAUn0jvyQyGQVz9nHg-39" vertex="1">
          <mxGeometry y="294" width="365" height="26" as="geometry" />
        </mxCell>
        <mxCell id="gfOAUn0jvyQyGQVz9nHg-82" value="+ getChminp(): Integer" style="text;strokeColor=none;fillColor=none;align=left;verticalAlign=top;spacingLeft=4;spacingRight=4;overflow=hidden;rotatable=0;points=[[0,0.5],[1,0.5]];portConstraint=eastwest;rounded=0;shadow=0;glass=0;sketch=0;" parent="gfOAUn0jvyQyGQVz9nHg-39" vertex="1">
          <mxGeometry y="320" width="365" height="26" as="geometry" />
        </mxCell>
        <mxCell id="gfOAUn0jvyQyGQVz9nHg-83" value="+ getPrazoMinimo(): Integer" style="text;strokeColor=none;fillColor=none;align=left;verticalAlign=top;spacingLeft=4;spacingRight=4;overflow=hidden;rotatable=0;points=[[0,0.5],[1,0.5]];portConstraint=eastwest;rounded=0;shadow=0;glass=0;sketch=0;" parent="gfOAUn0jvyQyGQVz9nHg-39" vertex="1">
          <mxGeometry y="346" width="365" height="26" as="geometry" />
        </mxCell>
        <mxCell id="gfOAUn0jvyQyGQVz9nHg-84" value="+ getPrazoMaximo(): Integer" style="text;strokeColor=none;fillColor=none;align=left;verticalAlign=top;spacingLeft=4;spacingRight=4;overflow=hidden;rotatable=0;points=[[0,0.5],[1,0.5]];portConstraint=eastwest;rounded=0;shadow=0;glass=0;sketch=0;" parent="gfOAUn0jvyQyGQVz9nHg-39" vertex="1">
          <mxGeometry y="372" width="365" height="26" as="geometry" />
        </mxCell>
        <mxCell id="gfOAUn0jvyQyGQVz9nHg-85" value="+ getPrazoEsperado(): Integer" style="text;strokeColor=none;fillColor=none;align=left;verticalAlign=top;spacingLeft=4;spacingRight=4;overflow=hidden;rotatable=0;points=[[0,0.5],[1,0.5]];portConstraint=eastwest;rounded=0;shadow=0;glass=0;sketch=0;" parent="gfOAUn0jvyQyGQVz9nHg-39" vertex="1">
          <mxGeometry y="398" width="365" height="26" as="geometry" />
        </mxCell>
        <mxCell id="gfOAUn0jvyQyGQVz9nHg-86" value="+ getDisciplinasObrigatorias(): Set&lt;DisciplinaPeriodo&gt;" style="text;strokeColor=none;fillColor=none;align=left;verticalAlign=top;spacingLeft=4;spacingRight=4;overflow=hidden;rotatable=0;points=[[0,0.5],[1,0.5]];portConstraint=eastwest;rounded=0;shadow=0;glass=0;sketch=0;" parent="gfOAUn0jvyQyGQVz9nHg-39" vertex="1">
          <mxGeometry y="424" width="365" height="26" as="geometry" />
        </mxCell>
        <mxCell id="gfOAUn0jvyQyGQVz9nHg-87" value="+ getDisciplinasOptativas(): Set&lt;Disciplina&gt;" style="text;strokeColor=none;fillColor=none;align=left;verticalAlign=top;spacingLeft=4;spacingRight=4;overflow=hidden;rotatable=0;points=[[0,0.5],[1,0.5]];portConstraint=eastwest;rounded=0;shadow=0;glass=0;sketch=0;" parent="gfOAUn0jvyQyGQVz9nHg-39" vertex="1">
          <mxGeometry y="450" width="365" height="26" as="geometry" />
        </mxCell>
        <mxCell id="gfOAUn0jvyQyGQVz9nHg-88" value="+ getDisciplinasObrigatoriasEspecificas(): Set&lt;DisciplinaPeriodo&gt;" style="text;strokeColor=none;fillColor=none;align=left;verticalAlign=top;spacingLeft=4;spacingRight=4;overflow=hidden;rotatable=0;points=[[0,0.5],[1,0.5]];portConstraint=eastwest;rounded=0;shadow=0;glass=0;sketch=0;" parent="gfOAUn0jvyQyGQVz9nHg-39" vertex="1">
          <mxGeometry y="476" width="365" height="26" as="geometry" />
        </mxCell>
        <mxCell id="gfOAUn0jvyQyGQVz9nHg-89" value="+ adicionarDisciplinaObrigatoria(d: DisciplinaPeriodo): void" style="text;strokeColor=none;fillColor=none;align=left;verticalAlign=top;spacingLeft=4;spacingRight=4;overflow=hidden;rotatable=0;points=[[0,0.5],[1,0.5]];portConstraint=eastwest;rounded=0;shadow=0;glass=0;sketch=0;" parent="gfOAUn0jvyQyGQVz9nHg-39" vertex="1">
          <mxGeometry y="502" width="365" height="26" as="geometry" />
        </mxCell>
        <mxCell id="gfOAUn0jvyQyGQVz9nHg-122" style="edgeStyle=orthogonalEdgeStyle;rounded=0;orthogonalLoop=1;jettySize=auto;html=1;startArrow=none;startFill=0;endArrow=block;endFill=0;startSize=10;endSize=13;strokeWidth=1;entryX=0;entryY=0.5;entryDx=0;entryDy=0;" parent="4YbHcTSw7GYD6oy9PYmn-1" source="gfOAUn0jvyQyGQVz9nHg-43" target="nBXeb73iau6scM9RavGL-14" edge="1">
          <mxGeometry relative="1" as="geometry">
            <mxPoint x="600" y="360" as="targetPoint" />
            <Array as="points">
              <mxPoint x="310" y="1830" />
              <mxPoint x="310" y="325" />
            </Array>
          </mxGeometry>
        </mxCell>
        <mxCell id="gfOAUn0jvyQyGQVz9nHg-124" style="edgeStyle=orthogonalEdgeStyle;rounded=0;orthogonalLoop=1;jettySize=auto;html=1;startArrow=none;startFill=0;endArrow=open;endFill=0;startSize=10;endSize=10;strokeWidth=1;entryX=0.485;entryY=1.014;entryDx=0;entryDy=0;entryPerimeter=0;" parent="4YbHcTSw7GYD6oy9PYmn-1" source="gfOAUn0jvyQyGQVz9nHg-43" target="gfOAUn0jvyQyGQVz9nHg-109" edge="1">
          <mxGeometry relative="1" as="geometry">
            <mxPoint x="760" y="1590" as="targetPoint" />
            <Array as="points">
              <mxPoint x="529" y="1789" />
            </Array>
          </mxGeometry>
        </mxCell>
        <mxCell id="gfOAUn0jvyQyGQVz9nHg-125" style="edgeStyle=orthogonalEdgeStyle;rounded=0;orthogonalLoop=1;jettySize=auto;html=1;startArrow=none;startFill=0;endArrow=open;endFill=0;startSize=10;endSize=10;strokeWidth=1;entryX=0.5;entryY=1;entryDx=0;entryDy=0;" parent="4YbHcTSw7GYD6oy9PYmn-1" source="gfOAUn0jvyQyGQVz9nHg-43" target="gfOAUn0jvyQyGQVz9nHg-64" edge="1">
          <mxGeometry relative="1" as="geometry">
            <mxPoint x="770" y="1330" as="targetPoint" />
            <Array as="points">
              <mxPoint x="720" y="1760" />
            </Array>
          </mxGeometry>
        </mxCell>
        <mxCell id="gfOAUn0jvyQyGQVz9nHg-43" value="PlanoCurso" style="swimlane;fontStyle=1;align=center;verticalAlign=top;childLayout=stackLayout;horizontal=1;startSize=26;horizontalStack=0;resizeParent=1;resizeParentMax=0;resizeLast=0;collapsible=1;marginBottom=0;rounded=0;shadow=0;glass=0;sketch=0;" parent="4YbHcTSw7GYD6oy9PYmn-1" vertex="1">
          <mxGeometry x="917.5" y="1720" width="265" height="138" as="geometry" />
        </mxCell>
        <mxCell id="gfOAUn0jvyQyGQVz9nHg-44" value="- id: Long" style="text;strokeColor=none;fillColor=none;align=left;verticalAlign=top;spacingLeft=4;spacingRight=4;overflow=hidden;rotatable=0;points=[[0,0.5],[1,0.5]];portConstraint=eastwest;rounded=0;shadow=0;glass=0;sketch=0;" parent="gfOAUn0jvyQyGQVz9nHg-43" vertex="1">
          <mxGeometry y="26" width="265" height="26" as="geometry" />
        </mxCell>
        <mxCell id="gfOAUn0jvyQyGQVz9nHg-45" value="- disciplinasCursadas: Set&lt;DisciplinaPeriodo&gt;" style="text;strokeColor=none;fillColor=none;align=left;verticalAlign=top;spacingLeft=4;spacingRight=4;overflow=hidden;rotatable=0;points=[[0,0.5],[1,0.5]];portConstraint=eastwest;rounded=0;shadow=0;glass=0;sketch=0;" parent="gfOAUn0jvyQyGQVz9nHg-43" vertex="1">
          <mxGeometry y="52" width="265" height="26" as="geometry" />
        </mxCell>
        <mxCell id="gfOAUn0jvyQyGQVz9nHg-96" value="- disciplinasPendentes: Set&lt;DisciplinaPeriodo&gt;" style="text;strokeColor=none;fillColor=none;align=left;verticalAlign=top;spacingLeft=4;spacingRight=4;overflow=hidden;rotatable=0;points=[[0,0.5],[1,0.5]];portConstraint=eastwest;rounded=0;shadow=0;glass=0;sketch=0;" parent="gfOAUn0jvyQyGQVz9nHg-43" vertex="1">
          <mxGeometry y="78" width="265" height="26" as="geometry" />
        </mxCell>
        <mxCell id="gfOAUn0jvyQyGQVz9nHg-97" value="- pesInteresse: Set&lt;Pes&gt;" style="text;strokeColor=none;fillColor=none;align=left;verticalAlign=top;spacingLeft=4;spacingRight=4;overflow=hidden;rotatable=0;points=[[0,0.5],[1,0.5]];portConstraint=eastwest;rounded=0;shadow=0;glass=0;sketch=0;" parent="gfOAUn0jvyQyGQVz9nHg-43" vertex="1">
          <mxGeometry y="104" width="265" height="26" as="geometry" />
        </mxCell>
        <mxCell id="gfOAUn0jvyQyGQVz9nHg-46" value="" style="line;strokeWidth=1;fillColor=none;align=left;verticalAlign=middle;spacingTop=-1;spacingLeft=3;spacingRight=3;rotatable=0;labelPosition=right;points=[];portConstraint=eastwest;rounded=0;shadow=0;glass=0;sketch=0;" parent="gfOAUn0jvyQyGQVz9nHg-43" vertex="1">
          <mxGeometry y="130" width="265" height="8" as="geometry" />
        </mxCell>
        <mxCell id="gfOAUn0jvyQyGQVz9nHg-120" style="edgeStyle=orthogonalEdgeStyle;rounded=0;orthogonalLoop=1;jettySize=auto;html=1;startArrow=none;startFill=0;endArrow=block;endFill=0;startSize=10;endSize=13;strokeWidth=1;entryX=0;entryY=0.5;entryDx=0;entryDy=0;" parent="4YbHcTSw7GYD6oy9PYmn-1" source="gfOAUn0jvyQyGQVz9nHg-64" target="nBXeb73iau6scM9RavGL-18" edge="1">
          <mxGeometry relative="1" as="geometry">
            <mxPoint x="550" y="800" as="targetPoint" />
            <Array as="points">
              <mxPoint x="580" y="926" />
              <mxPoint x="580" y="489" />
            </Array>
          </mxGeometry>
        </mxCell>
        <mxCell id="gfOAUn0jvyQyGQVz9nHg-121" style="edgeStyle=orthogonalEdgeStyle;rounded=0;orthogonalLoop=1;jettySize=auto;html=1;entryX=0.5;entryY=1;entryDx=0;entryDy=0;startArrow=none;startFill=0;endArrow=open;endFill=0;startSize=10;endSize=10;strokeWidth=1;" parent="4YbHcTSw7GYD6oy9PYmn-1" source="gfOAUn0jvyQyGQVz9nHg-64" target="gfOAUn0jvyQyGQVz9nHg-68" edge="1">
          <mxGeometry relative="1" as="geometry" />
        </mxCell>
        <mxCell id="gfOAUn0jvyQyGQVz9nHg-64" value="DisciplinaPeriodo" style="swimlane;fontStyle=1;align=center;verticalAlign=top;childLayout=stackLayout;horizontal=1;startSize=26;horizontalStack=0;resizeParent=1;resizeParentMax=0;resizeLast=0;collapsible=1;marginBottom=0;rounded=0;shadow=0;glass=0;sketch=0;" parent="4YbHcTSw7GYD6oy9PYmn-1" vertex="1">
          <mxGeometry x="640" y="870" width="160" height="112" as="geometry" />
        </mxCell>
        <mxCell id="gfOAUn0jvyQyGQVz9nHg-65" value="- id: Long" style="text;strokeColor=none;fillColor=none;align=left;verticalAlign=top;spacingLeft=4;spacingRight=4;overflow=hidden;rotatable=0;points=[[0,0.5],[1,0.5]];portConstraint=eastwest;rounded=0;shadow=0;glass=0;sketch=0;" parent="gfOAUn0jvyQyGQVz9nHg-64" vertex="1">
          <mxGeometry y="26" width="160" height="26" as="geometry" />
        </mxCell>
        <mxCell id="gfOAUn0jvyQyGQVz9nHg-66" value="- disciplina: Disciplina" style="text;strokeColor=none;fillColor=none;align=left;verticalAlign=top;spacingLeft=4;spacingRight=4;overflow=hidden;rotatable=0;points=[[0,0.5],[1,0.5]];portConstraint=eastwest;rounded=0;shadow=0;glass=0;sketch=0;" parent="gfOAUn0jvyQyGQVz9nHg-64" vertex="1">
          <mxGeometry y="52" width="160" height="26" as="geometry" />
        </mxCell>
        <mxCell id="gfOAUn0jvyQyGQVz9nHg-95" value="- periodo: Integer" style="text;strokeColor=none;fillColor=none;align=left;verticalAlign=top;spacingLeft=4;spacingRight=4;overflow=hidden;rotatable=0;points=[[0,0.5],[1,0.5]];portConstraint=eastwest;rounded=0;shadow=0;glass=0;sketch=0;" parent="gfOAUn0jvyQyGQVz9nHg-64" vertex="1">
          <mxGeometry y="78" width="160" height="26" as="geometry" />
        </mxCell>
        <mxCell id="gfOAUn0jvyQyGQVz9nHg-67" value="" style="line;strokeWidth=1;fillColor=none;align=left;verticalAlign=middle;spacingTop=-1;spacingLeft=3;spacingRight=3;rotatable=0;labelPosition=right;points=[];portConstraint=eastwest;rounded=0;shadow=0;glass=0;sketch=0;" parent="gfOAUn0jvyQyGQVz9nHg-64" vertex="1">
          <mxGeometry y="104" width="160" height="8" as="geometry" />
        </mxCell>
        <mxCell id="gfOAUn0jvyQyGQVz9nHg-119" style="edgeStyle=orthogonalEdgeStyle;rounded=0;orthogonalLoop=1;jettySize=auto;html=1;entryX=0.502;entryY=0.999;entryDx=0;entryDy=0;entryPerimeter=0;startArrow=none;startFill=0;endArrow=block;endFill=0;startSize=10;endSize=13;strokeWidth=1;" parent="4YbHcTSw7GYD6oy9PYmn-1" source="gfOAUn0jvyQyGQVz9nHg-68" target="nBXeb73iau6scM9RavGL-18" edge="1">
          <mxGeometry relative="1" as="geometry" />
        </mxCell>
        <mxCell id="gfOAUn0jvyQyGQVz9nHg-68" value="Disciplina" style="swimlane;fontStyle=1;align=center;verticalAlign=top;childLayout=stackLayout;horizontal=1;startSize=26;horizontalStack=0;resizeParent=1;resizeParentMax=0;resizeLast=0;collapsible=1;marginBottom=0;rounded=0;shadow=0;glass=0;sketch=0;" parent="4YbHcTSw7GYD6oy9PYmn-1" vertex="1">
          <mxGeometry x="640" y="630" width="160" height="190" as="geometry" />
        </mxCell>
        <mxCell id="gfOAUn0jvyQyGQVz9nHg-69" value="- id: Long" style="text;strokeColor=none;fillColor=none;align=left;verticalAlign=top;spacingLeft=4;spacingRight=4;overflow=hidden;rotatable=0;points=[[0,0.5],[1,0.5]];portConstraint=eastwest;rounded=0;shadow=0;glass=0;sketch=0;" parent="gfOAUn0jvyQyGQVz9nHg-68" vertex="1">
          <mxGeometry y="26" width="160" height="26" as="geometry" />
        </mxCell>
        <mxCell id="gfOAUn0jvyQyGQVz9nHg-70" value="- codigo: String" style="text;strokeColor=none;fillColor=none;align=left;verticalAlign=top;spacingLeft=4;spacingRight=4;overflow=hidden;rotatable=0;points=[[0,0.5],[1,0.5]];portConstraint=eastwest;rounded=0;shadow=0;glass=0;sketch=0;" parent="gfOAUn0jvyQyGQVz9nHg-68" vertex="1">
          <mxGeometry y="52" width="160" height="26" as="geometry" />
        </mxCell>
        <mxCell id="gfOAUn0jvyQyGQVz9nHg-91" value="- nome: String" style="text;strokeColor=none;fillColor=none;align=left;verticalAlign=top;spacingLeft=4;spacingRight=4;overflow=hidden;rotatable=0;points=[[0,0.5],[1,0.5]];portConstraint=eastwest;rounded=0;shadow=0;glass=0;sketch=0;" parent="gfOAUn0jvyQyGQVz9nHg-68" vertex="1">
          <mxGeometry y="78" width="160" height="26" as="geometry" />
        </mxCell>
        <mxCell id="gfOAUn0jvyQyGQVz9nHg-92" value="- prerequisitos: String" style="text;strokeColor=none;fillColor=none;align=left;verticalAlign=top;spacingLeft=4;spacingRight=4;overflow=hidden;rotatable=0;points=[[0,0.5],[1,0.5]];portConstraint=eastwest;rounded=0;shadow=0;glass=0;sketch=0;" parent="gfOAUn0jvyQyGQVz9nHg-68" vertex="1">
          <mxGeometry y="104" width="160" height="26" as="geometry" />
        </mxCell>
        <mxCell id="gfOAUn0jvyQyGQVz9nHg-93" value="- corequisitos: String" style="text;strokeColor=none;fillColor=none;align=left;verticalAlign=top;spacingLeft=4;spacingRight=4;overflow=hidden;rotatable=0;points=[[0,0.5],[1,0.5]];portConstraint=eastwest;rounded=0;shadow=0;glass=0;sketch=0;" parent="gfOAUn0jvyQyGQVz9nHg-68" vertex="1">
          <mxGeometry y="130" width="160" height="26" as="geometry" />
        </mxCell>
        <mxCell id="gfOAUn0jvyQyGQVz9nHg-94" value="- equivalentes: String" style="text;strokeColor=none;fillColor=none;align=left;verticalAlign=top;spacingLeft=4;spacingRight=4;overflow=hidden;rotatable=0;points=[[0,0.5],[1,0.5]];portConstraint=eastwest;rounded=0;shadow=0;glass=0;sketch=0;" parent="gfOAUn0jvyQyGQVz9nHg-68" vertex="1">
          <mxGeometry y="156" width="160" height="26" as="geometry" />
        </mxCell>
        <mxCell id="gfOAUn0jvyQyGQVz9nHg-71" value="" style="line;strokeWidth=1;fillColor=none;align=left;verticalAlign=middle;spacingTop=-1;spacingLeft=3;spacingRight=3;rotatable=0;labelPosition=right;points=[];portConstraint=eastwest;rounded=0;shadow=0;glass=0;sketch=0;" parent="gfOAUn0jvyQyGQVz9nHg-68" vertex="1">
          <mxGeometry y="182" width="160" height="8" as="geometry" />
        </mxCell>
        <mxCell id="gfOAUn0jvyQyGQVz9nHg-123" style="edgeStyle=orthogonalEdgeStyle;rounded=0;orthogonalLoop=1;jettySize=auto;html=1;startArrow=none;startFill=0;endArrow=block;endFill=0;startSize=10;endSize=13;strokeWidth=1;entryX=0;entryY=0.5;entryDx=0;entryDy=0;exitX=0;exitY=0.5;exitDx=0;exitDy=0;" parent="4YbHcTSw7GYD6oy9PYmn-1" source="gfOAUn0jvyQyGQVz9nHg-105" target="nBXeb73iau6scM9RavGL-8" edge="1">
          <mxGeometry relative="1" as="geometry">
            <mxPoint x="500" y="730" as="targetPoint" />
            <Array as="points">
              <mxPoint x="350" y="1257" />
              <mxPoint x="350" y="411" />
            </Array>
          </mxGeometry>
        </mxCell>
        <mxCell id="gfOAUn0jvyQyGQVz9nHg-98" value="Pes" style="swimlane;fontStyle=1;align=center;verticalAlign=top;childLayout=stackLayout;horizontal=1;startSize=26;horizontalStack=0;resizeParent=1;resizeParentMax=0;resizeLast=0;collapsible=1;marginBottom=0;rounded=0;shadow=0;glass=0;sketch=0;" parent="4YbHcTSw7GYD6oy9PYmn-1" vertex="1">
          <mxGeometry x="390" y="1140" width="287.5" height="242" as="geometry" />
        </mxCell>
        <mxCell id="gfOAUn0jvyQyGQVz9nHg-99" value="- id: Long" style="text;strokeColor=none;fillColor=none;align=left;verticalAlign=top;spacingLeft=4;spacingRight=4;overflow=hidden;rotatable=0;points=[[0,0.5],[1,0.5]];portConstraint=eastwest;rounded=0;shadow=0;glass=0;sketch=0;" parent="gfOAUn0jvyQyGQVz9nHg-98" vertex="1">
          <mxGeometry y="26" width="287.5" height="26" as="geometry" />
        </mxCell>
        <mxCell id="gfOAUn0jvyQyGQVz9nHg-100" value="- nome: String" style="text;strokeColor=none;fillColor=none;align=left;verticalAlign=top;spacingLeft=4;spacingRight=4;overflow=hidden;rotatable=0;points=[[0,0.5],[1,0.5]];portConstraint=eastwest;rounded=0;shadow=0;glass=0;sketch=0;" parent="gfOAUn0jvyQyGQVz9nHg-98" vertex="1">
          <mxGeometry y="52" width="287.5" height="26" as="geometry" />
        </mxCell>
        <mxCell id="gfOAUn0jvyQyGQVz9nHg-104" value="- chm: Integer" style="text;strokeColor=none;fillColor=none;align=left;verticalAlign=top;spacingLeft=4;spacingRight=4;overflow=hidden;rotatable=0;points=[[0,0.5],[1,0.5]];portConstraint=eastwest;rounded=0;shadow=0;glass=0;sketch=0;" parent="gfOAUn0jvyQyGQVz9nHg-98" vertex="1">
          <mxGeometry y="78" width="287.5" height="26" as="geometry" />
        </mxCell>
        <mxCell id="gfOAUn0jvyQyGQVz9nHg-105" value="- cho: Integer" style="text;strokeColor=none;fillColor=none;align=left;verticalAlign=top;spacingLeft=4;spacingRight=4;overflow=hidden;rotatable=0;points=[[0,0.5],[1,0.5]];portConstraint=eastwest;rounded=0;shadow=0;glass=0;sketch=0;" parent="gfOAUn0jvyQyGQVz9nHg-98" vertex="1">
          <mxGeometry y="104" width="287.5" height="26" as="geometry" />
        </mxCell>
        <mxCell id="gfOAUn0jvyQyGQVz9nHg-106" value="- disciplinasObrigatorias: Set&lt;Disciplina&gt;" style="text;strokeColor=none;fillColor=none;align=left;verticalAlign=top;spacingLeft=4;spacingRight=4;overflow=hidden;rotatable=0;points=[[0,0.5],[1,0.5]];portConstraint=eastwest;rounded=0;shadow=0;glass=0;sketch=0;" parent="gfOAUn0jvyQyGQVz9nHg-98" vertex="1">
          <mxGeometry y="130" width="287.5" height="26" as="geometry" />
        </mxCell>
        <mxCell id="gfOAUn0jvyQyGQVz9nHg-107" value="- disciplinasOptativas: Set&lt;Disciplina&gt;" style="text;strokeColor=none;fillColor=none;align=left;verticalAlign=top;spacingLeft=4;spacingRight=4;overflow=hidden;rotatable=0;points=[[0,0.5],[1,0.5]];portConstraint=eastwest;rounded=0;shadow=0;glass=0;sketch=0;" parent="gfOAUn0jvyQyGQVz9nHg-98" vertex="1">
          <mxGeometry y="156" width="287.5" height="26" as="geometry" />
        </mxCell>
        <mxCell id="gfOAUn0jvyQyGQVz9nHg-103" value="" style="line;strokeWidth=1;fillColor=none;align=left;verticalAlign=middle;spacingTop=-1;spacingLeft=3;spacingRight=3;rotatable=0;labelPosition=right;points=[];portConstraint=eastwest;rounded=0;shadow=0;glass=0;sketch=0;" parent="gfOAUn0jvyQyGQVz9nHg-98" vertex="1">
          <mxGeometry y="182" width="287.5" height="8" as="geometry" />
        </mxCell>
        <mxCell id="gfOAUn0jvyQyGQVz9nHg-108" value="+ adicionarDisciplinaObrigatoria(d: Disciplina): void" style="text;strokeColor=none;fillColor=none;align=left;verticalAlign=top;spacingLeft=4;spacingRight=4;overflow=hidden;rotatable=0;points=[[0,0.5],[1,0.5]];portConstraint=eastwest;rounded=0;shadow=0;glass=0;sketch=0;" parent="gfOAUn0jvyQyGQVz9nHg-98" vertex="1">
          <mxGeometry y="190" width="287.5" height="26" as="geometry" />
        </mxCell>
        <mxCell id="gfOAUn0jvyQyGQVz9nHg-109" value="+ adicionarDisciplinaOptativa(d: Disciplina): void" style="text;strokeColor=none;fillColor=none;align=left;verticalAlign=top;spacingLeft=4;spacingRight=4;overflow=hidden;rotatable=0;points=[[0,0.5],[1,0.5]];portConstraint=eastwest;rounded=0;shadow=0;glass=0;sketch=0;" parent="gfOAUn0jvyQyGQVz9nHg-98" vertex="1">
          <mxGeometry y="216" width="287.5" height="26" as="geometry" />
        </mxCell>
      </root>
    </mxGraphModel>
  </diagram>
  <diagram id="3Yb0Prs-KQutdPbAUNOp" name="Framework">
    <mxGraphModel dx="1235" dy="752" grid="1" gridSize="10" guides="1" tooltips="1" connect="1" arrows="1" fold="1" page="1" pageScale="1" pageWidth="827" pageHeight="1169" math="0" shadow="0">
      <root>
        <mxCell id="LlKW5JMFKi0ohFRiEqWP-0" />
        <mxCell id="LlKW5JMFKi0ohFRiEqWP-1" parent="LlKW5JMFKi0ohFRiEqWP-0" />
        <mxCell id="kt_uRmSC-czKB4jiJnjr-0" value="&lt;&lt;abstract&gt;&gt;&#xa;ModeloAbstrato" style="swimlane;fontStyle=1;align=center;verticalAlign=middle;childLayout=stackLayout;horizontal=1;startSize=26;horizontalStack=0;resizeParent=1;resizeParentMax=0;resizeLast=0;collapsible=1;marginBottom=0;rounded=0;shadow=0;glass=0;sketch=0;whiteSpace=wrap;" vertex="1" parent="LlKW5JMFKi0ohFRiEqWP-1">
          <mxGeometry x="1000" y="268" width="200" height="130" as="geometry" />
        </mxCell>
        <mxCell id="kt_uRmSC-czKB4jiJnjr-1" value="- dataCriacao: LocalDateTime" style="text;strokeColor=none;fillColor=none;align=left;verticalAlign=top;spacingLeft=4;spacingRight=4;overflow=hidden;rotatable=0;points=[[0,0.5],[1,0.5]];portConstraint=eastwest;rounded=1;shadow=0;glass=0;sketch=0;" vertex="1" parent="kt_uRmSC-czKB4jiJnjr-0">
          <mxGeometry y="26" width="200" height="26" as="geometry" />
        </mxCell>
        <mxCell id="kt_uRmSC-czKB4jiJnjr-2" value="- dataModificacao: LocalDateTime" style="text;strokeColor=none;fillColor=none;align=left;verticalAlign=top;spacingLeft=4;spacingRight=4;overflow=hidden;rotatable=0;points=[[0,0.5],[1,0.5]];portConstraint=eastwest;rounded=1;shadow=0;glass=0;sketch=0;" vertex="1" parent="kt_uRmSC-czKB4jiJnjr-0">
          <mxGeometry y="52" width="200" height="26" as="geometry" />
        </mxCell>
        <mxCell id="kt_uRmSC-czKB4jiJnjr-3" value="- dataExclusao: LocalDateTime" style="text;strokeColor=none;fillColor=none;align=left;verticalAlign=top;spacingLeft=4;spacingRight=4;overflow=hidden;rotatable=0;points=[[0,0.5],[1,0.5]];portConstraint=eastwest;rounded=1;shadow=0;glass=0;sketch=0;" vertex="1" parent="kt_uRmSC-czKB4jiJnjr-0">
          <mxGeometry y="78" width="200" height="26" as="geometry" />
        </mxCell>
        <mxCell id="kt_uRmSC-czKB4jiJnjr-4" value="- ativo: Boolean" style="text;strokeColor=none;fillColor=none;align=left;verticalAlign=top;spacingLeft=4;spacingRight=4;overflow=hidden;rotatable=0;points=[[0,0.5],[1,0.5]];portConstraint=eastwest;rounded=1;shadow=0;glass=0;sketch=0;" vertex="1" parent="kt_uRmSC-czKB4jiJnjr-0">
          <mxGeometry y="104" width="200" height="26" as="geometry" />
        </mxCell>
        <mxCell id="kt_uRmSC-czKB4jiJnjr-10" style="edgeStyle=orthogonalEdgeStyle;rounded=0;orthogonalLoop=1;jettySize=auto;html=1;entryX=0.5;entryY=0;entryDx=0;entryDy=0;strokeWidth=1;endArrow=block;endFill=0;startSize=6;endSize=13;" edge="1" parent="LlKW5JMFKi0ohFRiEqWP-1" source="kt_uRmSC-czKB4jiJnjr-11" target="kt_uRmSC-czKB4jiJnjr-0">
          <mxGeometry relative="1" as="geometry" />
        </mxCell>
        <mxCell id="kt_uRmSC-czKB4jiJnjr-11" value="Usuario" style="swimlane;fontStyle=1;align=center;verticalAlign=top;childLayout=stackLayout;horizontal=1;startSize=26;horizontalStack=0;resizeParent=1;resizeParentMax=0;resizeLast=0;collapsible=1;marginBottom=0;rounded=0;shadow=0;glass=0;sketch=0;" vertex="1" parent="LlKW5JMFKi0ohFRiEqWP-1">
          <mxGeometry x="1020" y="120" width="160" height="104" as="geometry" />
        </mxCell>
        <mxCell id="kt_uRmSC-czKB4jiJnjr-12" value="# nome: String" style="text;strokeColor=none;fillColor=none;align=left;verticalAlign=top;spacingLeft=4;spacingRight=4;overflow=hidden;rotatable=0;points=[[0,0.5],[1,0.5]];portConstraint=eastwest;rounded=0;shadow=0;glass=0;sketch=0;" vertex="1" parent="kt_uRmSC-czKB4jiJnjr-11">
          <mxGeometry y="26" width="160" height="26" as="geometry" />
        </mxCell>
        <mxCell id="kt_uRmSC-czKB4jiJnjr-13" value="# email: String" style="text;strokeColor=none;fillColor=none;align=left;verticalAlign=top;spacingLeft=4;spacingRight=4;overflow=hidden;rotatable=0;points=[[0,0.5],[1,0.5]];portConstraint=eastwest;rounded=0;shadow=0;glass=0;sketch=0;" vertex="1" parent="kt_uRmSC-czKB4jiJnjr-11">
          <mxGeometry y="52" width="160" height="26" as="geometry" />
        </mxCell>
        <mxCell id="kt_uRmSC-czKB4jiJnjr-14" value="# senha: String" style="text;strokeColor=none;fillColor=none;align=left;verticalAlign=top;spacingLeft=4;spacingRight=4;overflow=hidden;rotatable=0;points=[[0,0.5],[1,0.5]];portConstraint=eastwest;rounded=0;shadow=0;glass=0;sketch=0;" vertex="1" parent="kt_uRmSC-czKB4jiJnjr-11">
          <mxGeometry y="78" width="160" height="26" as="geometry" />
        </mxCell>
        <mxCell id="kt_uRmSC-czKB4jiJnjr-16" style="edgeStyle=orthogonalEdgeStyle;rounded=0;orthogonalLoop=1;jettySize=auto;html=1;entryX=0.5;entryY=0;entryDx=0;entryDy=0;endArrow=block;endFill=0;startSize=6;endSize=13;strokeWidth=1;" edge="1" parent="LlKW5JMFKi0ohFRiEqWP-1" source="kt_uRmSC-czKB4jiJnjr-17" target="kt_uRmSC-czKB4jiJnjr-11">
          <mxGeometry relative="1" as="geometry" />
        </mxCell>
        <mxCell id="kt_uRmSC-czKB4jiJnjr-17" value="Administrador" style="swimlane;fontStyle=1;align=center;verticalAlign=top;childLayout=stackLayout;horizontal=1;startSize=26;horizontalStack=0;resizeParent=1;resizeParentMax=0;resizeLast=0;collapsible=1;marginBottom=0;rounded=0;shadow=0;glass=0;sketch=0;" vertex="1" parent="LlKW5JMFKi0ohFRiEqWP-1">
          <mxGeometry x="1020" y="30" width="160" height="52" as="geometry" />
        </mxCell>
        <mxCell id="kt_uRmSC-czKB4jiJnjr-18" value="- id: Long" style="text;strokeColor=none;fillColor=none;align=left;verticalAlign=top;spacingLeft=4;spacingRight=4;overflow=hidden;rotatable=0;points=[[0,0.5],[1,0.5]];portConstraint=eastwest;rounded=0;shadow=0;glass=0;sketch=0;" vertex="1" parent="kt_uRmSC-czKB4jiJnjr-17">
          <mxGeometry y="26" width="160" height="26" as="geometry" />
        </mxCell>
        <mxCell id="kt_uRmSC-czKB4jiJnjr-20" style="edgeStyle=orthogonalEdgeStyle;rounded=0;orthogonalLoop=1;jettySize=auto;html=1;entryX=1;entryY=0.5;entryDx=0;entryDy=0;endArrow=block;endFill=0;startSize=6;endSize=13;strokeWidth=1;" edge="1" parent="LlKW5JMFKi0ohFRiEqWP-1" source="kt_uRmSC-czKB4jiJnjr-22" target="kt_uRmSC-czKB4jiJnjr-13">
          <mxGeometry relative="1" as="geometry" />
        </mxCell>
        <mxCell id="kt_uRmSC-czKB4jiJnjr-21" style="edgeStyle=orthogonalEdgeStyle;rounded=0;orthogonalLoop=1;jettySize=auto;html=1;endArrow=open;endFill=0;startSize=10;endSize=10;strokeWidth=1;startArrow=open;startFill=0;" edge="1" parent="LlKW5JMFKi0ohFRiEqWP-1" source="kt_uRmSC-czKB4jiJnjr-22" target="kt_uRmSC-czKB4jiJnjr-30">
          <mxGeometry relative="1" as="geometry" />
        </mxCell>
        <mxCell id="kt_uRmSC-czKB4jiJnjr-22" value="Estudante" style="swimlane;fontStyle=1;align=center;verticalAlign=top;childLayout=stackLayout;horizontal=1;startSize=26;horizontalStack=0;resizeParent=1;resizeParentMax=0;resizeLast=0;collapsible=1;marginBottom=0;rounded=0;shadow=0;glass=0;sketch=0;" vertex="1" parent="LlKW5JMFKi0ohFRiEqWP-1">
          <mxGeometry x="1345" y="146" width="160" height="78" as="geometry" />
        </mxCell>
        <mxCell id="kt_uRmSC-czKB4jiJnjr-23" value="- id: Long" style="text;strokeColor=none;fillColor=none;align=left;verticalAlign=top;spacingLeft=4;spacingRight=4;overflow=hidden;rotatable=0;points=[[0,0.5],[1,0.5]];portConstraint=eastwest;rounded=0;shadow=0;glass=0;sketch=0;" vertex="1" parent="kt_uRmSC-czKB4jiJnjr-22">
          <mxGeometry y="26" width="160" height="26" as="geometry" />
        </mxCell>
        <mxCell id="kt_uRmSC-czKB4jiJnjr-24" value="- vinculos: Set&lt;Vinculo&gt;" style="text;strokeColor=none;fillColor=none;align=left;verticalAlign=top;spacingLeft=4;spacingRight=4;overflow=hidden;rotatable=0;points=[[0,0.5],[1,0.5]];portConstraint=eastwest;rounded=0;shadow=0;glass=0;sketch=0;" vertex="1" parent="kt_uRmSC-czKB4jiJnjr-22">
          <mxGeometry y="52" width="160" height="26" as="geometry" />
        </mxCell>
        <mxCell id="kt_uRmSC-czKB4jiJnjr-26" style="edgeStyle=orthogonalEdgeStyle;rounded=0;orthogonalLoop=1;jettySize=auto;html=1;endArrow=block;endFill=0;startSize=10;endSize=13;strokeWidth=1;entryX=1;entryY=0.5;entryDx=0;entryDy=0;" edge="1" parent="LlKW5JMFKi0ohFRiEqWP-1" source="kt_uRmSC-czKB4jiJnjr-30" target="kt_uRmSC-czKB4jiJnjr-2">
          <mxGeometry relative="1" as="geometry">
            <mxPoint x="1207" y="333" as="targetPoint" />
          </mxGeometry>
        </mxCell>
        <mxCell id="kt_uRmSC-czKB4jiJnjr-27" style="edgeStyle=orthogonalEdgeStyle;rounded=0;orthogonalLoop=1;jettySize=auto;html=1;entryX=0.5;entryY=0;entryDx=0;entryDy=0;startArrow=none;startFill=0;endArrow=open;endFill=0;startSize=10;endSize=10;strokeWidth=1;" edge="1" parent="LlKW5JMFKi0ohFRiEqWP-1" source="kt_uRmSC-czKB4jiJnjr-30" target="kt_uRmSC-czKB4jiJnjr-46">
          <mxGeometry relative="1" as="geometry" />
        </mxCell>
        <mxCell id="kt_uRmSC-czKB4jiJnjr-29" style="edgeStyle=orthogonalEdgeStyle;rounded=0;orthogonalLoop=1;jettySize=auto;html=1;startArrow=none;startFill=0;endArrow=open;endFill=0;startSize=10;endSize=10;strokeWidth=1;entryX=1;entryY=0.5;entryDx=0;entryDy=0;" edge="1" parent="LlKW5JMFKi0ohFRiEqWP-1" source="kt_uRmSC-czKB4jiJnjr-30" target="kt_uRmSC-czKB4jiJnjr-93">
          <mxGeometry relative="1" as="geometry">
            <mxPoint x="1767" y="1454" as="targetPoint" />
            <Array as="points">
              <mxPoint x="1610" y="334" />
              <mxPoint x="1610" y="789" />
            </Array>
          </mxGeometry>
        </mxCell>
        <mxCell id="kt_uRmSC-czKB4jiJnjr-30" value="&lt;&lt;interface&gt;&gt;&#xa;Vinculo" style="swimlane;fontStyle=1;align=center;verticalAlign=middle;childLayout=stackLayout;horizontal=1;startSize=26;horizontalStack=0;resizeParent=1;resizeParentMax=0;resizeLast=0;collapsible=1;marginBottom=0;rounded=0;shadow=0;glass=0;sketch=0;" vertex="1" parent="LlKW5JMFKi0ohFRiEqWP-1">
          <mxGeometry x="1325" y="310" width="200" height="156" as="geometry" />
        </mxCell>
        <mxCell id="kt_uRmSC-czKB4jiJnjr-31" value="- id: Long" style="text;strokeColor=none;fillColor=none;align=left;verticalAlign=top;spacingLeft=4;spacingRight=4;overflow=hidden;rotatable=0;points=[[0,0.5],[1,0.5]];portConstraint=eastwest;rounded=0;shadow=0;glass=0;sketch=0;" vertex="1" parent="kt_uRmSC-czKB4jiJnjr-30">
          <mxGeometry y="26" width="200" height="26" as="geometry" />
        </mxCell>
        <mxCell id="kt_uRmSC-czKB4jiJnjr-32" value="- matricula: String" style="text;strokeColor=none;fillColor=none;align=left;verticalAlign=top;spacingLeft=4;spacingRight=4;overflow=hidden;rotatable=0;points=[[0,0.5],[1,0.5]];portConstraint=eastwest;rounded=0;shadow=0;glass=0;sketch=0;" vertex="1" parent="kt_uRmSC-czKB4jiJnjr-30">
          <mxGeometry y="52" width="200" height="26" as="geometry" />
        </mxCell>
        <mxCell id="kt_uRmSC-czKB4jiJnjr-37" value="- gradeCurricular: GradeCurricular" style="text;strokeColor=none;fillColor=none;align=left;verticalAlign=top;spacingLeft=4;spacingRight=4;overflow=hidden;rotatable=0;points=[[0,0.5],[1,0.5]];portConstraint=eastwest;rounded=0;shadow=0;glass=0;sketch=0;" vertex="1" parent="kt_uRmSC-czKB4jiJnjr-30">
          <mxGeometry y="78" width="200" height="26" as="geometry" />
        </mxCell>
        <mxCell id="kt_uRmSC-czKB4jiJnjr-39" value="- planoCurso: PlanoCurso" style="text;strokeColor=none;fillColor=none;align=left;verticalAlign=top;spacingLeft=4;spacingRight=4;overflow=hidden;rotatable=0;points=[[0,0.5],[1,0.5]];portConstraint=eastwest;rounded=0;shadow=0;glass=0;sketch=0;" vertex="1" parent="kt_uRmSC-czKB4jiJnjr-30">
          <mxGeometry y="104" width="200" height="26" as="geometry" />
        </mxCell>
        <mxCell id="kt_uRmSC-czKB4jiJnjr-40" value="- estudante: Estudante" style="text;strokeColor=none;fillColor=none;align=left;verticalAlign=top;spacingLeft=4;spacingRight=4;overflow=hidden;rotatable=0;points=[[0,0.5],[1,0.5]];portConstraint=eastwest;rounded=0;shadow=0;glass=0;sketch=0;" vertex="1" parent="kt_uRmSC-czKB4jiJnjr-30">
          <mxGeometry y="130" width="200" height="26" as="geometry" />
        </mxCell>
        <mxCell id="kt_uRmSC-czKB4jiJnjr-43" style="edgeStyle=orthogonalEdgeStyle;rounded=0;orthogonalLoop=1;jettySize=auto;html=1;startArrow=none;startFill=0;endArrow=block;endFill=0;startSize=10;endSize=13;strokeWidth=1;entryX=1;entryY=0.5;entryDx=0;entryDy=0;" edge="1" parent="LlKW5JMFKi0ohFRiEqWP-1" source="kt_uRmSC-czKB4jiJnjr-46" target="kt_uRmSC-czKB4jiJnjr-4">
          <mxGeometry relative="1" as="geometry">
            <mxPoint x="1207" y="415" as="targetPoint" />
            <Array as="points">
              <mxPoint x="1247" y="584" />
              <mxPoint x="1247" y="385" />
            </Array>
          </mxGeometry>
        </mxCell>
        <mxCell id="kt_uRmSC-czKB4jiJnjr-44" style="edgeStyle=orthogonalEdgeStyle;rounded=0;orthogonalLoop=1;jettySize=auto;html=1;entryX=1;entryY=0.5;entryDx=0;entryDy=0;startArrow=none;startFill=0;endArrow=open;endFill=0;startSize=10;endSize=10;strokeWidth=1;" edge="1" parent="LlKW5JMFKi0ohFRiEqWP-1" source="kt_uRmSC-czKB4jiJnjr-46" target="kt_uRmSC-czKB4jiJnjr-109">
          <mxGeometry relative="1" as="geometry">
            <Array as="points">
              <mxPoint x="1227" y="631" />
              <mxPoint x="1227" y="631" />
            </Array>
          </mxGeometry>
        </mxCell>
        <mxCell id="kt_uRmSC-czKB4jiJnjr-46" value="&lt;&lt;interface&gt;&gt;&#xa;GradeCurricular" style="swimlane;fontStyle=1;align=center;verticalAlign=middle;childLayout=stackLayout;horizontal=1;startSize=26;horizontalStack=0;resizeParent=1;resizeParentMax=0;resizeLast=0;collapsible=1;marginBottom=0;rounded=0;shadow=0;glass=0;sketch=0;" vertex="1" parent="LlKW5JMFKi0ohFRiEqWP-1">
          <mxGeometry x="1260" y="544" width="330" height="130" as="geometry" />
        </mxCell>
        <mxCell id="kt_uRmSC-czKB4jiJnjr-47" value="- id: Long" style="text;strokeColor=none;fillColor=none;align=left;verticalAlign=top;spacingLeft=4;spacingRight=4;overflow=hidden;rotatable=0;points=[[0,0.5],[1,0.5]];portConstraint=eastwest;rounded=0;shadow=0;glass=0;sketch=0;" vertex="1" parent="kt_uRmSC-czKB4jiJnjr-46">
          <mxGeometry y="26" width="330" height="26" as="geometry" />
        </mxCell>
        <mxCell id="kt_uRmSC-czKB4jiJnjr-48" value="- nome: String" style="text;strokeColor=none;fillColor=none;align=left;verticalAlign=top;spacingLeft=4;spacingRight=4;overflow=hidden;rotatable=0;points=[[0,0.5],[1,0.5]];portConstraint=eastwest;rounded=0;shadow=0;glass=0;sketch=0;" vertex="1" parent="kt_uRmSC-czKB4jiJnjr-46">
          <mxGeometry y="52" width="330" height="26" as="geometry" />
        </mxCell>
        <mxCell id="kt_uRmSC-czKB4jiJnjr-49" value="- chm: Integer" style="text;strokeColor=none;fillColor=none;align=left;verticalAlign=top;spacingLeft=4;spacingRight=4;overflow=hidden;rotatable=0;points=[[0,0.5],[1,0.5]];portConstraint=eastwest;rounded=0;shadow=0;glass=0;sketch=0;" vertex="1" parent="kt_uRmSC-czKB4jiJnjr-46">
          <mxGeometry y="78" width="330" height="26" as="geometry" />
        </mxCell>
        <mxCell id="kt_uRmSC-czKB4jiJnjr-60" value="- disciplinas: Set&lt;UnidadeConhecimento&gt;" style="text;strokeColor=none;fillColor=none;align=left;verticalAlign=top;spacingLeft=4;spacingRight=4;overflow=hidden;rotatable=0;points=[[0,0.5],[1,0.5]];portConstraint=eastwest;rounded=0;shadow=0;glass=0;sketch=0;" vertex="1" parent="kt_uRmSC-czKB4jiJnjr-46">
          <mxGeometry y="104" width="330" height="26" as="geometry" />
        </mxCell>
        <mxCell id="kt_uRmSC-czKB4jiJnjr-88" style="edgeStyle=orthogonalEdgeStyle;rounded=0;orthogonalLoop=1;jettySize=auto;html=1;startArrow=none;startFill=0;endArrow=block;endFill=0;startSize=10;endSize=13;strokeWidth=1;entryX=0;entryY=0.5;entryDx=0;entryDy=0;exitX=0;exitY=0.5;exitDx=0;exitDy=0;" edge="1" parent="LlKW5JMFKi0ohFRiEqWP-1" source="kt_uRmSC-czKB4jiJnjr-93" target="kt_uRmSC-czKB4jiJnjr-2">
          <mxGeometry relative="1" as="geometry">
            <mxPoint x="987" y="364" as="targetPoint" />
            <Array as="points">
              <mxPoint x="960" y="789" />
              <mxPoint x="960" y="333" />
            </Array>
          </mxGeometry>
        </mxCell>
        <mxCell id="kt_uRmSC-czKB4jiJnjr-91" value="&lt;&lt;interface&gt;&gt;&#xa;PlanoCurso" style="swimlane;fontStyle=1;align=center;verticalAlign=middle;childLayout=stackLayout;horizontal=1;startSize=26;horizontalStack=0;resizeParent=1;resizeParentMax=0;resizeLast=0;collapsible=1;marginBottom=0;rounded=0;shadow=0;glass=0;sketch=0;" vertex="1" parent="LlKW5JMFKi0ohFRiEqWP-1">
          <mxGeometry x="1077" y="724" width="302.5" height="104" as="geometry" />
        </mxCell>
        <mxCell id="kt_uRmSC-czKB4jiJnjr-92" value="- id: Long" style="text;strokeColor=none;fillColor=none;align=left;verticalAlign=top;spacingLeft=4;spacingRight=4;overflow=hidden;rotatable=0;points=[[0,0.5],[1,0.5]];portConstraint=eastwest;rounded=0;shadow=0;glass=0;sketch=0;" vertex="1" parent="kt_uRmSC-czKB4jiJnjr-91">
          <mxGeometry y="26" width="302.5" height="26" as="geometry" />
        </mxCell>
        <mxCell id="kt_uRmSC-czKB4jiJnjr-93" value="- disciplinasCursadas: Set&lt;UnidadeConhecimento&gt;" style="text;strokeColor=none;fillColor=none;align=left;verticalAlign=top;spacingLeft=4;spacingRight=4;overflow=hidden;rotatable=0;points=[[0,0.5],[1,0.5]];portConstraint=eastwest;rounded=0;shadow=0;glass=0;sketch=0;" vertex="1" parent="kt_uRmSC-czKB4jiJnjr-91">
          <mxGeometry y="52" width="302.5" height="26" as="geometry" />
        </mxCell>
        <mxCell id="kt_uRmSC-czKB4jiJnjr-94" value="- disciplinasPendentes: Set&lt;UnidadeConhecimento&gt;" style="text;strokeColor=none;fillColor=none;align=left;verticalAlign=top;spacingLeft=4;spacingRight=4;overflow=hidden;rotatable=0;points=[[0,0.5],[1,0.5]];portConstraint=eastwest;rounded=0;shadow=0;glass=0;sketch=0;" vertex="1" parent="kt_uRmSC-czKB4jiJnjr-91">
          <mxGeometry y="78" width="302.5" height="26" as="geometry" />
        </mxCell>
        <mxCell id="kt_uRmSC-czKB4jiJnjr-104" style="edgeStyle=orthogonalEdgeStyle;rounded=0;orthogonalLoop=1;jettySize=auto;html=1;entryX=0.5;entryY=1;entryDx=0;entryDy=0;startArrow=none;startFill=0;endArrow=block;endFill=0;startSize=10;endSize=13;strokeWidth=1;" edge="1" parent="LlKW5JMFKi0ohFRiEqWP-1" source="kt_uRmSC-czKB4jiJnjr-105" target="kt_uRmSC-czKB4jiJnjr-0">
          <mxGeometry relative="1" as="geometry">
            <mxPoint x="1107.4" y="427.97399999999993" as="targetPoint" />
          </mxGeometry>
        </mxCell>
        <mxCell id="kt_uRmSC-czKB4jiJnjr-105" value="&lt;&lt;abstract&gt;&gt;&#xa;UnidadeConhecimento" style="swimlane;fontStyle=1;align=center;verticalAlign=middle;childLayout=stackLayout;horizontal=1;startSize=26;horizontalStack=0;resizeParent=1;resizeParentMax=0;resizeLast=0;collapsible=1;marginBottom=0;rounded=0;shadow=0;glass=0;sketch=0;spacing=0;" vertex="1" parent="LlKW5JMFKi0ohFRiEqWP-1">
          <mxGeometry x="1020" y="514" width="160" height="130" as="geometry" />
        </mxCell>
        <mxCell id="kt_uRmSC-czKB4jiJnjr-106" value="- id: Long" style="text;strokeColor=none;fillColor=none;align=left;verticalAlign=top;spacingLeft=4;spacingRight=4;overflow=hidden;rotatable=0;points=[[0,0.5],[1,0.5]];portConstraint=eastwest;rounded=0;shadow=0;glass=0;sketch=0;" vertex="1" parent="kt_uRmSC-czKB4jiJnjr-105">
          <mxGeometry y="26" width="160" height="26" as="geometry" />
        </mxCell>
        <mxCell id="kt_uRmSC-czKB4jiJnjr-107" value="- codigo: String" style="text;strokeColor=none;fillColor=none;align=left;verticalAlign=top;spacingLeft=4;spacingRight=4;overflow=hidden;rotatable=0;points=[[0,0.5],[1,0.5]];portConstraint=eastwest;rounded=0;shadow=0;glass=0;sketch=0;" vertex="1" parent="kt_uRmSC-czKB4jiJnjr-105">
          <mxGeometry y="52" width="160" height="26" as="geometry" />
        </mxCell>
        <mxCell id="kt_uRmSC-czKB4jiJnjr-108" value="- nome: String" style="text;strokeColor=none;fillColor=none;align=left;verticalAlign=top;spacingLeft=4;spacingRight=4;overflow=hidden;rotatable=0;points=[[0,0.5],[1,0.5]];portConstraint=eastwest;rounded=0;shadow=0;glass=0;sketch=0;" vertex="1" parent="kt_uRmSC-czKB4jiJnjr-105">
          <mxGeometry y="78" width="160" height="26" as="geometry" />
        </mxCell>
        <mxCell id="kt_uRmSC-czKB4jiJnjr-109" value="- prerequisitos: String" style="text;strokeColor=none;fillColor=none;align=left;verticalAlign=top;spacingLeft=4;spacingRight=4;overflow=hidden;rotatable=0;points=[[0,0.5],[1,0.5]];portConstraint=eastwest;rounded=0;shadow=0;glass=0;sketch=0;" vertex="1" parent="kt_uRmSC-czKB4jiJnjr-105">
          <mxGeometry y="104" width="160" height="26" as="geometry" />
        </mxCell>
        <mxCell id="LrYHgnie9dGAUfg_qDX6-0" style="edgeStyle=orthogonalEdgeStyle;rounded=0;orthogonalLoop=1;jettySize=auto;html=1;entryX=0;entryY=0.5;entryDx=0;entryDy=0;endArrow=open;endFill=0;strokeWidth=1;endSize=10;startFill=0;startSize=10;" edge="1" parent="LlKW5JMFKi0ohFRiEqWP-1" source="kt_uRmSC-czKB4jiJnjr-92" target="kt_uRmSC-czKB4jiJnjr-109">
          <mxGeometry relative="1" as="geometry" />
        </mxCell>
      </root>
    </mxGraphModel>
  </diagram>
  <diagram id="6Jp5esTvXKHxChAOgEjs" name="Aplicação 1">
    <mxGraphModel dx="1235" dy="752" grid="1" gridSize="10" guides="1" tooltips="1" connect="1" arrows="1" fold="1" page="1" pageScale="1" pageWidth="827" pageHeight="1169" math="0" shadow="0">
      <root>
        <mxCell id="b5my0aDajLwDSbUlj8-r-0" />
        <mxCell id="b5my0aDajLwDSbUlj8-r-1" parent="b5my0aDajLwDSbUlj8-r-0" />
        <mxCell id="Idaxp7ALwB48PmWHynA2-0" value="&lt;&lt;abstract&gt;&gt;&#xa;ModeloAbstrato" style="swimlane;fontStyle=1;align=center;verticalAlign=middle;childLayout=stackLayout;horizontal=1;startSize=26;horizontalStack=0;resizeParent=1;resizeParentMax=0;resizeLast=0;collapsible=1;marginBottom=0;rounded=0;shadow=0;glass=0;sketch=0;whiteSpace=wrap;" vertex="1" parent="b5my0aDajLwDSbUlj8-r-1">
          <mxGeometry x="1000" y="268" width="200" height="130" as="geometry" />
        </mxCell>
        <mxCell id="Idaxp7ALwB48PmWHynA2-1" value="- dataCriacao: LocalDateTime" style="text;strokeColor=none;fillColor=none;align=left;verticalAlign=top;spacingLeft=4;spacingRight=4;overflow=hidden;rotatable=0;points=[[0,0.5],[1,0.5]];portConstraint=eastwest;rounded=1;shadow=0;glass=0;sketch=0;" vertex="1" parent="Idaxp7ALwB48PmWHynA2-0">
          <mxGeometry y="26" width="200" height="26" as="geometry" />
        </mxCell>
        <mxCell id="Idaxp7ALwB48PmWHynA2-2" value="- dataModificacao: LocalDateTime" style="text;strokeColor=none;fillColor=none;align=left;verticalAlign=top;spacingLeft=4;spacingRight=4;overflow=hidden;rotatable=0;points=[[0,0.5],[1,0.5]];portConstraint=eastwest;rounded=1;shadow=0;glass=0;sketch=0;" vertex="1" parent="Idaxp7ALwB48PmWHynA2-0">
          <mxGeometry y="52" width="200" height="26" as="geometry" />
        </mxCell>
        <mxCell id="Idaxp7ALwB48PmWHynA2-3" value="- dataExclusao: LocalDateTime" style="text;strokeColor=none;fillColor=none;align=left;verticalAlign=top;spacingLeft=4;spacingRight=4;overflow=hidden;rotatable=0;points=[[0,0.5],[1,0.5]];portConstraint=eastwest;rounded=1;shadow=0;glass=0;sketch=0;" vertex="1" parent="Idaxp7ALwB48PmWHynA2-0">
          <mxGeometry y="78" width="200" height="26" as="geometry" />
        </mxCell>
        <mxCell id="Idaxp7ALwB48PmWHynA2-4" value="- ativo: Boolean" style="text;strokeColor=none;fillColor=none;align=left;verticalAlign=top;spacingLeft=4;spacingRight=4;overflow=hidden;rotatable=0;points=[[0,0.5],[1,0.5]];portConstraint=eastwest;rounded=1;shadow=0;glass=0;sketch=0;" vertex="1" parent="Idaxp7ALwB48PmWHynA2-0">
          <mxGeometry y="104" width="200" height="26" as="geometry" />
        </mxCell>
        <mxCell id="Idaxp7ALwB48PmWHynA2-5" style="edgeStyle=orthogonalEdgeStyle;rounded=0;orthogonalLoop=1;jettySize=auto;html=1;entryX=0.5;entryY=0;entryDx=0;entryDy=0;strokeWidth=1;endArrow=block;endFill=0;startSize=6;endSize=13;" edge="1" parent="b5my0aDajLwDSbUlj8-r-1" source="Idaxp7ALwB48PmWHynA2-6" target="Idaxp7ALwB48PmWHynA2-0">
          <mxGeometry relative="1" as="geometry" />
        </mxCell>
        <mxCell id="Idaxp7ALwB48PmWHynA2-6" value="Usuario" style="swimlane;fontStyle=1;align=center;verticalAlign=top;childLayout=stackLayout;horizontal=1;startSize=26;horizontalStack=0;resizeParent=1;resizeParentMax=0;resizeLast=0;collapsible=1;marginBottom=0;rounded=0;shadow=0;glass=0;sketch=0;" vertex="1" parent="b5my0aDajLwDSbUlj8-r-1">
          <mxGeometry x="1020" y="120" width="160" height="104" as="geometry" />
        </mxCell>
        <mxCell id="Idaxp7ALwB48PmWHynA2-7" value="# nome: String" style="text;strokeColor=none;fillColor=none;align=left;verticalAlign=top;spacingLeft=4;spacingRight=4;overflow=hidden;rotatable=0;points=[[0,0.5],[1,0.5]];portConstraint=eastwest;rounded=0;shadow=0;glass=0;sketch=0;" vertex="1" parent="Idaxp7ALwB48PmWHynA2-6">
          <mxGeometry y="26" width="160" height="26" as="geometry" />
        </mxCell>
        <mxCell id="Idaxp7ALwB48PmWHynA2-8" value="# email: String" style="text;strokeColor=none;fillColor=none;align=left;verticalAlign=top;spacingLeft=4;spacingRight=4;overflow=hidden;rotatable=0;points=[[0,0.5],[1,0.5]];portConstraint=eastwest;rounded=0;shadow=0;glass=0;sketch=0;" vertex="1" parent="Idaxp7ALwB48PmWHynA2-6">
          <mxGeometry y="52" width="160" height="26" as="geometry" />
        </mxCell>
        <mxCell id="Idaxp7ALwB48PmWHynA2-9" value="# senha: String" style="text;strokeColor=none;fillColor=none;align=left;verticalAlign=top;spacingLeft=4;spacingRight=4;overflow=hidden;rotatable=0;points=[[0,0.5],[1,0.5]];portConstraint=eastwest;rounded=0;shadow=0;glass=0;sketch=0;" vertex="1" parent="Idaxp7ALwB48PmWHynA2-6">
          <mxGeometry y="78" width="160" height="26" as="geometry" />
        </mxCell>
        <mxCell id="Idaxp7ALwB48PmWHynA2-10" style="edgeStyle=orthogonalEdgeStyle;rounded=0;orthogonalLoop=1;jettySize=auto;html=1;entryX=0.5;entryY=0;entryDx=0;entryDy=0;endArrow=block;endFill=0;startSize=6;endSize=13;strokeWidth=1;" edge="1" parent="b5my0aDajLwDSbUlj8-r-1" source="Idaxp7ALwB48PmWHynA2-11" target="Idaxp7ALwB48PmWHynA2-6">
          <mxGeometry relative="1" as="geometry" />
        </mxCell>
        <mxCell id="Idaxp7ALwB48PmWHynA2-11" value="Administrador" style="swimlane;fontStyle=1;align=center;verticalAlign=top;childLayout=stackLayout;horizontal=1;startSize=26;horizontalStack=0;resizeParent=1;resizeParentMax=0;resizeLast=0;collapsible=1;marginBottom=0;rounded=0;shadow=0;glass=0;sketch=0;" vertex="1" parent="b5my0aDajLwDSbUlj8-r-1">
          <mxGeometry x="1020" y="30" width="160" height="52" as="geometry" />
        </mxCell>
        <mxCell id="Idaxp7ALwB48PmWHynA2-12" value="- id: Long" style="text;strokeColor=none;fillColor=none;align=left;verticalAlign=top;spacingLeft=4;spacingRight=4;overflow=hidden;rotatable=0;points=[[0,0.5],[1,0.5]];portConstraint=eastwest;rounded=0;shadow=0;glass=0;sketch=0;" vertex="1" parent="Idaxp7ALwB48PmWHynA2-11">
          <mxGeometry y="26" width="160" height="26" as="geometry" />
        </mxCell>
        <mxCell id="Idaxp7ALwB48PmWHynA2-13" style="edgeStyle=orthogonalEdgeStyle;rounded=0;orthogonalLoop=1;jettySize=auto;html=1;entryX=1;entryY=0.5;entryDx=0;entryDy=0;endArrow=block;endFill=0;startSize=6;endSize=13;strokeWidth=1;" edge="1" parent="b5my0aDajLwDSbUlj8-r-1" source="Idaxp7ALwB48PmWHynA2-15" target="Idaxp7ALwB48PmWHynA2-8">
          <mxGeometry relative="1" as="geometry" />
        </mxCell>
        <mxCell id="Idaxp7ALwB48PmWHynA2-14" style="edgeStyle=orthogonalEdgeStyle;rounded=0;orthogonalLoop=1;jettySize=auto;html=1;endArrow=open;endFill=0;startSize=10;endSize=10;strokeWidth=1;startArrow=open;startFill=0;" edge="1" parent="b5my0aDajLwDSbUlj8-r-1" source="Idaxp7ALwB48PmWHynA2-15" target="Idaxp7ALwB48PmWHynA2-21">
          <mxGeometry relative="1" as="geometry" />
        </mxCell>
        <mxCell id="Idaxp7ALwB48PmWHynA2-15" value="Estudante" style="swimlane;fontStyle=1;align=center;verticalAlign=top;childLayout=stackLayout;horizontal=1;startSize=26;horizontalStack=0;resizeParent=1;resizeParentMax=0;resizeLast=0;collapsible=1;marginBottom=0;rounded=0;shadow=0;glass=0;sketch=0;" vertex="1" parent="b5my0aDajLwDSbUlj8-r-1">
          <mxGeometry x="1345" y="146" width="160" height="78" as="geometry" />
        </mxCell>
        <mxCell id="Idaxp7ALwB48PmWHynA2-16" value="- id: Long" style="text;strokeColor=none;fillColor=none;align=left;verticalAlign=top;spacingLeft=4;spacingRight=4;overflow=hidden;rotatable=0;points=[[0,0.5],[1,0.5]];portConstraint=eastwest;rounded=0;shadow=0;glass=0;sketch=0;" vertex="1" parent="Idaxp7ALwB48PmWHynA2-15">
          <mxGeometry y="26" width="160" height="26" as="geometry" />
        </mxCell>
        <mxCell id="Idaxp7ALwB48PmWHynA2-17" value="- vinculos: Set&lt;Vinculo&gt;" style="text;strokeColor=none;fillColor=none;align=left;verticalAlign=top;spacingLeft=4;spacingRight=4;overflow=hidden;rotatable=0;points=[[0,0.5],[1,0.5]];portConstraint=eastwest;rounded=0;shadow=0;glass=0;sketch=0;" vertex="1" parent="Idaxp7ALwB48PmWHynA2-15">
          <mxGeometry y="52" width="160" height="26" as="geometry" />
        </mxCell>
        <mxCell id="Idaxp7ALwB48PmWHynA2-18" style="edgeStyle=orthogonalEdgeStyle;rounded=0;orthogonalLoop=1;jettySize=auto;html=1;endArrow=block;endFill=0;startSize=10;endSize=13;strokeWidth=1;entryX=1;entryY=0.5;entryDx=0;entryDy=0;" edge="1" parent="b5my0aDajLwDSbUlj8-r-1" source="Idaxp7ALwB48PmWHynA2-21" target="Idaxp7ALwB48PmWHynA2-2">
          <mxGeometry relative="1" as="geometry">
            <mxPoint x="1207" y="333" as="targetPoint" />
          </mxGeometry>
        </mxCell>
        <mxCell id="Idaxp7ALwB48PmWHynA2-19" style="edgeStyle=orthogonalEdgeStyle;rounded=0;orthogonalLoop=1;jettySize=auto;html=1;entryX=0.5;entryY=0;entryDx=0;entryDy=0;startArrow=none;startFill=0;endArrow=open;endFill=0;startSize=10;endSize=10;strokeWidth=1;" edge="1" parent="b5my0aDajLwDSbUlj8-r-1" source="Idaxp7ALwB48PmWHynA2-21" target="Idaxp7ALwB48PmWHynA2-29">
          <mxGeometry relative="1" as="geometry" />
        </mxCell>
        <mxCell id="Idaxp7ALwB48PmWHynA2-20" style="edgeStyle=orthogonalEdgeStyle;rounded=0;orthogonalLoop=1;jettySize=auto;html=1;startArrow=none;startFill=0;endArrow=open;endFill=0;startSize=10;endSize=10;strokeWidth=1;entryX=1;entryY=0.5;entryDx=0;entryDy=0;" edge="1" parent="b5my0aDajLwDSbUlj8-r-1" source="Idaxp7ALwB48PmWHynA2-21" target="Idaxp7ALwB48PmWHynA2-37">
          <mxGeometry relative="1" as="geometry">
            <mxPoint x="1767" y="1454" as="targetPoint" />
            <Array as="points">
              <mxPoint x="1610" y="334" />
              <mxPoint x="1610" y="1025" />
            </Array>
          </mxGeometry>
        </mxCell>
        <mxCell id="Idaxp7ALwB48PmWHynA2-21" value="&lt;&lt;interface&gt;&gt;&#xa;Vinculo" style="swimlane;fontStyle=1;align=center;verticalAlign=middle;childLayout=stackLayout;horizontal=1;startSize=26;horizontalStack=0;resizeParent=1;resizeParentMax=0;resizeLast=0;collapsible=1;marginBottom=0;rounded=0;shadow=0;glass=0;sketch=0;" vertex="1" parent="b5my0aDajLwDSbUlj8-r-1">
          <mxGeometry x="1325" y="310" width="200" height="156" as="geometry" />
        </mxCell>
        <mxCell id="Idaxp7ALwB48PmWHynA2-22" value="- id: Long" style="text;strokeColor=none;fillColor=none;align=left;verticalAlign=top;spacingLeft=4;spacingRight=4;overflow=hidden;rotatable=0;points=[[0,0.5],[1,0.5]];portConstraint=eastwest;rounded=0;shadow=0;glass=0;sketch=0;" vertex="1" parent="Idaxp7ALwB48PmWHynA2-21">
          <mxGeometry y="26" width="200" height="26" as="geometry" />
        </mxCell>
        <mxCell id="Idaxp7ALwB48PmWHynA2-23" value="- matricula: String" style="text;strokeColor=none;fillColor=none;align=left;verticalAlign=top;spacingLeft=4;spacingRight=4;overflow=hidden;rotatable=0;points=[[0,0.5],[1,0.5]];portConstraint=eastwest;rounded=0;shadow=0;glass=0;sketch=0;" vertex="1" parent="Idaxp7ALwB48PmWHynA2-21">
          <mxGeometry y="52" width="200" height="26" as="geometry" />
        </mxCell>
        <mxCell id="Idaxp7ALwB48PmWHynA2-24" value="- gradeCurricular: GradeCurricular" style="text;strokeColor=none;fillColor=none;align=left;verticalAlign=top;spacingLeft=4;spacingRight=4;overflow=hidden;rotatable=0;points=[[0,0.5],[1,0.5]];portConstraint=eastwest;rounded=0;shadow=0;glass=0;sketch=0;" vertex="1" parent="Idaxp7ALwB48PmWHynA2-21">
          <mxGeometry y="78" width="200" height="26" as="geometry" />
        </mxCell>
        <mxCell id="Idaxp7ALwB48PmWHynA2-25" value="- planoCurso: PlanoCurso" style="text;strokeColor=none;fillColor=none;align=left;verticalAlign=top;spacingLeft=4;spacingRight=4;overflow=hidden;rotatable=0;points=[[0,0.5],[1,0.5]];portConstraint=eastwest;rounded=0;shadow=0;glass=0;sketch=0;" vertex="1" parent="Idaxp7ALwB48PmWHynA2-21">
          <mxGeometry y="104" width="200" height="26" as="geometry" />
        </mxCell>
        <mxCell id="Idaxp7ALwB48PmWHynA2-26" value="- estudante: Estudante" style="text;strokeColor=none;fillColor=none;align=left;verticalAlign=top;spacingLeft=4;spacingRight=4;overflow=hidden;rotatable=0;points=[[0,0.5],[1,0.5]];portConstraint=eastwest;rounded=0;shadow=0;glass=0;sketch=0;" vertex="1" parent="Idaxp7ALwB48PmWHynA2-21">
          <mxGeometry y="130" width="200" height="26" as="geometry" />
        </mxCell>
        <mxCell id="Idaxp7ALwB48PmWHynA2-27" style="edgeStyle=orthogonalEdgeStyle;rounded=0;orthogonalLoop=1;jettySize=auto;html=1;startArrow=none;startFill=0;endArrow=block;endFill=0;startSize=10;endSize=13;strokeWidth=1;entryX=1;entryY=0.5;entryDx=0;entryDy=0;" edge="1" parent="b5my0aDajLwDSbUlj8-r-1" source="Idaxp7ALwB48PmWHynA2-29" target="Idaxp7ALwB48PmWHynA2-4">
          <mxGeometry relative="1" as="geometry">
            <mxPoint x="1207" y="415" as="targetPoint" />
            <Array as="points">
              <mxPoint x="1247" y="584" />
              <mxPoint x="1247" y="385" />
            </Array>
          </mxGeometry>
        </mxCell>
        <mxCell id="Idaxp7ALwB48PmWHynA2-28" style="edgeStyle=orthogonalEdgeStyle;rounded=0;orthogonalLoop=1;jettySize=auto;html=1;entryX=1;entryY=0.5;entryDx=0;entryDy=0;startArrow=none;startFill=0;endArrow=open;endFill=0;startSize=10;endSize=10;strokeWidth=1;" edge="1" parent="b5my0aDajLwDSbUlj8-r-1" source="Idaxp7ALwB48PmWHynA2-29" target="Idaxp7ALwB48PmWHynA2-44">
          <mxGeometry relative="1" as="geometry">
            <Array as="points">
              <mxPoint x="1227" y="631" />
              <mxPoint x="1227" y="631" />
            </Array>
          </mxGeometry>
        </mxCell>
        <mxCell id="Idaxp7ALwB48PmWHynA2-29" value="&lt;&lt;interface&gt;&gt;&#xa;GradeCurricular" style="swimlane;fontStyle=1;align=center;verticalAlign=middle;childLayout=stackLayout;horizontal=1;startSize=26;horizontalStack=0;resizeParent=1;resizeParentMax=0;resizeLast=0;collapsible=1;marginBottom=0;rounded=0;shadow=0;glass=0;sketch=0;" vertex="1" parent="b5my0aDajLwDSbUlj8-r-1">
          <mxGeometry x="1260" y="544" width="330" height="104" as="geometry" />
        </mxCell>
        <mxCell id="Idaxp7ALwB48PmWHynA2-30" value="- id: Long" style="text;strokeColor=none;fillColor=none;align=left;verticalAlign=top;spacingLeft=4;spacingRight=4;overflow=hidden;rotatable=0;points=[[0,0.5],[1,0.5]];portConstraint=eastwest;rounded=0;shadow=0;glass=0;sketch=0;" vertex="1" parent="Idaxp7ALwB48PmWHynA2-29">
          <mxGeometry y="26" width="330" height="26" as="geometry" />
        </mxCell>
        <mxCell id="Idaxp7ALwB48PmWHynA2-31" value="- nome: String" style="text;strokeColor=none;fillColor=none;align=left;verticalAlign=top;spacingLeft=4;spacingRight=4;overflow=hidden;rotatable=0;points=[[0,0.5],[1,0.5]];portConstraint=eastwest;rounded=0;shadow=0;glass=0;sketch=0;" vertex="1" parent="Idaxp7ALwB48PmWHynA2-29">
          <mxGeometry y="52" width="330" height="26" as="geometry" />
        </mxCell>
        <mxCell id="Idaxp7ALwB48PmWHynA2-33" value="- disciplinas: Set&lt;UnidadeConhecimento&gt;" style="text;strokeColor=none;fillColor=none;align=left;verticalAlign=top;spacingLeft=4;spacingRight=4;overflow=hidden;rotatable=0;points=[[0,0.5],[1,0.5]];portConstraint=eastwest;rounded=0;shadow=0;glass=0;sketch=0;" vertex="1" parent="Idaxp7ALwB48PmWHynA2-29">
          <mxGeometry y="78" width="330" height="26" as="geometry" />
        </mxCell>
        <mxCell id="Idaxp7ALwB48PmWHynA2-34" style="edgeStyle=orthogonalEdgeStyle;rounded=0;orthogonalLoop=1;jettySize=auto;html=1;startArrow=none;startFill=0;endArrow=block;endFill=0;startSize=10;endSize=13;strokeWidth=1;entryX=0;entryY=0.5;entryDx=0;entryDy=0;exitX=0;exitY=0.5;exitDx=0;exitDy=0;" edge="1" parent="b5my0aDajLwDSbUlj8-r-1" source="Idaxp7ALwB48PmWHynA2-37" target="Idaxp7ALwB48PmWHynA2-2">
          <mxGeometry relative="1" as="geometry">
            <mxPoint x="987" y="364" as="targetPoint" />
            <Array as="points">
              <mxPoint x="960" y="1025" />
              <mxPoint x="960" y="333" />
            </Array>
          </mxGeometry>
        </mxCell>
        <mxCell id="Idaxp7ALwB48PmWHynA2-35" value="&lt;&lt;interface&gt;&gt;&#xa;PlanoCurso" style="swimlane;fontStyle=1;align=center;verticalAlign=middle;childLayout=stackLayout;horizontal=1;startSize=26;horizontalStack=0;resizeParent=1;resizeParentMax=0;resizeLast=0;collapsible=1;marginBottom=0;rounded=0;shadow=0;glass=0;sketch=0;" vertex="1" parent="b5my0aDajLwDSbUlj8-r-1">
          <mxGeometry x="1070" y="960" width="302.5" height="104" as="geometry" />
        </mxCell>
        <mxCell id="Idaxp7ALwB48PmWHynA2-36" value="- id: Long" style="text;strokeColor=none;fillColor=none;align=left;verticalAlign=top;spacingLeft=4;spacingRight=4;overflow=hidden;rotatable=0;points=[[0,0.5],[1,0.5]];portConstraint=eastwest;rounded=0;shadow=0;glass=0;sketch=0;" vertex="1" parent="Idaxp7ALwB48PmWHynA2-35">
          <mxGeometry y="26" width="302.5" height="26" as="geometry" />
        </mxCell>
        <mxCell id="Idaxp7ALwB48PmWHynA2-37" value="- disciplinasCursadas: Set&lt;UnidadeConhecimento&gt;" style="text;strokeColor=none;fillColor=none;align=left;verticalAlign=top;spacingLeft=4;spacingRight=4;overflow=hidden;rotatable=0;points=[[0,0.5],[1,0.5]];portConstraint=eastwest;rounded=0;shadow=0;glass=0;sketch=0;" vertex="1" parent="Idaxp7ALwB48PmWHynA2-35">
          <mxGeometry y="52" width="302.5" height="26" as="geometry" />
        </mxCell>
        <mxCell id="Idaxp7ALwB48PmWHynA2-38" value="- disciplinasPendentes: Set&lt;UnidadeConhecimento&gt;" style="text;strokeColor=none;fillColor=none;align=left;verticalAlign=top;spacingLeft=4;spacingRight=4;overflow=hidden;rotatable=0;points=[[0,0.5],[1,0.5]];portConstraint=eastwest;rounded=0;shadow=0;glass=0;sketch=0;" vertex="1" parent="Idaxp7ALwB48PmWHynA2-35">
          <mxGeometry y="78" width="302.5" height="26" as="geometry" />
        </mxCell>
        <mxCell id="Idaxp7ALwB48PmWHynA2-39" style="edgeStyle=orthogonalEdgeStyle;rounded=0;orthogonalLoop=1;jettySize=auto;html=1;entryX=0.5;entryY=1;entryDx=0;entryDy=0;startArrow=none;startFill=0;endArrow=block;endFill=0;startSize=10;endSize=13;strokeWidth=1;" edge="1" parent="b5my0aDajLwDSbUlj8-r-1" source="Idaxp7ALwB48PmWHynA2-40" target="Idaxp7ALwB48PmWHynA2-0">
          <mxGeometry relative="1" as="geometry">
            <mxPoint x="1107.4" y="427.97399999999993" as="targetPoint" />
          </mxGeometry>
        </mxCell>
        <mxCell id="Idaxp7ALwB48PmWHynA2-40" value="&lt;&lt;abstract&gt;&gt;&#xa;UnidadeConhecimento" style="swimlane;fontStyle=1;align=center;verticalAlign=middle;childLayout=stackLayout;horizontal=1;startSize=26;horizontalStack=0;resizeParent=1;resizeParentMax=0;resizeLast=0;collapsible=1;marginBottom=0;rounded=0;shadow=0;glass=0;sketch=0;spacing=0;" vertex="1" parent="b5my0aDajLwDSbUlj8-r-1">
          <mxGeometry x="1020" y="514" width="160" height="130" as="geometry" />
        </mxCell>
        <mxCell id="Idaxp7ALwB48PmWHynA2-41" value="- id: Long" style="text;strokeColor=none;fillColor=none;align=left;verticalAlign=top;spacingLeft=4;spacingRight=4;overflow=hidden;rotatable=0;points=[[0,0.5],[1,0.5]];portConstraint=eastwest;rounded=0;shadow=0;glass=0;sketch=0;" vertex="1" parent="Idaxp7ALwB48PmWHynA2-40">
          <mxGeometry y="26" width="160" height="26" as="geometry" />
        </mxCell>
        <mxCell id="Idaxp7ALwB48PmWHynA2-42" value="- codigo: String" style="text;strokeColor=none;fillColor=none;align=left;verticalAlign=top;spacingLeft=4;spacingRight=4;overflow=hidden;rotatable=0;points=[[0,0.5],[1,0.5]];portConstraint=eastwest;rounded=0;shadow=0;glass=0;sketch=0;" vertex="1" parent="Idaxp7ALwB48PmWHynA2-40">
          <mxGeometry y="52" width="160" height="26" as="geometry" />
        </mxCell>
        <mxCell id="Idaxp7ALwB48PmWHynA2-43" value="- nome: String" style="text;strokeColor=none;fillColor=none;align=left;verticalAlign=top;spacingLeft=4;spacingRight=4;overflow=hidden;rotatable=0;points=[[0,0.5],[1,0.5]];portConstraint=eastwest;rounded=0;shadow=0;glass=0;sketch=0;" vertex="1" parent="Idaxp7ALwB48PmWHynA2-40">
          <mxGeometry y="78" width="160" height="26" as="geometry" />
        </mxCell>
        <mxCell id="Idaxp7ALwB48PmWHynA2-44" value="- prerequisitos: String" style="text;strokeColor=none;fillColor=none;align=left;verticalAlign=top;spacingLeft=4;spacingRight=4;overflow=hidden;rotatable=0;points=[[0,0.5],[1,0.5]];portConstraint=eastwest;rounded=0;shadow=0;glass=0;sketch=0;" vertex="1" parent="Idaxp7ALwB48PmWHynA2-40">
          <mxGeometry y="104" width="160" height="26" as="geometry" />
        </mxCell>
        <mxCell id="qjsrcE5mShgcoOn3fbEe-14" value="" style="edgeStyle=orthogonalEdgeStyle;rounded=0;orthogonalLoop=1;jettySize=auto;html=1;endArrow=block;endFill=0;strokeWidth=1;endSize=13;startFill=0;startSize=10;entryX=0.5;entryY=1;entryDx=0;entryDy=0;" edge="1" parent="b5my0aDajLwDSbUlj8-r-1" source="sF69wcy8TuQIlAh-S7gG-0" target="Idaxp7ALwB48PmWHynA2-29">
          <mxGeometry relative="1" as="geometry" />
        </mxCell>
        <mxCell id="sF69wcy8TuQIlAh-S7gG-0" value="&lt;pre style=&quot;font-size: 12px&quot;&gt;&lt;b&gt;Pes&lt;/b&gt;&lt;/pre&gt;" style="swimlane;html=1;fontStyle=0;childLayout=stackLayout;horizontal=1;startSize=26;fillColor=none;horizontalStack=0;resizeParent=1;resizeLast=0;collapsible=1;marginBottom=0;swimlaneFillColor=#ffffff;rounded=0;shadow=0;comic=0;labelBackgroundColor=none;strokeWidth=1;fontFamily=Verdana;fontSize=10;align=center;" vertex="1" parent="b5my0aDajLwDSbUlj8-r-1">
          <mxGeometry x="1285" y="710" width="280" height="110" as="geometry" />
        </mxCell>
        <mxCell id="sF69wcy8TuQIlAh-S7gG-3" value="- chm: Integer" style="text;html=1;strokeColor=none;fillColor=none;align=left;verticalAlign=top;spacingLeft=4;spacingRight=4;whiteSpace=wrap;overflow=hidden;rotatable=0;points=[[0,0.5],[1,0.5]];portConstraint=eastwest;" vertex="1" parent="sF69wcy8TuQIlAh-S7gG-0">
          <mxGeometry y="26" width="280" height="26" as="geometry" />
        </mxCell>
        <mxCell id="sF69wcy8TuQIlAh-S7gG-4" value="- cho: Integer" style="text;html=1;strokeColor=none;fillColor=none;align=left;verticalAlign=top;spacingLeft=4;spacingRight=4;whiteSpace=wrap;overflow=hidden;rotatable=0;points=[[0,0.5],[1,0.5]];portConstraint=eastwest;" vertex="1" parent="sF69wcy8TuQIlAh-S7gG-0">
          <mxGeometry y="52" width="280" height="26" as="geometry" />
        </mxCell>
        <mxCell id="sF69wcy8TuQIlAh-S7gG-6" value="- disciplinasOptativas: Set&amp;lt;Disciplinas&amp;gt;" style="text;html=1;strokeColor=none;fillColor=none;align=left;verticalAlign=top;spacingLeft=4;spacingRight=4;whiteSpace=wrap;overflow=hidden;rotatable=0;points=[[0,0.5],[1,0.5]];portConstraint=eastwest;" vertex="1" parent="sF69wcy8TuQIlAh-S7gG-0">
          <mxGeometry y="78" width="280" height="26" as="geometry" />
        </mxCell>
        <mxCell id="qjsrcE5mShgcoOn3fbEe-11" style="edgeStyle=orthogonalEdgeStyle;rounded=0;orthogonalLoop=1;jettySize=auto;html=1;entryX=0.5;entryY=1;entryDx=0;entryDy=0;endArrow=block;endFill=0;strokeWidth=1;endSize=13;startFill=0;startSize=10;" edge="1" parent="b5my0aDajLwDSbUlj8-r-1" source="qjsrcE5mShgcoOn3fbEe-0" target="Idaxp7ALwB48PmWHynA2-40">
          <mxGeometry relative="1" as="geometry" />
        </mxCell>
        <mxCell id="qjsrcE5mShgcoOn3fbEe-0" value="&lt;pre style=&quot;font-size: 12px&quot;&gt;&lt;b&gt;Disciplina&lt;/b&gt;&lt;/pre&gt;" style="swimlane;html=1;fontStyle=0;childLayout=stackLayout;horizontal=1;startSize=26;fillColor=none;horizontalStack=0;resizeParent=1;resizeLast=0;collapsible=1;marginBottom=0;swimlaneFillColor=#ffffff;rounded=0;shadow=0;comic=0;labelBackgroundColor=none;strokeWidth=1;fontFamily=Verdana;fontSize=10;align=center;" vertex="1" parent="b5my0aDajLwDSbUlj8-r-1">
          <mxGeometry x="1019" y="710" width="162" height="80" as="geometry" />
        </mxCell>
        <mxCell id="qjsrcE5mShgcoOn3fbEe-4" value="- ch: Integer" style="text;html=1;strokeColor=none;fillColor=none;align=left;verticalAlign=top;spacingLeft=4;spacingRight=4;whiteSpace=wrap;overflow=hidden;rotatable=0;points=[[0,0.5],[1,0.5]];portConstraint=eastwest;" vertex="1" parent="qjsrcE5mShgcoOn3fbEe-0">
          <mxGeometry y="26" width="162" height="26" as="geometry" />
        </mxCell>
        <mxCell id="qjsrcE5mShgcoOn3fbEe-7" value="- equivalentes: String" style="text;html=1;strokeColor=none;fillColor=none;align=left;verticalAlign=top;spacingLeft=4;spacingRight=4;whiteSpace=wrap;overflow=hidden;rotatable=0;points=[[0,0.5],[1,0.5]];portConstraint=eastwest;" vertex="1" parent="qjsrcE5mShgcoOn3fbEe-0">
          <mxGeometry y="52" width="162" height="26" as="geometry" />
        </mxCell>
        <mxCell id="qjsrcE5mShgcoOn3fbEe-12" style="edgeStyle=orthogonalEdgeStyle;rounded=0;orthogonalLoop=1;jettySize=auto;html=1;entryX=1;entryY=0.5;entryDx=0;entryDy=0;endArrow=open;endFill=0;strokeWidth=1;endSize=10;startFill=0;startSize=10;" edge="1" parent="b5my0aDajLwDSbUlj8-r-1" target="qjsrcE5mShgcoOn3fbEe-4">
          <mxGeometry relative="1" as="geometry">
            <mxPoint x="1285" y="749" as="sourcePoint" />
          </mxGeometry>
        </mxCell>
        <mxCell id="fL5-6qpL0kOwvn3yzvcT-4" value="" style="edgeStyle=orthogonalEdgeStyle;rounded=0;orthogonalLoop=1;jettySize=auto;html=1;endArrow=block;endFill=0;strokeWidth=1;endSize=13;startFill=0;startSize=10;entryX=0.5;entryY=0;entryDx=0;entryDy=0;" edge="1" parent="b5my0aDajLwDSbUlj8-r-1" source="fL5-6qpL0kOwvn3yzvcT-0" target="Idaxp7ALwB48PmWHynA2-35">
          <mxGeometry relative="1" as="geometry" />
        </mxCell>
        <mxCell id="fL5-6qpL0kOwvn3yzvcT-0" value="&lt;pre style=&quot;font-size: 12px&quot;&gt;&lt;b&gt;PlanoCurso&lt;/b&gt;&lt;/pre&gt;" style="swimlane;html=1;fontStyle=0;childLayout=stackLayout;horizontal=1;startSize=26;fillColor=none;horizontalStack=0;resizeParent=1;resizeLast=0;collapsible=1;marginBottom=0;swimlaneFillColor=#ffffff;rounded=0;shadow=0;comic=0;labelBackgroundColor=none;strokeWidth=1;fontFamily=Verdana;fontSize=10;align=center;" vertex="1" parent="b5my0aDajLwDSbUlj8-r-1">
          <mxGeometry x="1073.75" y="840" width="295" height="60" as="geometry" />
        </mxCell>
        <mxCell id="fL5-6qpL0kOwvn3yzvcT-3" value="- gradesParalelas: List&amp;lt;Pes&amp;gt;" style="text;html=1;strokeColor=none;fillColor=none;align=left;verticalAlign=top;spacingLeft=4;spacingRight=4;whiteSpace=wrap;overflow=hidden;rotatable=0;points=[[0,0.5],[1,0.5]];portConstraint=eastwest;" vertex="1" parent="fL5-6qpL0kOwvn3yzvcT-0">
          <mxGeometry y="26" width="295" height="26" as="geometry" />
        </mxCell>
        <mxCell id="fL5-6qpL0kOwvn3yzvcT-6" style="edgeStyle=orthogonalEdgeStyle;rounded=0;orthogonalLoop=1;jettySize=auto;html=1;entryX=0.75;entryY=1;entryDx=0;entryDy=0;endArrow=open;endFill=0;strokeWidth=1;endSize=10;startFill=0;startSize=10;" edge="1" parent="b5my0aDajLwDSbUlj8-r-1" source="fL5-6qpL0kOwvn3yzvcT-3" target="sF69wcy8TuQIlAh-S7gG-0">
          <mxGeometry relative="1" as="geometry" />
        </mxCell>
        <mxCell id="TLQT_8JI-cWI3MOezdlY-0" style="edgeStyle=orthogonalEdgeStyle;rounded=0;orthogonalLoop=1;jettySize=auto;html=1;entryX=0;entryY=0.5;entryDx=0;entryDy=0;endArrow=open;endFill=0;strokeWidth=1;endSize=10;startFill=0;startSize=10;" edge="1" parent="b5my0aDajLwDSbUlj8-r-1" source="Idaxp7ALwB48PmWHynA2-36" target="Idaxp7ALwB48PmWHynA2-44">
          <mxGeometry relative="1" as="geometry" />
        </mxCell>
      </root>
    </mxGraphModel>
  </diagram>
</mxfile>
